G04 #@! TF.GenerationSoftware,KiCad,Pcbnew,(2017-06-16 revision 2018d4894)-master*
G04 #@! TF.CreationDate,2017-08-04T06:40:25+02:00*
G04 #@! TF.ProjectId,LT3032-breakout,4C54333033322D627265616B6F75742E,rev?*
G04 #@! TF.SameCoordinates,Original
G04 #@! TF.FileFunction,Copper,L2,Bot,Signal*
G04 #@! TF.FilePolarity,Positive*
%FSLAX46Y46*%
G04 Gerber Fmt 4.6, Leading zero omitted, Abs format (unit mm)*
G04 Created by KiCad (PCBNEW (2017-06-16 revision 2018d4894)-master) date Fri Aug  4 06:40:25 2017*
%MOMM*%
%LPD*%
G01*
G04 APERTURE LIST*
%ADD10C,0.100000*%
%ADD11O,1.700000X1.700000*%
%ADD12R,1.700000X1.700000*%
%ADD13C,0.600000*%
%ADD14C,0.250000*%
%ADD15C,0.150000*%
G04 APERTURE END LIST*
D10*
D11*
X142740000Y-74660000D03*
X142740000Y-72120000D03*
D12*
X142740000Y-69580000D03*
D11*
X163060000Y-74660000D03*
X163060000Y-72120000D03*
D12*
X163060000Y-69580000D03*
D13*
X159600000Y-74300000D03*
X158200000Y-74300000D03*
X159600000Y-70100000D03*
X158200000Y-70100000D03*
X147500000Y-70100000D03*
X147500000Y-74300000D03*
X148900000Y-74300000D03*
X148900000Y-70100000D03*
X152975000Y-70555000D03*
X153800000Y-70555000D03*
X153800000Y-71445000D03*
X152975000Y-71445000D03*
X151100000Y-72500000D03*
X155900000Y-68800000D03*
X155900000Y-69800000D03*
X156900000Y-69800000D03*
X156900000Y-68800000D03*
X150800000Y-68800000D03*
X151800000Y-69800000D03*
X151800000Y-68800000D03*
X157100000Y-74100000D03*
X157100000Y-75100000D03*
X156100000Y-75100000D03*
X156100000Y-74100000D03*
X151900000Y-74500000D03*
X150900000Y-74500000D03*
X150900000Y-73500000D03*
D14*
G36*
X165075000Y-78775000D02*
X141325000Y-78775000D01*
X141325000Y-74660000D01*
X141491001Y-74660000D01*
X141584249Y-75128787D01*
X141849795Y-75526206D01*
X142247214Y-75791752D01*
X142716001Y-75885000D01*
X142763999Y-75885000D01*
X143232786Y-75791752D01*
X143630205Y-75526206D01*
X143895751Y-75128787D01*
X143988999Y-74660000D01*
X143895751Y-74191213D01*
X143630205Y-73793794D01*
X143232786Y-73528248D01*
X142763999Y-73435000D01*
X142716001Y-73435000D01*
X142247214Y-73528248D01*
X141849795Y-73793794D01*
X141584249Y-74191213D01*
X141491001Y-74660000D01*
X141325000Y-74660000D01*
X141325000Y-72434093D01*
X141555951Y-72434093D01*
X141680645Y-72735157D01*
X141996694Y-73093729D01*
X142425905Y-73304059D01*
X142615000Y-73244867D01*
X142615000Y-72245000D01*
X142865000Y-72245000D01*
X142865000Y-73244867D01*
X143054095Y-73304059D01*
X143062378Y-73300000D01*
X149925000Y-73300000D01*
X149925000Y-74700000D01*
X149953545Y-74843506D01*
X150034835Y-74965165D01*
X150234835Y-75165165D01*
X150356494Y-75246455D01*
X150500000Y-75275000D01*
X155125000Y-75275000D01*
X155125000Y-75400000D01*
X155153545Y-75543506D01*
X155234835Y-75665165D01*
X155434835Y-75865165D01*
X155556494Y-75946455D01*
X155700000Y-75975000D01*
X157000000Y-75975000D01*
X157143506Y-75946455D01*
X157265165Y-75865165D01*
X157440791Y-75689539D01*
X157481857Y-75672571D01*
X157671903Y-75482856D01*
X157774883Y-75234855D01*
X157775117Y-74966323D01*
X157672571Y-74718143D01*
X157614530Y-74660000D01*
X161811001Y-74660000D01*
X161904249Y-75128787D01*
X162169795Y-75526206D01*
X162567214Y-75791752D01*
X163036001Y-75885000D01*
X163083999Y-75885000D01*
X163552786Y-75791752D01*
X163950205Y-75526206D01*
X164215751Y-75128787D01*
X164308999Y-74660000D01*
X164215751Y-74191213D01*
X163950205Y-73793794D01*
X163552786Y-73528248D01*
X163083999Y-73435000D01*
X163036001Y-73435000D01*
X162567214Y-73528248D01*
X162169795Y-73793794D01*
X161904249Y-74191213D01*
X161811001Y-74660000D01*
X157614530Y-74660000D01*
X157575000Y-74620402D01*
X157575000Y-74579590D01*
X157671903Y-74482856D01*
X157774883Y-74234855D01*
X157775117Y-73966323D01*
X157672571Y-73718143D01*
X157575000Y-73620402D01*
X157575000Y-73300000D01*
X157546455Y-73156494D01*
X157465165Y-73034835D01*
X157265165Y-72834835D01*
X157143506Y-72753545D01*
X157000000Y-72725000D01*
X150500000Y-72725000D01*
X150356494Y-72753545D01*
X150234835Y-72834835D01*
X150034835Y-73034835D01*
X149953545Y-73156494D01*
X149925000Y-73300000D01*
X143062378Y-73300000D01*
X143483306Y-73093729D01*
X143799355Y-72735157D01*
X143924049Y-72434093D01*
X161875951Y-72434093D01*
X162000645Y-72735157D01*
X162316694Y-73093729D01*
X162745905Y-73304059D01*
X162935000Y-73244867D01*
X162935000Y-72245000D01*
X163185000Y-72245000D01*
X163185000Y-73244867D01*
X163374095Y-73304059D01*
X163803306Y-73093729D01*
X164119355Y-72735157D01*
X164244049Y-72434093D01*
X164184323Y-72245000D01*
X163185000Y-72245000D01*
X162935000Y-72245000D01*
X161935677Y-72245000D01*
X161875951Y-72434093D01*
X143924049Y-72434093D01*
X143864323Y-72245000D01*
X142865000Y-72245000D01*
X142615000Y-72245000D01*
X141615677Y-72245000D01*
X141555951Y-72434093D01*
X141325000Y-72434093D01*
X141325000Y-71805907D01*
X141555951Y-71805907D01*
X141615677Y-71995000D01*
X142615000Y-71995000D01*
X142615000Y-70995133D01*
X142865000Y-70995133D01*
X142865000Y-71995000D01*
X143864323Y-71995000D01*
X143924049Y-71805907D01*
X161875951Y-71805907D01*
X161935677Y-71995000D01*
X162935000Y-71995000D01*
X162935000Y-70995133D01*
X163185000Y-70995133D01*
X163185000Y-71995000D01*
X164184323Y-71995000D01*
X164244049Y-71805907D01*
X164119355Y-71504843D01*
X163803306Y-71146271D01*
X163374095Y-70935941D01*
X163185000Y-70995133D01*
X162935000Y-70995133D01*
X162745905Y-70935941D01*
X162316694Y-71146271D01*
X162000645Y-71504843D01*
X161875951Y-71805907D01*
X143924049Y-71805907D01*
X143799355Y-71504843D01*
X143483306Y-71146271D01*
X143054095Y-70935941D01*
X142865000Y-70995133D01*
X142615000Y-70995133D01*
X142425905Y-70935941D01*
X141996694Y-71146271D01*
X141680645Y-71504843D01*
X141555951Y-71805907D01*
X141325000Y-71805907D01*
X141325000Y-68730000D01*
X141507654Y-68730000D01*
X141507654Y-70430000D01*
X141536758Y-70576317D01*
X141619641Y-70700359D01*
X141743683Y-70783242D01*
X141890000Y-70812346D01*
X143590000Y-70812346D01*
X143736317Y-70783242D01*
X143860359Y-70700359D01*
X143943242Y-70576317D01*
X143972346Y-70430000D01*
X143972346Y-68730000D01*
X143946488Y-68600000D01*
X149825000Y-68600000D01*
X149825000Y-70200000D01*
X149853545Y-70343506D01*
X149934835Y-70465165D01*
X150134835Y-70665165D01*
X150256494Y-70746455D01*
X150400000Y-70775000D01*
X157100000Y-70775000D01*
X157243506Y-70746455D01*
X157365165Y-70665165D01*
X157565165Y-70465165D01*
X157646455Y-70343506D01*
X157675000Y-70200000D01*
X157675000Y-68730000D01*
X161827654Y-68730000D01*
X161827654Y-70430000D01*
X161856758Y-70576317D01*
X161939641Y-70700359D01*
X162063683Y-70783242D01*
X162210000Y-70812346D01*
X163910000Y-70812346D01*
X164056317Y-70783242D01*
X164180359Y-70700359D01*
X164263242Y-70576317D01*
X164292346Y-70430000D01*
X164292346Y-68730000D01*
X164263242Y-68583683D01*
X164180359Y-68459641D01*
X164056317Y-68376758D01*
X163910000Y-68347654D01*
X162210000Y-68347654D01*
X162063683Y-68376758D01*
X161939641Y-68459641D01*
X161856758Y-68583683D01*
X161827654Y-68730000D01*
X157675000Y-68730000D01*
X157675000Y-68600000D01*
X157646455Y-68456494D01*
X157565165Y-68334835D01*
X157365165Y-68134835D01*
X157243506Y-68053545D01*
X157100000Y-68025000D01*
X150400000Y-68025000D01*
X150256494Y-68053545D01*
X150134835Y-68134835D01*
X149934835Y-68334835D01*
X149853545Y-68456494D01*
X149825000Y-68600000D01*
X143946488Y-68600000D01*
X143943242Y-68583683D01*
X143860359Y-68459641D01*
X143736317Y-68376758D01*
X143590000Y-68347654D01*
X141890000Y-68347654D01*
X141743683Y-68376758D01*
X141619641Y-68459641D01*
X141536758Y-68583683D01*
X141507654Y-68730000D01*
X141325000Y-68730000D01*
X141325000Y-65625000D01*
X165075000Y-65625000D01*
X165075000Y-78775000D01*
X165075000Y-78775000D01*
G37*
X165075000Y-78775000D02*
X141325000Y-78775000D01*
X141325000Y-74660000D01*
X141491001Y-74660000D01*
X141584249Y-75128787D01*
X141849795Y-75526206D01*
X142247214Y-75791752D01*
X142716001Y-75885000D01*
X142763999Y-75885000D01*
X143232786Y-75791752D01*
X143630205Y-75526206D01*
X143895751Y-75128787D01*
X143988999Y-74660000D01*
X143895751Y-74191213D01*
X143630205Y-73793794D01*
X143232786Y-73528248D01*
X142763999Y-73435000D01*
X142716001Y-73435000D01*
X142247214Y-73528248D01*
X141849795Y-73793794D01*
X141584249Y-74191213D01*
X141491001Y-74660000D01*
X141325000Y-74660000D01*
X141325000Y-72434093D01*
X141555951Y-72434093D01*
X141680645Y-72735157D01*
X141996694Y-73093729D01*
X142425905Y-73304059D01*
X142615000Y-73244867D01*
X142615000Y-72245000D01*
X142865000Y-72245000D01*
X142865000Y-73244867D01*
X143054095Y-73304059D01*
X143062378Y-73300000D01*
X149925000Y-73300000D01*
X149925000Y-74700000D01*
X149953545Y-74843506D01*
X150034835Y-74965165D01*
X150234835Y-75165165D01*
X150356494Y-75246455D01*
X150500000Y-75275000D01*
X155125000Y-75275000D01*
X155125000Y-75400000D01*
X155153545Y-75543506D01*
X155234835Y-75665165D01*
X155434835Y-75865165D01*
X155556494Y-75946455D01*
X155700000Y-75975000D01*
X157000000Y-75975000D01*
X157143506Y-75946455D01*
X157265165Y-75865165D01*
X157440791Y-75689539D01*
X157481857Y-75672571D01*
X157671903Y-75482856D01*
X157774883Y-75234855D01*
X157775117Y-74966323D01*
X157672571Y-74718143D01*
X157614530Y-74660000D01*
X161811001Y-74660000D01*
X161904249Y-75128787D01*
X162169795Y-75526206D01*
X162567214Y-75791752D01*
X163036001Y-75885000D01*
X163083999Y-75885000D01*
X163552786Y-75791752D01*
X163950205Y-75526206D01*
X164215751Y-75128787D01*
X164308999Y-74660000D01*
X164215751Y-74191213D01*
X163950205Y-73793794D01*
X163552786Y-73528248D01*
X163083999Y-73435000D01*
X163036001Y-73435000D01*
X162567214Y-73528248D01*
X162169795Y-73793794D01*
X161904249Y-74191213D01*
X161811001Y-74660000D01*
X157614530Y-74660000D01*
X157575000Y-74620402D01*
X157575000Y-74579590D01*
X157671903Y-74482856D01*
X157774883Y-74234855D01*
X157775117Y-73966323D01*
X157672571Y-73718143D01*
X157575000Y-73620402D01*
X157575000Y-73300000D01*
X157546455Y-73156494D01*
X157465165Y-73034835D01*
X157265165Y-72834835D01*
X157143506Y-72753545D01*
X157000000Y-72725000D01*
X150500000Y-72725000D01*
X150356494Y-72753545D01*
X150234835Y-72834835D01*
X150034835Y-73034835D01*
X149953545Y-73156494D01*
X149925000Y-73300000D01*
X143062378Y-73300000D01*
X143483306Y-73093729D01*
X143799355Y-72735157D01*
X143924049Y-72434093D01*
X161875951Y-72434093D01*
X162000645Y-72735157D01*
X162316694Y-73093729D01*
X162745905Y-73304059D01*
X162935000Y-73244867D01*
X162935000Y-72245000D01*
X163185000Y-72245000D01*
X163185000Y-73244867D01*
X163374095Y-73304059D01*
X163803306Y-73093729D01*
X164119355Y-72735157D01*
X164244049Y-72434093D01*
X164184323Y-72245000D01*
X163185000Y-72245000D01*
X162935000Y-72245000D01*
X161935677Y-72245000D01*
X161875951Y-72434093D01*
X143924049Y-72434093D01*
X143864323Y-72245000D01*
X142865000Y-72245000D01*
X142615000Y-72245000D01*
X141615677Y-72245000D01*
X141555951Y-72434093D01*
X141325000Y-72434093D01*
X141325000Y-71805907D01*
X141555951Y-71805907D01*
X141615677Y-71995000D01*
X142615000Y-71995000D01*
X142615000Y-70995133D01*
X142865000Y-70995133D01*
X142865000Y-71995000D01*
X143864323Y-71995000D01*
X143924049Y-71805907D01*
X161875951Y-71805907D01*
X161935677Y-71995000D01*
X162935000Y-71995000D01*
X162935000Y-70995133D01*
X163185000Y-70995133D01*
X163185000Y-71995000D01*
X164184323Y-71995000D01*
X164244049Y-71805907D01*
X164119355Y-71504843D01*
X163803306Y-71146271D01*
X163374095Y-70935941D01*
X163185000Y-70995133D01*
X162935000Y-70995133D01*
X162745905Y-70935941D01*
X162316694Y-71146271D01*
X162000645Y-71504843D01*
X161875951Y-71805907D01*
X143924049Y-71805907D01*
X143799355Y-71504843D01*
X143483306Y-71146271D01*
X143054095Y-70935941D01*
X142865000Y-70995133D01*
X142615000Y-70995133D01*
X142425905Y-70935941D01*
X141996694Y-71146271D01*
X141680645Y-71504843D01*
X141555951Y-71805907D01*
X141325000Y-71805907D01*
X141325000Y-68730000D01*
X141507654Y-68730000D01*
X141507654Y-70430000D01*
X141536758Y-70576317D01*
X141619641Y-70700359D01*
X141743683Y-70783242D01*
X141890000Y-70812346D01*
X143590000Y-70812346D01*
X143736317Y-70783242D01*
X143860359Y-70700359D01*
X143943242Y-70576317D01*
X143972346Y-70430000D01*
X143972346Y-68730000D01*
X143946488Y-68600000D01*
X149825000Y-68600000D01*
X149825000Y-70200000D01*
X149853545Y-70343506D01*
X149934835Y-70465165D01*
X150134835Y-70665165D01*
X150256494Y-70746455D01*
X150400000Y-70775000D01*
X157100000Y-70775000D01*
X157243506Y-70746455D01*
X157365165Y-70665165D01*
X157565165Y-70465165D01*
X157646455Y-70343506D01*
X157675000Y-70200000D01*
X157675000Y-68730000D01*
X161827654Y-68730000D01*
X161827654Y-70430000D01*
X161856758Y-70576317D01*
X161939641Y-70700359D01*
X162063683Y-70783242D01*
X162210000Y-70812346D01*
X163910000Y-70812346D01*
X164056317Y-70783242D01*
X164180359Y-70700359D01*
X164263242Y-70576317D01*
X164292346Y-70430000D01*
X164292346Y-68730000D01*
X164263242Y-68583683D01*
X164180359Y-68459641D01*
X164056317Y-68376758D01*
X163910000Y-68347654D01*
X162210000Y-68347654D01*
X162063683Y-68376758D01*
X161939641Y-68459641D01*
X161856758Y-68583683D01*
X161827654Y-68730000D01*
X157675000Y-68730000D01*
X157675000Y-68600000D01*
X157646455Y-68456494D01*
X157565165Y-68334835D01*
X157365165Y-68134835D01*
X157243506Y-68053545D01*
X157100000Y-68025000D01*
X150400000Y-68025000D01*
X150256494Y-68053545D01*
X150134835Y-68134835D01*
X149934835Y-68334835D01*
X149853545Y-68456494D01*
X149825000Y-68600000D01*
X143946488Y-68600000D01*
X143943242Y-68583683D01*
X143860359Y-68459641D01*
X143736317Y-68376758D01*
X143590000Y-68347654D01*
X141890000Y-68347654D01*
X141743683Y-68376758D01*
X141619641Y-68459641D01*
X141536758Y-68583683D01*
X141507654Y-68730000D01*
X141325000Y-68730000D01*
X141325000Y-65625000D01*
X165075000Y-65625000D01*
X165075000Y-78775000D01*
G36*
X157075000Y-73351776D02*
X157075000Y-75348224D01*
X156948224Y-75475000D01*
X155751776Y-75475000D01*
X155625000Y-75348224D01*
X155625000Y-75100000D01*
X155615485Y-75052165D01*
X155588388Y-75011612D01*
X155388388Y-74811612D01*
X155347835Y-74784515D01*
X155300000Y-74775000D01*
X150551776Y-74775000D01*
X150425000Y-74648224D01*
X150425000Y-73351776D01*
X150551776Y-73225000D01*
X156948224Y-73225000D01*
X157075000Y-73351776D01*
X157075000Y-73351776D01*
G37*
X157075000Y-73351776D02*
X157075000Y-75348224D01*
X156948224Y-75475000D01*
X155751776Y-75475000D01*
X155625000Y-75348224D01*
X155625000Y-75100000D01*
X155615485Y-75052165D01*
X155588388Y-75011612D01*
X155388388Y-74811612D01*
X155347835Y-74784515D01*
X155300000Y-74775000D01*
X150551776Y-74775000D01*
X150425000Y-74648224D01*
X150425000Y-73351776D01*
X150551776Y-73225000D01*
X156948224Y-73225000D01*
X157075000Y-73351776D01*
D15*
G36*
X157225000Y-68631066D02*
X157225000Y-70168934D01*
X157068934Y-70325000D01*
X154327117Y-70325000D01*
X154287746Y-70229714D01*
X154126137Y-70067823D01*
X153914876Y-69980100D01*
X153686127Y-69979900D01*
X153474714Y-70067254D01*
X153387490Y-70154326D01*
X153301137Y-70067823D01*
X153089876Y-69980100D01*
X152861127Y-69979900D01*
X152649714Y-70067254D01*
X152487823Y-70228863D01*
X152447904Y-70325000D01*
X150431066Y-70325000D01*
X150275000Y-70168934D01*
X150275000Y-68631066D01*
X150431066Y-68475000D01*
X157068934Y-68475000D01*
X157225000Y-68631066D01*
X157225000Y-68631066D01*
G37*
X157225000Y-68631066D02*
X157225000Y-70168934D01*
X157068934Y-70325000D01*
X154327117Y-70325000D01*
X154287746Y-70229714D01*
X154126137Y-70067823D01*
X153914876Y-69980100D01*
X153686127Y-69979900D01*
X153474714Y-70067254D01*
X153387490Y-70154326D01*
X153301137Y-70067823D01*
X153089876Y-69980100D01*
X152861127Y-69979900D01*
X152649714Y-70067254D01*
X152487823Y-70228863D01*
X152447904Y-70325000D01*
X150431066Y-70325000D01*
X150275000Y-70168934D01*
X150275000Y-68631066D01*
X150431066Y-68475000D01*
X157068934Y-68475000D01*
X157225000Y-68631066D01*
M02*
