G04 #@! TF.GenerationSoftware,KiCad,Pcbnew,(2017-06-16 revision 2018d4894)-master*
G04 #@! TF.CreationDate,2017-08-04T06:40:25+02:00*
G04 #@! TF.ProjectId,LT3032-breakout,4C54333033322D627265616B6F75742E,rev?*
G04 #@! TF.SameCoordinates,Original
G04 #@! TF.FileFunction,Legend,Top*
G04 #@! TF.FilePolarity,Positive*
%FSLAX46Y46*%
G04 Gerber Fmt 4.6, Leading zero omitted, Abs format (unit mm)*
G04 Created by KiCad (PCBNEW (2017-06-16 revision 2018d4894)-master) date Fri Aug  4 06:40:25 2017*
%MOMM*%
%LPD*%
G01*
G04 APERTURE LIST*
%ADD10C,0.100000*%
%ADD11C,0.150000*%
%ADD12C,0.120000*%
G04 APERTURE END LIST*
D10*
D11*
X144900000Y-72961904D02*
X144852380Y-73057142D01*
X144852380Y-73200000D01*
X144900000Y-73342857D01*
X144995238Y-73438095D01*
X145090476Y-73485714D01*
X145280952Y-73533333D01*
X145423809Y-73533333D01*
X145614285Y-73485714D01*
X145709523Y-73438095D01*
X145804761Y-73342857D01*
X145852380Y-73200000D01*
X145852380Y-73104761D01*
X145804761Y-72961904D01*
X145757142Y-72914285D01*
X145423809Y-72914285D01*
X145423809Y-73104761D01*
X145852380Y-72485714D02*
X144852380Y-72485714D01*
X145852380Y-71914285D01*
X144852380Y-71914285D01*
X145852380Y-71438095D02*
X144852380Y-71438095D01*
X144852380Y-71200000D01*
X144900000Y-71057142D01*
X144995238Y-70961904D01*
X145090476Y-70914285D01*
X145280952Y-70866666D01*
X145423809Y-70866666D01*
X145614285Y-70914285D01*
X145709523Y-70961904D01*
X145804761Y-71057142D01*
X145852380Y-71200000D01*
X145852380Y-71438095D01*
X142257142Y-76852380D02*
X142590476Y-77852380D01*
X142923809Y-76852380D01*
X143257142Y-77852380D02*
X143257142Y-77185714D01*
X143257142Y-76852380D02*
X143209523Y-76900000D01*
X143257142Y-76947619D01*
X143304761Y-76900000D01*
X143257142Y-76852380D01*
X143257142Y-76947619D01*
X143733333Y-77185714D02*
X143733333Y-77852380D01*
X143733333Y-77280952D02*
X143780952Y-77233333D01*
X143876190Y-77185714D01*
X144019047Y-77185714D01*
X144114285Y-77233333D01*
X144161904Y-77328571D01*
X144161904Y-77852380D01*
X144638095Y-77471428D02*
X145400000Y-77471428D01*
X142357142Y-66452380D02*
X142690476Y-67452380D01*
X143023809Y-66452380D01*
X143357142Y-67452380D02*
X143357142Y-66785714D01*
X143357142Y-66452380D02*
X143309523Y-66500000D01*
X143357142Y-66547619D01*
X143404761Y-66500000D01*
X143357142Y-66452380D01*
X143357142Y-66547619D01*
X143833333Y-66785714D02*
X143833333Y-67452380D01*
X143833333Y-66880952D02*
X143880952Y-66833333D01*
X143976190Y-66785714D01*
X144119047Y-66785714D01*
X144214285Y-66833333D01*
X144261904Y-66928571D01*
X144261904Y-67452380D01*
X144738095Y-67071428D02*
X145500000Y-67071428D01*
X145119047Y-67452380D02*
X145119047Y-66690476D01*
X160957142Y-76852380D02*
X161290476Y-77852380D01*
X161623809Y-76852380D01*
X162100000Y-77852380D02*
X162004761Y-77804761D01*
X161957142Y-77757142D01*
X161909523Y-77661904D01*
X161909523Y-77376190D01*
X161957142Y-77280952D01*
X162004761Y-77233333D01*
X162100000Y-77185714D01*
X162242857Y-77185714D01*
X162338095Y-77233333D01*
X162385714Y-77280952D01*
X162433333Y-77376190D01*
X162433333Y-77661904D01*
X162385714Y-77757142D01*
X162338095Y-77804761D01*
X162242857Y-77852380D01*
X162100000Y-77852380D01*
X163290476Y-77185714D02*
X163290476Y-77852380D01*
X162861904Y-77185714D02*
X162861904Y-77709523D01*
X162909523Y-77804761D01*
X163004761Y-77852380D01*
X163147619Y-77852380D01*
X163242857Y-77804761D01*
X163290476Y-77757142D01*
X163623809Y-77185714D02*
X164004761Y-77185714D01*
X163766666Y-76852380D02*
X163766666Y-77709523D01*
X163814285Y-77804761D01*
X163909523Y-77852380D01*
X164004761Y-77852380D01*
X164338095Y-77471428D02*
X165100000Y-77471428D01*
X160857142Y-66452380D02*
X161190476Y-67452380D01*
X161523809Y-66452380D01*
X162000000Y-67452380D02*
X161904761Y-67404761D01*
X161857142Y-67357142D01*
X161809523Y-67261904D01*
X161809523Y-66976190D01*
X161857142Y-66880952D01*
X161904761Y-66833333D01*
X162000000Y-66785714D01*
X162142857Y-66785714D01*
X162238095Y-66833333D01*
X162285714Y-66880952D01*
X162333333Y-66976190D01*
X162333333Y-67261904D01*
X162285714Y-67357142D01*
X162238095Y-67404761D01*
X162142857Y-67452380D01*
X162000000Y-67452380D01*
X163190476Y-66785714D02*
X163190476Y-67452380D01*
X162761904Y-66785714D02*
X162761904Y-67309523D01*
X162809523Y-67404761D01*
X162904761Y-67452380D01*
X163047619Y-67452380D01*
X163142857Y-67404761D01*
X163190476Y-67357142D01*
X163523809Y-66785714D02*
X163904761Y-66785714D01*
X163666666Y-66452380D02*
X163666666Y-67309523D01*
X163714285Y-67404761D01*
X163809523Y-67452380D01*
X163904761Y-67452380D01*
X164238095Y-67071428D02*
X165000000Y-67071428D01*
X164619047Y-67452380D02*
X164619047Y-66690476D01*
X164800000Y-72861904D02*
X164752380Y-72957142D01*
X164752380Y-73100000D01*
X164800000Y-73242857D01*
X164895238Y-73338095D01*
X164990476Y-73385714D01*
X165180952Y-73433333D01*
X165323809Y-73433333D01*
X165514285Y-73385714D01*
X165609523Y-73338095D01*
X165704761Y-73242857D01*
X165752380Y-73100000D01*
X165752380Y-73004761D01*
X165704761Y-72861904D01*
X165657142Y-72814285D01*
X165323809Y-72814285D01*
X165323809Y-73004761D01*
X165752380Y-72385714D02*
X164752380Y-72385714D01*
X165752380Y-71814285D01*
X164752380Y-71814285D01*
X165752380Y-71338095D02*
X164752380Y-71338095D01*
X164752380Y-71100000D01*
X164800000Y-70957142D01*
X164895238Y-70861904D01*
X164990476Y-70814285D01*
X165180952Y-70766666D01*
X165323809Y-70766666D01*
X165514285Y-70814285D01*
X165609523Y-70861904D01*
X165704761Y-70957142D01*
X165752380Y-71100000D01*
X165752380Y-71338095D01*
D12*
X149680000Y-70600000D02*
X149680000Y-68600000D01*
X146720000Y-68600000D02*
X146720000Y-70600000D01*
X146720000Y-73800000D02*
X146720000Y-75800000D01*
X149680000Y-75800000D02*
X149680000Y-73800000D01*
X151100000Y-70450000D02*
X151100000Y-71150000D01*
X149900000Y-71150000D02*
X149900000Y-70450000D01*
X156000000Y-72950000D02*
X156000000Y-72250000D01*
X157200000Y-72250000D02*
X157200000Y-72950000D01*
X160380000Y-70600000D02*
X160380000Y-68600000D01*
X157420000Y-68600000D02*
X157420000Y-70600000D01*
X157420000Y-73800000D02*
X157420000Y-75800000D01*
X160380000Y-75800000D02*
X160380000Y-73800000D01*
D11*
X151512500Y-69675000D02*
X154487500Y-69675000D01*
X152287500Y-73925000D02*
X154487500Y-73925000D01*
D12*
X141410000Y-68250000D02*
X142740000Y-68250000D01*
X141410000Y-69580000D02*
X141410000Y-68250000D01*
X141410000Y-70850000D02*
X144070000Y-70850000D01*
X144070000Y-70850000D02*
X144070000Y-75990000D01*
X141410000Y-70850000D02*
X141410000Y-75990000D01*
X141410000Y-75990000D02*
X144070000Y-75990000D01*
X161730000Y-68250000D02*
X163060000Y-68250000D01*
X161730000Y-69580000D02*
X161730000Y-68250000D01*
X161730000Y-70850000D02*
X164390000Y-70850000D01*
X164390000Y-70850000D02*
X164390000Y-75990000D01*
X161730000Y-70850000D02*
X161730000Y-75990000D01*
X161730000Y-75990000D02*
X164390000Y-75990000D01*
D11*
X148133333Y-66757142D02*
X148085714Y-66804761D01*
X147942857Y-66852380D01*
X147847619Y-66852380D01*
X147704761Y-66804761D01*
X147609523Y-66709523D01*
X147561904Y-66614285D01*
X147514285Y-66423809D01*
X147514285Y-66280952D01*
X147561904Y-66090476D01*
X147609523Y-65995238D01*
X147704761Y-65900000D01*
X147847619Y-65852380D01*
X147942857Y-65852380D01*
X148085714Y-65900000D01*
X148133333Y-65947619D01*
X149085714Y-66852380D02*
X148514285Y-66852380D01*
X148800000Y-66852380D02*
X148800000Y-65852380D01*
X148704761Y-65995238D01*
X148609523Y-66090476D01*
X148514285Y-66138095D01*
X148033333Y-78357142D02*
X147985714Y-78404761D01*
X147842857Y-78452380D01*
X147747619Y-78452380D01*
X147604761Y-78404761D01*
X147509523Y-78309523D01*
X147461904Y-78214285D01*
X147414285Y-78023809D01*
X147414285Y-77880952D01*
X147461904Y-77690476D01*
X147509523Y-77595238D01*
X147604761Y-77500000D01*
X147747619Y-77452380D01*
X147842857Y-77452380D01*
X147985714Y-77500000D01*
X148033333Y-77547619D01*
X148414285Y-77547619D02*
X148461904Y-77500000D01*
X148557142Y-77452380D01*
X148795238Y-77452380D01*
X148890476Y-77500000D01*
X148938095Y-77547619D01*
X148985714Y-77642857D01*
X148985714Y-77738095D01*
X148938095Y-77880952D01*
X148366666Y-78452380D01*
X148985714Y-78452380D01*
X150857142Y-68366666D02*
X150904761Y-68414285D01*
X150952380Y-68557142D01*
X150952380Y-68652380D01*
X150904761Y-68795238D01*
X150809523Y-68890476D01*
X150714285Y-68938095D01*
X150523809Y-68985714D01*
X150380952Y-68985714D01*
X150190476Y-68938095D01*
X150095238Y-68890476D01*
X150000000Y-68795238D01*
X149952380Y-68652380D01*
X149952380Y-68557142D01*
X150000000Y-68414285D01*
X150047619Y-68366666D01*
X149952380Y-68033333D02*
X149952380Y-67414285D01*
X150333333Y-67747619D01*
X150333333Y-67604761D01*
X150380952Y-67509523D01*
X150428571Y-67461904D01*
X150523809Y-67414285D01*
X150761904Y-67414285D01*
X150857142Y-67461904D01*
X150904761Y-67509523D01*
X150952380Y-67604761D01*
X150952380Y-67890476D01*
X150904761Y-67985714D01*
X150857142Y-68033333D01*
X156957142Y-75466666D02*
X157004761Y-75514285D01*
X157052380Y-75657142D01*
X157052380Y-75752380D01*
X157004761Y-75895238D01*
X156909523Y-75990476D01*
X156814285Y-76038095D01*
X156623809Y-76085714D01*
X156480952Y-76085714D01*
X156290476Y-76038095D01*
X156195238Y-75990476D01*
X156100000Y-75895238D01*
X156052380Y-75752380D01*
X156052380Y-75657142D01*
X156100000Y-75514285D01*
X156147619Y-75466666D01*
X156385714Y-74609523D02*
X157052380Y-74609523D01*
X156004761Y-74847619D02*
X156719047Y-75085714D01*
X156719047Y-74466666D01*
X158733333Y-66757142D02*
X158685714Y-66804761D01*
X158542857Y-66852380D01*
X158447619Y-66852380D01*
X158304761Y-66804761D01*
X158209523Y-66709523D01*
X158161904Y-66614285D01*
X158114285Y-66423809D01*
X158114285Y-66280952D01*
X158161904Y-66090476D01*
X158209523Y-65995238D01*
X158304761Y-65900000D01*
X158447619Y-65852380D01*
X158542857Y-65852380D01*
X158685714Y-65900000D01*
X158733333Y-65947619D01*
X159638095Y-65852380D02*
X159161904Y-65852380D01*
X159114285Y-66328571D01*
X159161904Y-66280952D01*
X159257142Y-66233333D01*
X159495238Y-66233333D01*
X159590476Y-66280952D01*
X159638095Y-66328571D01*
X159685714Y-66423809D01*
X159685714Y-66661904D01*
X159638095Y-66757142D01*
X159590476Y-66804761D01*
X159495238Y-66852380D01*
X159257142Y-66852380D01*
X159161904Y-66804761D01*
X159114285Y-66757142D01*
X158733333Y-78357142D02*
X158685714Y-78404761D01*
X158542857Y-78452380D01*
X158447619Y-78452380D01*
X158304761Y-78404761D01*
X158209523Y-78309523D01*
X158161904Y-78214285D01*
X158114285Y-78023809D01*
X158114285Y-77880952D01*
X158161904Y-77690476D01*
X158209523Y-77595238D01*
X158304761Y-77500000D01*
X158447619Y-77452380D01*
X158542857Y-77452380D01*
X158685714Y-77500000D01*
X158733333Y-77547619D01*
X159590476Y-77452380D02*
X159400000Y-77452380D01*
X159304761Y-77500000D01*
X159257142Y-77547619D01*
X159161904Y-77690476D01*
X159114285Y-77880952D01*
X159114285Y-78261904D01*
X159161904Y-78357142D01*
X159209523Y-78404761D01*
X159304761Y-78452380D01*
X159495238Y-78452380D01*
X159590476Y-78404761D01*
X159638095Y-78357142D01*
X159685714Y-78261904D01*
X159685714Y-78023809D01*
X159638095Y-77928571D01*
X159590476Y-77880952D01*
X159495238Y-77833333D01*
X159304761Y-77833333D01*
X159209523Y-77880952D01*
X159161904Y-77928571D01*
X159114285Y-78023809D01*
X152625595Y-68202380D02*
X152625595Y-69011904D01*
X152673214Y-69107142D01*
X152720833Y-69154761D01*
X152816071Y-69202380D01*
X153006547Y-69202380D01*
X153101785Y-69154761D01*
X153149404Y-69107142D01*
X153197023Y-69011904D01*
X153197023Y-68202380D01*
X154197023Y-69202380D02*
X153625595Y-69202380D01*
X153911309Y-69202380D02*
X153911309Y-68202380D01*
X153816071Y-68345238D01*
X153720833Y-68440476D01*
X153625595Y-68488095D01*
X142506666Y-64932380D02*
X142506666Y-65646666D01*
X142459047Y-65789523D01*
X142363809Y-65884761D01*
X142220952Y-65932380D01*
X142125714Y-65932380D01*
X143506666Y-65932380D02*
X142935238Y-65932380D01*
X143220952Y-65932380D02*
X143220952Y-64932380D01*
X143125714Y-65075238D01*
X143030476Y-65170476D01*
X142935238Y-65218095D01*
X162726666Y-64922380D02*
X162726666Y-65636666D01*
X162679047Y-65779523D01*
X162583809Y-65874761D01*
X162440952Y-65922380D01*
X162345714Y-65922380D01*
X163155238Y-65017619D02*
X163202857Y-64970000D01*
X163298095Y-64922380D01*
X163536190Y-64922380D01*
X163631428Y-64970000D01*
X163679047Y-65017619D01*
X163726666Y-65112857D01*
X163726666Y-65208095D01*
X163679047Y-65350952D01*
X163107619Y-65922380D01*
X163726666Y-65922380D01*
M02*
