M48
;DRILL file {KiCad (2017-06-16 revision 2018d4894)-master} date Fri Aug  4 06:40:36 2017
;FORMAT={-:-/ absolute / metric / decimal}
FMAT,2
METRIC,TZ
T1C0.300
T2C1.000
%
G90
G05
M71
T1
X147.5Y-70.1
X147.5Y-74.3
X148.9Y-70.1
X148.9Y-74.3
X150.8Y-68.8
X150.9Y-73.5
X150.9Y-74.5
X151.1Y-72.5
X151.8Y-68.8
X151.8Y-69.8
X151.9Y-74.5
X152.975Y-70.555
X152.975Y-71.445
X153.8Y-70.555
X153.8Y-71.445
X155.9Y-68.8
X155.9Y-69.8
X156.1Y-74.1
X156.1Y-75.1
X156.9Y-68.8
X156.9Y-69.8
X157.1Y-74.1
X157.1Y-75.1
X158.2Y-70.1
X158.2Y-74.3
X159.6Y-70.1
X159.6Y-74.3
T2
X142.74Y-69.58
X142.74Y-72.12
X142.74Y-74.66
X163.06Y-69.58
X163.06Y-72.12
X163.06Y-74.66
T0
M30
