G04 #@! TF.GenerationSoftware,KiCad,Pcbnew,(2017-06-16 revision 2018d4894)-master*
G04 #@! TF.CreationDate,2017-08-04T06:40:25+02:00*
G04 #@! TF.ProjectId,LT3032-breakout,4C54333033322D627265616B6F75742E,rev?*
G04 #@! TF.SameCoordinates,Original
G04 #@! TF.FileFunction,Legend,Bot*
G04 #@! TF.FilePolarity,Positive*
%FSLAX46Y46*%
G04 Gerber Fmt 4.6, Leading zero omitted, Abs format (unit mm)*
G04 Created by KiCad (PCBNEW (2017-06-16 revision 2018d4894)-master) date Fri Aug  4 06:40:25 2017*
%MOMM*%
%LPD*%
G01*
G04 APERTURE LIST*
%ADD10C,0.100000*%
%ADD11C,0.150000*%
%ADD12C,0.010000*%
G04 APERTURE END LIST*
D10*
D11*
X162931071Y-77286904D02*
X163312023Y-77286904D01*
X163312023Y-76486904D01*
X162778690Y-76486904D02*
X162321547Y-76486904D01*
X162550119Y-77286904D02*
X162550119Y-76486904D01*
X162131071Y-76486904D02*
X161635833Y-76486904D01*
X161902500Y-76791666D01*
X161788214Y-76791666D01*
X161712023Y-76829761D01*
X161673928Y-76867857D01*
X161635833Y-76944047D01*
X161635833Y-77134523D01*
X161673928Y-77210714D01*
X161712023Y-77248809D01*
X161788214Y-77286904D01*
X162016785Y-77286904D01*
X162092976Y-77248809D01*
X162131071Y-77210714D01*
X161140595Y-76486904D02*
X161064404Y-76486904D01*
X160988214Y-76525000D01*
X160950119Y-76563095D01*
X160912023Y-76639285D01*
X160873928Y-76791666D01*
X160873928Y-76982142D01*
X160912023Y-77134523D01*
X160950119Y-77210714D01*
X160988214Y-77248809D01*
X161064404Y-77286904D01*
X161140595Y-77286904D01*
X161216785Y-77248809D01*
X161254880Y-77210714D01*
X161292976Y-77134523D01*
X161331071Y-76982142D01*
X161331071Y-76791666D01*
X161292976Y-76639285D01*
X161254880Y-76563095D01*
X161216785Y-76525000D01*
X161140595Y-76486904D01*
X160607261Y-76486904D02*
X160112023Y-76486904D01*
X160378690Y-76791666D01*
X160264404Y-76791666D01*
X160188214Y-76829761D01*
X160150119Y-76867857D01*
X160112023Y-76944047D01*
X160112023Y-77134523D01*
X160150119Y-77210714D01*
X160188214Y-77248809D01*
X160264404Y-77286904D01*
X160492976Y-77286904D01*
X160569166Y-77248809D01*
X160607261Y-77210714D01*
X159807261Y-76563095D02*
X159769166Y-76525000D01*
X159692976Y-76486904D01*
X159502500Y-76486904D01*
X159426309Y-76525000D01*
X159388214Y-76563095D01*
X159350119Y-76639285D01*
X159350119Y-76715476D01*
X159388214Y-76829761D01*
X159845357Y-77286904D01*
X159350119Y-77286904D01*
X158131071Y-76867857D02*
X158016785Y-76905952D01*
X157978690Y-76944047D01*
X157940595Y-77020238D01*
X157940595Y-77134523D01*
X157978690Y-77210714D01*
X158016785Y-77248809D01*
X158092976Y-77286904D01*
X158397738Y-77286904D01*
X158397738Y-76486904D01*
X158131071Y-76486904D01*
X158054880Y-76525000D01*
X158016785Y-76563095D01*
X157978690Y-76639285D01*
X157978690Y-76715476D01*
X158016785Y-76791666D01*
X158054880Y-76829761D01*
X158131071Y-76867857D01*
X158397738Y-76867857D01*
X157597738Y-77286904D02*
X157597738Y-76753571D01*
X157597738Y-76905952D02*
X157559642Y-76829761D01*
X157521547Y-76791666D01*
X157445357Y-76753571D01*
X157369166Y-76753571D01*
X156797738Y-77248809D02*
X156873928Y-77286904D01*
X157026309Y-77286904D01*
X157102500Y-77248809D01*
X157140595Y-77172619D01*
X157140595Y-76867857D01*
X157102500Y-76791666D01*
X157026309Y-76753571D01*
X156873928Y-76753571D01*
X156797738Y-76791666D01*
X156759642Y-76867857D01*
X156759642Y-76944047D01*
X157140595Y-77020238D01*
X156073928Y-77286904D02*
X156073928Y-76867857D01*
X156112023Y-76791666D01*
X156188214Y-76753571D01*
X156340595Y-76753571D01*
X156416785Y-76791666D01*
X156073928Y-77248809D02*
X156150119Y-77286904D01*
X156340595Y-77286904D01*
X156416785Y-77248809D01*
X156454880Y-77172619D01*
X156454880Y-77096428D01*
X156416785Y-77020238D01*
X156340595Y-76982142D01*
X156150119Y-76982142D01*
X156073928Y-76944047D01*
X155692976Y-77286904D02*
X155692976Y-76486904D01*
X155616785Y-76982142D02*
X155388214Y-77286904D01*
X155388214Y-76753571D02*
X155692976Y-77058333D01*
X154931071Y-77286904D02*
X155007261Y-77248809D01*
X155045357Y-77210714D01*
X155083452Y-77134523D01*
X155083452Y-76905952D01*
X155045357Y-76829761D01*
X155007261Y-76791666D01*
X154931071Y-76753571D01*
X154816785Y-76753571D01*
X154740595Y-76791666D01*
X154702500Y-76829761D01*
X154664404Y-76905952D01*
X154664404Y-77134523D01*
X154702500Y-77210714D01*
X154740595Y-77248809D01*
X154816785Y-77286904D01*
X154931071Y-77286904D01*
X153978690Y-76753571D02*
X153978690Y-77286904D01*
X154321547Y-76753571D02*
X154321547Y-77172619D01*
X154283452Y-77248809D01*
X154207261Y-77286904D01*
X154092976Y-77286904D01*
X154016785Y-77248809D01*
X153978690Y-77210714D01*
X153712023Y-76753571D02*
X153407261Y-76753571D01*
X153597738Y-76486904D02*
X153597738Y-77172619D01*
X153559642Y-77248809D01*
X153483452Y-77286904D01*
X153407261Y-77286904D01*
X152264404Y-76867857D02*
X152150119Y-76905952D01*
X152112023Y-76944047D01*
X152073928Y-77020238D01*
X152073928Y-77134523D01*
X152112023Y-77210714D01*
X152150119Y-77248809D01*
X152226309Y-77286904D01*
X152531071Y-77286904D01*
X152531071Y-76486904D01*
X152264404Y-76486904D01*
X152188214Y-76525000D01*
X152150119Y-76563095D01*
X152112023Y-76639285D01*
X152112023Y-76715476D01*
X152150119Y-76791666D01*
X152188214Y-76829761D01*
X152264404Y-76867857D01*
X152531071Y-76867857D01*
X151616785Y-77286904D02*
X151692976Y-77248809D01*
X151731071Y-77210714D01*
X151769166Y-77134523D01*
X151769166Y-76905952D01*
X151731071Y-76829761D01*
X151692976Y-76791666D01*
X151616785Y-76753571D01*
X151502500Y-76753571D01*
X151426309Y-76791666D01*
X151388214Y-76829761D01*
X151350119Y-76905952D01*
X151350119Y-77134523D01*
X151388214Y-77210714D01*
X151426309Y-77248809D01*
X151502500Y-77286904D01*
X151616785Y-77286904D01*
X150664404Y-77286904D02*
X150664404Y-76867857D01*
X150702500Y-76791666D01*
X150778690Y-76753571D01*
X150931071Y-76753571D01*
X151007261Y-76791666D01*
X150664404Y-77248809D02*
X150740595Y-77286904D01*
X150931071Y-77286904D01*
X151007261Y-77248809D01*
X151045357Y-77172619D01*
X151045357Y-77096428D01*
X151007261Y-77020238D01*
X150931071Y-76982142D01*
X150740595Y-76982142D01*
X150664404Y-76944047D01*
X150283452Y-77286904D02*
X150283452Y-76753571D01*
X150283452Y-76905952D02*
X150245357Y-76829761D01*
X150207261Y-76791666D01*
X150131071Y-76753571D01*
X150054880Y-76753571D01*
X149445357Y-77286904D02*
X149445357Y-76486904D01*
X149445357Y-77248809D02*
X149521547Y-77286904D01*
X149673928Y-77286904D01*
X149750119Y-77248809D01*
X149788214Y-77210714D01*
X149826309Y-77134523D01*
X149826309Y-76905952D01*
X149788214Y-76829761D01*
X149750119Y-76791666D01*
X149673928Y-76753571D01*
X149521547Y-76753571D01*
X149445357Y-76791666D01*
X163312023Y-78636904D02*
X163312023Y-77836904D01*
X162969166Y-78636904D02*
X162969166Y-78217857D01*
X163007261Y-78141666D01*
X163083452Y-78103571D01*
X163197738Y-78103571D01*
X163273928Y-78141666D01*
X163312023Y-78179761D01*
X162702500Y-78103571D02*
X162397738Y-78103571D01*
X162588214Y-77836904D02*
X162588214Y-78522619D01*
X162550119Y-78598809D01*
X162473928Y-78636904D01*
X162397738Y-78636904D01*
X162245357Y-78103571D02*
X161940595Y-78103571D01*
X162131071Y-77836904D02*
X162131071Y-78522619D01*
X162092976Y-78598809D01*
X162016785Y-78636904D01*
X161940595Y-78636904D01*
X161673928Y-78103571D02*
X161673928Y-78903571D01*
X161673928Y-78141666D02*
X161597738Y-78103571D01*
X161445357Y-78103571D01*
X161369166Y-78141666D01*
X161331071Y-78179761D01*
X161292976Y-78255952D01*
X161292976Y-78484523D01*
X161331071Y-78560714D01*
X161369166Y-78598809D01*
X161445357Y-78636904D01*
X161597738Y-78636904D01*
X161673928Y-78598809D01*
X160988214Y-78598809D02*
X160912023Y-78636904D01*
X160759642Y-78636904D01*
X160683452Y-78598809D01*
X160645357Y-78522619D01*
X160645357Y-78484523D01*
X160683452Y-78408333D01*
X160759642Y-78370238D01*
X160873928Y-78370238D01*
X160950119Y-78332142D01*
X160988214Y-78255952D01*
X160988214Y-78217857D01*
X160950119Y-78141666D01*
X160873928Y-78103571D01*
X160759642Y-78103571D01*
X160683452Y-78141666D01*
X160302500Y-78560714D02*
X160264404Y-78598809D01*
X160302500Y-78636904D01*
X160340595Y-78598809D01*
X160302500Y-78560714D01*
X160302500Y-78636904D01*
X160302500Y-78141666D02*
X160264404Y-78179761D01*
X160302500Y-78217857D01*
X160340595Y-78179761D01*
X160302500Y-78141666D01*
X160302500Y-78217857D01*
X159350119Y-77798809D02*
X160035833Y-78827380D01*
X158512023Y-77798809D02*
X159197738Y-78827380D01*
X157902500Y-78103571D02*
X157902500Y-78751190D01*
X157940595Y-78827380D01*
X157978690Y-78865476D01*
X158054880Y-78903571D01*
X158169166Y-78903571D01*
X158245357Y-78865476D01*
X157902500Y-78598809D02*
X157978690Y-78636904D01*
X158131071Y-78636904D01*
X158207261Y-78598809D01*
X158245357Y-78560714D01*
X158283452Y-78484523D01*
X158283452Y-78255952D01*
X158245357Y-78179761D01*
X158207261Y-78141666D01*
X158131071Y-78103571D01*
X157978690Y-78103571D01*
X157902500Y-78141666D01*
X157521547Y-78636904D02*
X157521547Y-78103571D01*
X157521547Y-77836904D02*
X157559642Y-77875000D01*
X157521547Y-77913095D01*
X157483452Y-77875000D01*
X157521547Y-77836904D01*
X157521547Y-77913095D01*
X157254880Y-78103571D02*
X156950119Y-78103571D01*
X157140595Y-77836904D02*
X157140595Y-78522619D01*
X157102500Y-78598809D01*
X157026309Y-78636904D01*
X156950119Y-78636904D01*
X156683452Y-78636904D02*
X156683452Y-77836904D01*
X156340595Y-78636904D02*
X156340595Y-78217857D01*
X156378690Y-78141666D01*
X156454880Y-78103571D01*
X156569166Y-78103571D01*
X156645357Y-78141666D01*
X156683452Y-78179761D01*
X155616785Y-78103571D02*
X155616785Y-78636904D01*
X155959642Y-78103571D02*
X155959642Y-78522619D01*
X155921547Y-78598809D01*
X155845357Y-78636904D01*
X155731071Y-78636904D01*
X155654880Y-78598809D01*
X155616785Y-78560714D01*
X155235833Y-78636904D02*
X155235833Y-77836904D01*
X155235833Y-78141666D02*
X155159642Y-78103571D01*
X155007261Y-78103571D01*
X154931071Y-78141666D01*
X154892976Y-78179761D01*
X154854880Y-78255952D01*
X154854880Y-78484523D01*
X154892976Y-78560714D01*
X154931071Y-78598809D01*
X155007261Y-78636904D01*
X155159642Y-78636904D01*
X155235833Y-78598809D01*
X154512023Y-78560714D02*
X154473928Y-78598809D01*
X154512023Y-78636904D01*
X154550119Y-78598809D01*
X154512023Y-78560714D01*
X154512023Y-78636904D01*
X153788214Y-78598809D02*
X153864404Y-78636904D01*
X154016785Y-78636904D01*
X154092976Y-78598809D01*
X154131071Y-78560714D01*
X154169166Y-78484523D01*
X154169166Y-78255952D01*
X154131071Y-78179761D01*
X154092976Y-78141666D01*
X154016785Y-78103571D01*
X153864404Y-78103571D01*
X153788214Y-78141666D01*
X153331071Y-78636904D02*
X153407261Y-78598809D01*
X153445357Y-78560714D01*
X153483452Y-78484523D01*
X153483452Y-78255952D01*
X153445357Y-78179761D01*
X153407261Y-78141666D01*
X153331071Y-78103571D01*
X153216785Y-78103571D01*
X153140595Y-78141666D01*
X153102500Y-78179761D01*
X153064404Y-78255952D01*
X153064404Y-78484523D01*
X153102500Y-78560714D01*
X153140595Y-78598809D01*
X153216785Y-78636904D01*
X153331071Y-78636904D01*
X152721547Y-78636904D02*
X152721547Y-78103571D01*
X152721547Y-78179761D02*
X152683452Y-78141666D01*
X152607261Y-78103571D01*
X152492976Y-78103571D01*
X152416785Y-78141666D01*
X152378690Y-78217857D01*
X152378690Y-78636904D01*
X152378690Y-78217857D02*
X152340595Y-78141666D01*
X152264404Y-78103571D01*
X152150119Y-78103571D01*
X152073928Y-78141666D01*
X152035833Y-78217857D01*
X152035833Y-78636904D01*
X151083452Y-77798809D02*
X151769166Y-78827380D01*
X150816785Y-78636904D02*
X150816785Y-77836904D01*
X150512023Y-77836904D01*
X150435833Y-77875000D01*
X150397738Y-77913095D01*
X150359642Y-77989285D01*
X150359642Y-78103571D01*
X150397738Y-78179761D01*
X150435833Y-78217857D01*
X150512023Y-78255952D01*
X150816785Y-78255952D01*
X149673928Y-78636904D02*
X149673928Y-78217857D01*
X149712023Y-78141666D01*
X149788214Y-78103571D01*
X149940595Y-78103571D01*
X150016785Y-78141666D01*
X149673928Y-78598809D02*
X149750119Y-78636904D01*
X149940595Y-78636904D01*
X150016785Y-78598809D01*
X150054880Y-78522619D01*
X150054880Y-78446428D01*
X150016785Y-78370238D01*
X149940595Y-78332142D01*
X149750119Y-78332142D01*
X149673928Y-78294047D01*
X149407261Y-78103571D02*
X149102500Y-78103571D01*
X149292976Y-77836904D02*
X149292976Y-78522619D01*
X149254880Y-78598809D01*
X149178690Y-78636904D01*
X149102500Y-78636904D01*
X148835833Y-78636904D02*
X148835833Y-78103571D01*
X148835833Y-78255952D02*
X148797738Y-78179761D01*
X148759642Y-78141666D01*
X148683452Y-78103571D01*
X148607261Y-78103571D01*
X148340595Y-78636904D02*
X148340595Y-78103571D01*
X148340595Y-77836904D02*
X148378690Y-77875000D01*
X148340595Y-77913095D01*
X148302500Y-77875000D01*
X148340595Y-77836904D01*
X148340595Y-77913095D01*
X147616785Y-78598809D02*
X147692976Y-78636904D01*
X147845357Y-78636904D01*
X147921547Y-78598809D01*
X147959642Y-78560714D01*
X147997738Y-78484523D01*
X147997738Y-78255952D01*
X147959642Y-78179761D01*
X147921547Y-78141666D01*
X147845357Y-78103571D01*
X147692976Y-78103571D01*
X147616785Y-78141666D01*
X147273928Y-78636904D02*
X147273928Y-77836904D01*
X147197738Y-78332142D02*
X146969166Y-78636904D01*
X146969166Y-78103571D02*
X147273928Y-78408333D01*
X146359642Y-78217857D02*
X146245357Y-78255952D01*
X146207261Y-78294047D01*
X146169166Y-78370238D01*
X146169166Y-78484523D01*
X146207261Y-78560714D01*
X146245357Y-78598809D01*
X146321547Y-78636904D01*
X146626309Y-78636904D01*
X146626309Y-77836904D01*
X146359642Y-77836904D01*
X146283452Y-77875000D01*
X146245357Y-77913095D01*
X146207261Y-77989285D01*
X146207261Y-78065476D01*
X146245357Y-78141666D01*
X146283452Y-78179761D01*
X146359642Y-78217857D01*
X146626309Y-78217857D01*
X145483452Y-78636904D02*
X145483452Y-78217857D01*
X145521547Y-78141666D01*
X145597738Y-78103571D01*
X145750119Y-78103571D01*
X145826309Y-78141666D01*
X145483452Y-78598809D02*
X145559642Y-78636904D01*
X145750119Y-78636904D01*
X145826309Y-78598809D01*
X145864404Y-78522619D01*
X145864404Y-78446428D01*
X145826309Y-78370238D01*
X145750119Y-78332142D01*
X145559642Y-78332142D01*
X145483452Y-78294047D01*
X144759642Y-78103571D02*
X144759642Y-78636904D01*
X145102500Y-78103571D02*
X145102500Y-78522619D01*
X145064404Y-78598809D01*
X144988214Y-78636904D01*
X144873928Y-78636904D01*
X144797738Y-78598809D01*
X144759642Y-78560714D01*
X144416785Y-78598809D02*
X144340595Y-78636904D01*
X144188214Y-78636904D01*
X144112023Y-78598809D01*
X144073928Y-78522619D01*
X144073928Y-78484523D01*
X144112023Y-78408333D01*
X144188214Y-78370238D01*
X144302500Y-78370238D01*
X144378690Y-78332142D01*
X144416785Y-78255952D01*
X144416785Y-78217857D01*
X144378690Y-78141666D01*
X144302500Y-78103571D01*
X144188214Y-78103571D01*
X144112023Y-78141666D01*
D12*
G36*
X153499036Y-67798576D02*
X153423487Y-68199322D01*
X152865959Y-68429154D01*
X152531535Y-68201748D01*
X152437878Y-68138431D01*
X152353218Y-68081896D01*
X152281505Y-68034727D01*
X152226689Y-67999502D01*
X152192720Y-67978805D01*
X152183470Y-67974342D01*
X152166805Y-67985820D01*
X152131194Y-68017551D01*
X152080629Y-68065483D01*
X152019100Y-68125562D01*
X151950601Y-68193733D01*
X151879121Y-68265945D01*
X151808653Y-68338142D01*
X151743189Y-68406273D01*
X151686720Y-68466283D01*
X151643237Y-68514119D01*
X151616732Y-68545727D01*
X151610395Y-68556305D01*
X151619514Y-68575806D01*
X151645080Y-68618531D01*
X151684403Y-68680298D01*
X151734797Y-68756931D01*
X151793573Y-68844248D01*
X151827632Y-68894052D01*
X151889711Y-68984993D01*
X151944874Y-69067059D01*
X151990446Y-69136163D01*
X152023750Y-69188222D01*
X152042110Y-69219150D01*
X152044869Y-69225650D01*
X152038615Y-69244121D01*
X152021566Y-69287172D01*
X151996297Y-69348749D01*
X151965378Y-69422799D01*
X151931382Y-69503270D01*
X151896882Y-69584107D01*
X151864449Y-69659258D01*
X151836657Y-69722671D01*
X151816077Y-69768293D01*
X151805281Y-69790069D01*
X151804644Y-69790926D01*
X151787693Y-69795084D01*
X151742549Y-69804361D01*
X151673890Y-69817844D01*
X151586398Y-69834621D01*
X151484750Y-69853781D01*
X151425444Y-69864830D01*
X151316828Y-69885510D01*
X151218723Y-69905189D01*
X151136091Y-69922789D01*
X151073896Y-69937233D01*
X151037101Y-69947446D01*
X151029704Y-69950686D01*
X151022460Y-69972617D01*
X151016615Y-70022147D01*
X151012165Y-70093485D01*
X151009107Y-70180839D01*
X151007435Y-70278417D01*
X151007147Y-70380426D01*
X151008239Y-70481075D01*
X151010706Y-70574572D01*
X151014544Y-70655125D01*
X151019750Y-70716942D01*
X151026319Y-70754230D01*
X151030259Y-70761993D01*
X151053812Y-70771298D01*
X151103718Y-70784600D01*
X151173377Y-70800337D01*
X151256187Y-70816946D01*
X151285095Y-70822319D01*
X151424469Y-70847848D01*
X151534564Y-70868408D01*
X151619018Y-70884815D01*
X151681470Y-70897887D01*
X151725556Y-70908441D01*
X151754915Y-70917294D01*
X151773185Y-70925263D01*
X151784002Y-70933165D01*
X151785515Y-70934727D01*
X151800623Y-70959886D01*
X151823671Y-71008850D01*
X151852356Y-71075621D01*
X151884378Y-71154205D01*
X151917435Y-71238607D01*
X151949227Y-71322830D01*
X151977451Y-71400879D01*
X151999807Y-71466759D01*
X152013993Y-71514473D01*
X152017707Y-71538027D01*
X152017398Y-71538852D01*
X152004811Y-71558104D01*
X151976256Y-71600463D01*
X151934733Y-71661521D01*
X151883244Y-71736868D01*
X151824789Y-71822096D01*
X151808142Y-71846315D01*
X151748785Y-71934123D01*
X151696553Y-72014238D01*
X151654292Y-72082062D01*
X151624847Y-72132993D01*
X151611063Y-72162431D01*
X151610395Y-72166048D01*
X151621976Y-72185057D01*
X151653976Y-72222714D01*
X151702282Y-72274973D01*
X151762780Y-72337786D01*
X151831356Y-72407106D01*
X151903896Y-72478885D01*
X151976288Y-72549077D01*
X152044416Y-72613635D01*
X152104168Y-72668510D01*
X152151429Y-72709656D01*
X152182087Y-72733026D01*
X152190568Y-72736842D01*
X152210309Y-72727855D01*
X152250726Y-72703616D01*
X152305237Y-72668209D01*
X152347177Y-72639711D01*
X152423171Y-72587418D01*
X152513166Y-72525845D01*
X152603436Y-72464370D01*
X152651968Y-72431469D01*
X152816238Y-72320359D01*
X152954131Y-72394916D01*
X153016951Y-72427578D01*
X153070371Y-72452966D01*
X153106516Y-72467446D01*
X153115716Y-72469460D01*
X153126779Y-72454584D01*
X153148606Y-72412547D01*
X153179566Y-72347227D01*
X153218030Y-72262500D01*
X153262368Y-72162245D01*
X153310953Y-72050339D01*
X153362154Y-71930659D01*
X153414341Y-71807084D01*
X153465887Y-71683491D01*
X153515160Y-71563757D01*
X153560533Y-71451759D01*
X153600375Y-71351377D01*
X153633058Y-71266486D01*
X153656951Y-71200965D01*
X153670426Y-71158690D01*
X153672594Y-71144172D01*
X153655417Y-71125653D01*
X153617810Y-71095590D01*
X153567634Y-71060232D01*
X153563422Y-71057434D01*
X153433736Y-70953625D01*
X153329166Y-70832515D01*
X153250619Y-70697976D01*
X153199001Y-70553882D01*
X153175218Y-70404105D01*
X153180177Y-70252517D01*
X153214783Y-70102992D01*
X153279943Y-69959400D01*
X153299114Y-69927984D01*
X153398826Y-69801125D01*
X153516623Y-69699255D01*
X153648429Y-69622904D01*
X153790167Y-69572602D01*
X153937758Y-69548879D01*
X154087127Y-69552265D01*
X154234197Y-69583288D01*
X154374889Y-69642480D01*
X154505127Y-69730369D01*
X154545414Y-69766042D01*
X154647945Y-69877706D01*
X154722659Y-69995257D01*
X154773910Y-70127020D01*
X154802454Y-70257507D01*
X154809500Y-70404216D01*
X154786004Y-70551653D01*
X154734351Y-70694834D01*
X154656929Y-70828777D01*
X154556125Y-70948498D01*
X154434324Y-71049014D01*
X154418316Y-71059609D01*
X154367602Y-71094306D01*
X154329050Y-71124370D01*
X154310619Y-71143565D01*
X154310351Y-71144172D01*
X154314308Y-71164936D01*
X154329993Y-71212062D01*
X154355778Y-71281673D01*
X154390031Y-71369893D01*
X154431123Y-71472844D01*
X154477424Y-71586650D01*
X154527304Y-71707435D01*
X154579133Y-71831321D01*
X154631281Y-71954432D01*
X154682118Y-72072891D01*
X154730013Y-72182823D01*
X154773338Y-72280349D01*
X154810462Y-72361593D01*
X154839756Y-72422679D01*
X154859588Y-72459730D01*
X154867574Y-72469460D01*
X154891979Y-72461883D01*
X154937642Y-72441560D01*
X154996690Y-72412125D01*
X155029160Y-72394916D01*
X155167053Y-72320359D01*
X155331323Y-72431469D01*
X155415179Y-72488390D01*
X155506987Y-72551030D01*
X155593020Y-72610011D01*
X155636113Y-72639711D01*
X155696723Y-72680410D01*
X155748045Y-72712663D01*
X155783385Y-72732384D01*
X155794863Y-72736554D01*
X155811570Y-72725307D01*
X155848546Y-72693911D01*
X155902205Y-72645624D01*
X155968962Y-72583708D01*
X156045234Y-72511421D01*
X156093473Y-72465008D01*
X156177867Y-72382087D01*
X156250803Y-72307920D01*
X156309331Y-72245680D01*
X156350503Y-72198541D01*
X156371372Y-72169673D01*
X156373374Y-72163815D01*
X156364083Y-72141532D01*
X156338409Y-72096477D01*
X156299200Y-72033211D01*
X156249303Y-71956295D01*
X156191567Y-71870292D01*
X156175149Y-71846315D01*
X156115323Y-71759170D01*
X156061650Y-71680710D01*
X156017130Y-71615345D01*
X155984765Y-71567484D01*
X155967555Y-71541535D01*
X155965893Y-71538852D01*
X155968379Y-71518172D01*
X155981577Y-71472704D01*
X156003186Y-71408444D01*
X156030904Y-71331387D01*
X156062430Y-71247529D01*
X156095463Y-71162866D01*
X156127701Y-71083392D01*
X156156843Y-71015104D01*
X156180588Y-70963997D01*
X156196635Y-70936067D01*
X156197775Y-70934727D01*
X156207588Y-70926745D01*
X156224161Y-70918851D01*
X156251132Y-70910229D01*
X156292139Y-70900062D01*
X156350820Y-70887531D01*
X156430813Y-70871821D01*
X156535755Y-70852113D01*
X156669285Y-70827592D01*
X156698196Y-70822319D01*
X156783882Y-70805764D01*
X156858582Y-70789569D01*
X156915694Y-70775296D01*
X156948617Y-70764508D01*
X156953031Y-70761993D01*
X156960306Y-70739696D01*
X156966219Y-70689869D01*
X156970766Y-70618304D01*
X156973945Y-70530793D01*
X156975749Y-70433128D01*
X156976177Y-70331101D01*
X156975223Y-70230503D01*
X156972884Y-70137127D01*
X156969156Y-70056765D01*
X156964034Y-69995209D01*
X156957516Y-69958250D01*
X156953586Y-69950686D01*
X156931708Y-69943056D01*
X156881891Y-69930642D01*
X156809097Y-69914522D01*
X156718289Y-69895773D01*
X156614431Y-69875471D01*
X156557846Y-69864830D01*
X156450486Y-69844760D01*
X156354746Y-69826580D01*
X156275306Y-69811199D01*
X156216846Y-69799531D01*
X156184045Y-69792488D01*
X156178646Y-69790926D01*
X156169522Y-69773322D01*
X156150235Y-69730918D01*
X156123355Y-69669772D01*
X156091454Y-69595943D01*
X156057102Y-69515489D01*
X156022871Y-69434468D01*
X155991331Y-69358937D01*
X155965054Y-69294955D01*
X155946611Y-69248580D01*
X155938571Y-69225869D01*
X155938422Y-69224876D01*
X155947535Y-69206961D01*
X155973086Y-69165733D01*
X156012388Y-69105291D01*
X156062757Y-69029731D01*
X156121506Y-68943152D01*
X156155658Y-68893421D01*
X156217890Y-68802236D01*
X156273164Y-68719449D01*
X156318782Y-68649249D01*
X156352048Y-68595824D01*
X156370264Y-68563361D01*
X156372895Y-68556083D01*
X156361586Y-68539145D01*
X156330319Y-68502978D01*
X156283090Y-68451635D01*
X156223892Y-68389167D01*
X156156719Y-68319626D01*
X156085566Y-68247065D01*
X156014426Y-68175535D01*
X155947293Y-68109087D01*
X155888161Y-68051774D01*
X155841025Y-68007647D01*
X155809877Y-67980759D01*
X155799457Y-67974342D01*
X155782491Y-67983365D01*
X155741911Y-68008715D01*
X155681663Y-68047810D01*
X155605693Y-68098071D01*
X155517946Y-68156917D01*
X155451756Y-68201748D01*
X155117332Y-68429154D01*
X154838567Y-68314238D01*
X154559803Y-68199322D01*
X154484254Y-67798576D01*
X154408706Y-67397829D01*
X153574585Y-67397829D01*
X153499036Y-67798576D01*
X153499036Y-67798576D01*
G37*
X153499036Y-67798576D02*
X153423487Y-68199322D01*
X152865959Y-68429154D01*
X152531535Y-68201748D01*
X152437878Y-68138431D01*
X152353218Y-68081896D01*
X152281505Y-68034727D01*
X152226689Y-67999502D01*
X152192720Y-67978805D01*
X152183470Y-67974342D01*
X152166805Y-67985820D01*
X152131194Y-68017551D01*
X152080629Y-68065483D01*
X152019100Y-68125562D01*
X151950601Y-68193733D01*
X151879121Y-68265945D01*
X151808653Y-68338142D01*
X151743189Y-68406273D01*
X151686720Y-68466283D01*
X151643237Y-68514119D01*
X151616732Y-68545727D01*
X151610395Y-68556305D01*
X151619514Y-68575806D01*
X151645080Y-68618531D01*
X151684403Y-68680298D01*
X151734797Y-68756931D01*
X151793573Y-68844248D01*
X151827632Y-68894052D01*
X151889711Y-68984993D01*
X151944874Y-69067059D01*
X151990446Y-69136163D01*
X152023750Y-69188222D01*
X152042110Y-69219150D01*
X152044869Y-69225650D01*
X152038615Y-69244121D01*
X152021566Y-69287172D01*
X151996297Y-69348749D01*
X151965378Y-69422799D01*
X151931382Y-69503270D01*
X151896882Y-69584107D01*
X151864449Y-69659258D01*
X151836657Y-69722671D01*
X151816077Y-69768293D01*
X151805281Y-69790069D01*
X151804644Y-69790926D01*
X151787693Y-69795084D01*
X151742549Y-69804361D01*
X151673890Y-69817844D01*
X151586398Y-69834621D01*
X151484750Y-69853781D01*
X151425444Y-69864830D01*
X151316828Y-69885510D01*
X151218723Y-69905189D01*
X151136091Y-69922789D01*
X151073896Y-69937233D01*
X151037101Y-69947446D01*
X151029704Y-69950686D01*
X151022460Y-69972617D01*
X151016615Y-70022147D01*
X151012165Y-70093485D01*
X151009107Y-70180839D01*
X151007435Y-70278417D01*
X151007147Y-70380426D01*
X151008239Y-70481075D01*
X151010706Y-70574572D01*
X151014544Y-70655125D01*
X151019750Y-70716942D01*
X151026319Y-70754230D01*
X151030259Y-70761993D01*
X151053812Y-70771298D01*
X151103718Y-70784600D01*
X151173377Y-70800337D01*
X151256187Y-70816946D01*
X151285095Y-70822319D01*
X151424469Y-70847848D01*
X151534564Y-70868408D01*
X151619018Y-70884815D01*
X151681470Y-70897887D01*
X151725556Y-70908441D01*
X151754915Y-70917294D01*
X151773185Y-70925263D01*
X151784002Y-70933165D01*
X151785515Y-70934727D01*
X151800623Y-70959886D01*
X151823671Y-71008850D01*
X151852356Y-71075621D01*
X151884378Y-71154205D01*
X151917435Y-71238607D01*
X151949227Y-71322830D01*
X151977451Y-71400879D01*
X151999807Y-71466759D01*
X152013993Y-71514473D01*
X152017707Y-71538027D01*
X152017398Y-71538852D01*
X152004811Y-71558104D01*
X151976256Y-71600463D01*
X151934733Y-71661521D01*
X151883244Y-71736868D01*
X151824789Y-71822096D01*
X151808142Y-71846315D01*
X151748785Y-71934123D01*
X151696553Y-72014238D01*
X151654292Y-72082062D01*
X151624847Y-72132993D01*
X151611063Y-72162431D01*
X151610395Y-72166048D01*
X151621976Y-72185057D01*
X151653976Y-72222714D01*
X151702282Y-72274973D01*
X151762780Y-72337786D01*
X151831356Y-72407106D01*
X151903896Y-72478885D01*
X151976288Y-72549077D01*
X152044416Y-72613635D01*
X152104168Y-72668510D01*
X152151429Y-72709656D01*
X152182087Y-72733026D01*
X152190568Y-72736842D01*
X152210309Y-72727855D01*
X152250726Y-72703616D01*
X152305237Y-72668209D01*
X152347177Y-72639711D01*
X152423171Y-72587418D01*
X152513166Y-72525845D01*
X152603436Y-72464370D01*
X152651968Y-72431469D01*
X152816238Y-72320359D01*
X152954131Y-72394916D01*
X153016951Y-72427578D01*
X153070371Y-72452966D01*
X153106516Y-72467446D01*
X153115716Y-72469460D01*
X153126779Y-72454584D01*
X153148606Y-72412547D01*
X153179566Y-72347227D01*
X153218030Y-72262500D01*
X153262368Y-72162245D01*
X153310953Y-72050339D01*
X153362154Y-71930659D01*
X153414341Y-71807084D01*
X153465887Y-71683491D01*
X153515160Y-71563757D01*
X153560533Y-71451759D01*
X153600375Y-71351377D01*
X153633058Y-71266486D01*
X153656951Y-71200965D01*
X153670426Y-71158690D01*
X153672594Y-71144172D01*
X153655417Y-71125653D01*
X153617810Y-71095590D01*
X153567634Y-71060232D01*
X153563422Y-71057434D01*
X153433736Y-70953625D01*
X153329166Y-70832515D01*
X153250619Y-70697976D01*
X153199001Y-70553882D01*
X153175218Y-70404105D01*
X153180177Y-70252517D01*
X153214783Y-70102992D01*
X153279943Y-69959400D01*
X153299114Y-69927984D01*
X153398826Y-69801125D01*
X153516623Y-69699255D01*
X153648429Y-69622904D01*
X153790167Y-69572602D01*
X153937758Y-69548879D01*
X154087127Y-69552265D01*
X154234197Y-69583288D01*
X154374889Y-69642480D01*
X154505127Y-69730369D01*
X154545414Y-69766042D01*
X154647945Y-69877706D01*
X154722659Y-69995257D01*
X154773910Y-70127020D01*
X154802454Y-70257507D01*
X154809500Y-70404216D01*
X154786004Y-70551653D01*
X154734351Y-70694834D01*
X154656929Y-70828777D01*
X154556125Y-70948498D01*
X154434324Y-71049014D01*
X154418316Y-71059609D01*
X154367602Y-71094306D01*
X154329050Y-71124370D01*
X154310619Y-71143565D01*
X154310351Y-71144172D01*
X154314308Y-71164936D01*
X154329993Y-71212062D01*
X154355778Y-71281673D01*
X154390031Y-71369893D01*
X154431123Y-71472844D01*
X154477424Y-71586650D01*
X154527304Y-71707435D01*
X154579133Y-71831321D01*
X154631281Y-71954432D01*
X154682118Y-72072891D01*
X154730013Y-72182823D01*
X154773338Y-72280349D01*
X154810462Y-72361593D01*
X154839756Y-72422679D01*
X154859588Y-72459730D01*
X154867574Y-72469460D01*
X154891979Y-72461883D01*
X154937642Y-72441560D01*
X154996690Y-72412125D01*
X155029160Y-72394916D01*
X155167053Y-72320359D01*
X155331323Y-72431469D01*
X155415179Y-72488390D01*
X155506987Y-72551030D01*
X155593020Y-72610011D01*
X155636113Y-72639711D01*
X155696723Y-72680410D01*
X155748045Y-72712663D01*
X155783385Y-72732384D01*
X155794863Y-72736554D01*
X155811570Y-72725307D01*
X155848546Y-72693911D01*
X155902205Y-72645624D01*
X155968962Y-72583708D01*
X156045234Y-72511421D01*
X156093473Y-72465008D01*
X156177867Y-72382087D01*
X156250803Y-72307920D01*
X156309331Y-72245680D01*
X156350503Y-72198541D01*
X156371372Y-72169673D01*
X156373374Y-72163815D01*
X156364083Y-72141532D01*
X156338409Y-72096477D01*
X156299200Y-72033211D01*
X156249303Y-71956295D01*
X156191567Y-71870292D01*
X156175149Y-71846315D01*
X156115323Y-71759170D01*
X156061650Y-71680710D01*
X156017130Y-71615345D01*
X155984765Y-71567484D01*
X155967555Y-71541535D01*
X155965893Y-71538852D01*
X155968379Y-71518172D01*
X155981577Y-71472704D01*
X156003186Y-71408444D01*
X156030904Y-71331387D01*
X156062430Y-71247529D01*
X156095463Y-71162866D01*
X156127701Y-71083392D01*
X156156843Y-71015104D01*
X156180588Y-70963997D01*
X156196635Y-70936067D01*
X156197775Y-70934727D01*
X156207588Y-70926745D01*
X156224161Y-70918851D01*
X156251132Y-70910229D01*
X156292139Y-70900062D01*
X156350820Y-70887531D01*
X156430813Y-70871821D01*
X156535755Y-70852113D01*
X156669285Y-70827592D01*
X156698196Y-70822319D01*
X156783882Y-70805764D01*
X156858582Y-70789569D01*
X156915694Y-70775296D01*
X156948617Y-70764508D01*
X156953031Y-70761993D01*
X156960306Y-70739696D01*
X156966219Y-70689869D01*
X156970766Y-70618304D01*
X156973945Y-70530793D01*
X156975749Y-70433128D01*
X156976177Y-70331101D01*
X156975223Y-70230503D01*
X156972884Y-70137127D01*
X156969156Y-70056765D01*
X156964034Y-69995209D01*
X156957516Y-69958250D01*
X156953586Y-69950686D01*
X156931708Y-69943056D01*
X156881891Y-69930642D01*
X156809097Y-69914522D01*
X156718289Y-69895773D01*
X156614431Y-69875471D01*
X156557846Y-69864830D01*
X156450486Y-69844760D01*
X156354746Y-69826580D01*
X156275306Y-69811199D01*
X156216846Y-69799531D01*
X156184045Y-69792488D01*
X156178646Y-69790926D01*
X156169522Y-69773322D01*
X156150235Y-69730918D01*
X156123355Y-69669772D01*
X156091454Y-69595943D01*
X156057102Y-69515489D01*
X156022871Y-69434468D01*
X155991331Y-69358937D01*
X155965054Y-69294955D01*
X155946611Y-69248580D01*
X155938571Y-69225869D01*
X155938422Y-69224876D01*
X155947535Y-69206961D01*
X155973086Y-69165733D01*
X156012388Y-69105291D01*
X156062757Y-69029731D01*
X156121506Y-68943152D01*
X156155658Y-68893421D01*
X156217890Y-68802236D01*
X156273164Y-68719449D01*
X156318782Y-68649249D01*
X156352048Y-68595824D01*
X156370264Y-68563361D01*
X156372895Y-68556083D01*
X156361586Y-68539145D01*
X156330319Y-68502978D01*
X156283090Y-68451635D01*
X156223892Y-68389167D01*
X156156719Y-68319626D01*
X156085566Y-68247065D01*
X156014426Y-68175535D01*
X155947293Y-68109087D01*
X155888161Y-68051774D01*
X155841025Y-68007647D01*
X155809877Y-67980759D01*
X155799457Y-67974342D01*
X155782491Y-67983365D01*
X155741911Y-68008715D01*
X155681663Y-68047810D01*
X155605693Y-68098071D01*
X155517946Y-68156917D01*
X155451756Y-68201748D01*
X155117332Y-68429154D01*
X154838567Y-68314238D01*
X154559803Y-68199322D01*
X154484254Y-67798576D01*
X154408706Y-67397829D01*
X153574585Y-67397829D01*
X153499036Y-67798576D01*
G36*
X151608612Y-73337645D02*
X151551135Y-73355206D01*
X151514128Y-73377395D01*
X151502073Y-73394942D01*
X151505391Y-73415742D01*
X151526921Y-73448419D01*
X151545126Y-73471562D01*
X151582656Y-73513402D01*
X151610852Y-73531005D01*
X151634889Y-73529856D01*
X151706192Y-73511710D01*
X151758558Y-73512534D01*
X151801082Y-73533098D01*
X151815358Y-73545134D01*
X151861053Y-73587483D01*
X151861053Y-74140526D01*
X152044869Y-74140526D01*
X152044869Y-73338421D01*
X151952961Y-73338421D01*
X151897781Y-73340603D01*
X151869312Y-73348351D01*
X151861057Y-73363468D01*
X151861053Y-73363916D01*
X151857155Y-73379749D01*
X151839526Y-73377684D01*
X151815099Y-73366261D01*
X151764650Y-73345005D01*
X151723684Y-73332216D01*
X151670972Y-73328938D01*
X151608612Y-73337645D01*
X151608612Y-73337645D01*
G37*
X151608612Y-73337645D02*
X151551135Y-73355206D01*
X151514128Y-73377395D01*
X151502073Y-73394942D01*
X151505391Y-73415742D01*
X151526921Y-73448419D01*
X151545126Y-73471562D01*
X151582656Y-73513402D01*
X151610852Y-73531005D01*
X151634889Y-73529856D01*
X151706192Y-73511710D01*
X151758558Y-73512534D01*
X151801082Y-73533098D01*
X151815358Y-73545134D01*
X151861053Y-73587483D01*
X151861053Y-74140526D01*
X152044869Y-74140526D01*
X152044869Y-73338421D01*
X151952961Y-73338421D01*
X151897781Y-73340603D01*
X151869312Y-73348351D01*
X151861057Y-73363468D01*
X151861053Y-73363916D01*
X151857155Y-73379749D01*
X151839526Y-73377684D01*
X151815099Y-73366261D01*
X151764650Y-73345005D01*
X151723684Y-73332216D01*
X151670972Y-73328938D01*
X151608612Y-73337645D01*
G36*
X155002043Y-73352226D02*
X154960454Y-73372090D01*
X154920175Y-73400784D01*
X154889490Y-73433809D01*
X154867139Y-73475931D01*
X154851864Y-73531915D01*
X154842408Y-73606528D01*
X154837513Y-73704535D01*
X154835919Y-73830702D01*
X154835894Y-73843914D01*
X154835527Y-74140526D01*
X155019343Y-74140526D01*
X155019343Y-73867081D01*
X155019473Y-73765777D01*
X155020379Y-73692353D01*
X155022827Y-73641271D01*
X155027586Y-73606990D01*
X155035426Y-73583971D01*
X155047115Y-73566673D01*
X155063398Y-73549581D01*
X155120366Y-73512857D01*
X155182555Y-73506042D01*
X155241801Y-73529261D01*
X155262405Y-73546543D01*
X155277530Y-73562791D01*
X155288390Y-73580191D01*
X155295690Y-73604212D01*
X155300137Y-73640322D01*
X155302436Y-73693988D01*
X155303296Y-73770680D01*
X155303422Y-73864043D01*
X155303422Y-74140526D01*
X155487237Y-74140526D01*
X155487237Y-73338421D01*
X155395329Y-73338421D01*
X155340149Y-73340603D01*
X155311680Y-73348351D01*
X155303425Y-73363468D01*
X155303422Y-73363916D01*
X155299592Y-73378720D01*
X155282699Y-73377040D01*
X155249112Y-73360773D01*
X155172937Y-73336840D01*
X155085800Y-73334178D01*
X155002043Y-73352226D01*
X155002043Y-73352226D01*
G37*
X155002043Y-73352226D02*
X154960454Y-73372090D01*
X154920175Y-73400784D01*
X154889490Y-73433809D01*
X154867139Y-73475931D01*
X154851864Y-73531915D01*
X154842408Y-73606528D01*
X154837513Y-73704535D01*
X154835919Y-73830702D01*
X154835894Y-73843914D01*
X154835527Y-74140526D01*
X155019343Y-74140526D01*
X155019343Y-73867081D01*
X155019473Y-73765777D01*
X155020379Y-73692353D01*
X155022827Y-73641271D01*
X155027586Y-73606990D01*
X155035426Y-73583971D01*
X155047115Y-73566673D01*
X155063398Y-73549581D01*
X155120366Y-73512857D01*
X155182555Y-73506042D01*
X155241801Y-73529261D01*
X155262405Y-73546543D01*
X155277530Y-73562791D01*
X155288390Y-73580191D01*
X155295690Y-73604212D01*
X155300137Y-73640322D01*
X155302436Y-73693988D01*
X155303296Y-73770680D01*
X155303422Y-73864043D01*
X155303422Y-74140526D01*
X155487237Y-74140526D01*
X155487237Y-73338421D01*
X155395329Y-73338421D01*
X155340149Y-73340603D01*
X155311680Y-73348351D01*
X155303425Y-73363468D01*
X155303422Y-73363916D01*
X155299592Y-73378720D01*
X155282699Y-73377040D01*
X155249112Y-73360773D01*
X155172937Y-73336840D01*
X155085800Y-73334178D01*
X155002043Y-73352226D01*
G36*
X150441216Y-73335554D02*
X150398426Y-73345949D01*
X150316391Y-73384013D01*
X150246243Y-73442149D01*
X150197695Y-73511852D01*
X150191025Y-73527502D01*
X150181876Y-73568496D01*
X150175471Y-73629138D01*
X150173290Y-73690430D01*
X150173290Y-73806316D01*
X150415593Y-73806316D01*
X150515529Y-73806693D01*
X150585931Y-73808987D01*
X150630687Y-73814938D01*
X150653685Y-73826285D01*
X150658811Y-73844771D01*
X150649952Y-73872136D01*
X150634083Y-73904155D01*
X150589816Y-73957592D01*
X150528301Y-73984215D01*
X150453115Y-73983347D01*
X150367947Y-73954371D01*
X150294341Y-73918611D01*
X150233266Y-73966904D01*
X150172190Y-74015197D01*
X150229649Y-74068285D01*
X150306359Y-74118445D01*
X150400698Y-74148688D01*
X150502173Y-74157151D01*
X150600289Y-74141974D01*
X150616119Y-74136824D01*
X150702353Y-74091791D01*
X150766499Y-74024652D01*
X150809909Y-73933405D01*
X150833936Y-73816044D01*
X150834216Y-73813529D01*
X150836367Y-73685627D01*
X150827671Y-73639997D01*
X150657895Y-73639997D01*
X150642303Y-73647013D01*
X150599971Y-73652388D01*
X150537566Y-73655457D01*
X150498019Y-73655921D01*
X150424272Y-73655630D01*
X150378160Y-73653783D01*
X150353900Y-73648912D01*
X150345706Y-73639555D01*
X150347794Y-73624245D01*
X150349545Y-73618322D01*
X150379440Y-73562668D01*
X150426458Y-73517815D01*
X150467951Y-73498105D01*
X150523074Y-73499295D01*
X150578932Y-73523875D01*
X150625788Y-73564570D01*
X150653906Y-73614108D01*
X150657895Y-73639997D01*
X150827671Y-73639997D01*
X150814926Y-73573133D01*
X150772389Y-73478727D01*
X150711253Y-73405088D01*
X150634015Y-73354893D01*
X150543170Y-73330822D01*
X150441216Y-73335554D01*
X150441216Y-73335554D01*
G37*
X150441216Y-73335554D02*
X150398426Y-73345949D01*
X150316391Y-73384013D01*
X150246243Y-73442149D01*
X150197695Y-73511852D01*
X150191025Y-73527502D01*
X150181876Y-73568496D01*
X150175471Y-73629138D01*
X150173290Y-73690430D01*
X150173290Y-73806316D01*
X150415593Y-73806316D01*
X150515529Y-73806693D01*
X150585931Y-73808987D01*
X150630687Y-73814938D01*
X150653685Y-73826285D01*
X150658811Y-73844771D01*
X150649952Y-73872136D01*
X150634083Y-73904155D01*
X150589816Y-73957592D01*
X150528301Y-73984215D01*
X150453115Y-73983347D01*
X150367947Y-73954371D01*
X150294341Y-73918611D01*
X150233266Y-73966904D01*
X150172190Y-74015197D01*
X150229649Y-74068285D01*
X150306359Y-74118445D01*
X150400698Y-74148688D01*
X150502173Y-74157151D01*
X150600289Y-74141974D01*
X150616119Y-74136824D01*
X150702353Y-74091791D01*
X150766499Y-74024652D01*
X150809909Y-73933405D01*
X150833936Y-73816044D01*
X150834216Y-73813529D01*
X150836367Y-73685627D01*
X150827671Y-73639997D01*
X150657895Y-73639997D01*
X150642303Y-73647013D01*
X150599971Y-73652388D01*
X150537566Y-73655457D01*
X150498019Y-73655921D01*
X150424272Y-73655630D01*
X150378160Y-73653783D01*
X150353900Y-73648912D01*
X150345706Y-73639555D01*
X150347794Y-73624245D01*
X150349545Y-73618322D01*
X150379440Y-73562668D01*
X150426458Y-73517815D01*
X150467951Y-73498105D01*
X150523074Y-73499295D01*
X150578932Y-73523875D01*
X150625788Y-73564570D01*
X150653906Y-73614108D01*
X150657895Y-73639997D01*
X150827671Y-73639997D01*
X150814926Y-73573133D01*
X150772389Y-73478727D01*
X150711253Y-73405088D01*
X150634015Y-73354893D01*
X150543170Y-73330822D01*
X150441216Y-73335554D01*
G36*
X151053424Y-73345419D02*
X150956605Y-73386549D01*
X150926110Y-73406571D01*
X150887135Y-73437340D01*
X150862669Y-73461533D01*
X150858422Y-73469413D01*
X150870416Y-73486899D01*
X150901113Y-73516570D01*
X150925688Y-73537279D01*
X150992954Y-73591336D01*
X151046070Y-73546642D01*
X151087116Y-73517789D01*
X151127137Y-73507829D01*
X151172941Y-73510261D01*
X151245676Y-73528345D01*
X151295744Y-73565881D01*
X151326171Y-73626562D01*
X151339983Y-73714081D01*
X151339987Y-73714136D01*
X151338792Y-73811958D01*
X151320228Y-73883730D01*
X151283196Y-73932595D01*
X151257950Y-73949143D01*
X151190903Y-73969749D01*
X151119291Y-73969762D01*
X151056985Y-73949768D01*
X151042237Y-73940000D01*
X151005250Y-73915047D01*
X150976332Y-73910958D01*
X150945144Y-73929530D01*
X150910664Y-73962887D01*
X150856088Y-74019196D01*
X150916682Y-74069142D01*
X151010302Y-74125513D01*
X151115875Y-74153293D01*
X151226202Y-74151282D01*
X151298657Y-74132862D01*
X151383344Y-74087310D01*
X151451073Y-74015650D01*
X151481843Y-73965066D01*
X151506764Y-73892488D01*
X151519234Y-73800569D01*
X151519330Y-73700948D01*
X151507130Y-73605267D01*
X151482710Y-73525169D01*
X151478864Y-73516956D01*
X151421907Y-73436413D01*
X151344791Y-73377771D01*
X151253610Y-73342247D01*
X151154457Y-73331057D01*
X151053424Y-73345419D01*
X151053424Y-73345419D01*
G37*
X151053424Y-73345419D02*
X150956605Y-73386549D01*
X150926110Y-73406571D01*
X150887135Y-73437340D01*
X150862669Y-73461533D01*
X150858422Y-73469413D01*
X150870416Y-73486899D01*
X150901113Y-73516570D01*
X150925688Y-73537279D01*
X150992954Y-73591336D01*
X151046070Y-73546642D01*
X151087116Y-73517789D01*
X151127137Y-73507829D01*
X151172941Y-73510261D01*
X151245676Y-73528345D01*
X151295744Y-73565881D01*
X151326171Y-73626562D01*
X151339983Y-73714081D01*
X151339987Y-73714136D01*
X151338792Y-73811958D01*
X151320228Y-73883730D01*
X151283196Y-73932595D01*
X151257950Y-73949143D01*
X151190903Y-73969749D01*
X151119291Y-73969762D01*
X151056985Y-73949768D01*
X151042237Y-73940000D01*
X151005250Y-73915047D01*
X150976332Y-73910958D01*
X150945144Y-73929530D01*
X150910664Y-73962887D01*
X150856088Y-74019196D01*
X150916682Y-74069142D01*
X151010302Y-74125513D01*
X151115875Y-74153293D01*
X151226202Y-74151282D01*
X151298657Y-74132862D01*
X151383344Y-74087310D01*
X151451073Y-74015650D01*
X151481843Y-73965066D01*
X151506764Y-73892488D01*
X151519234Y-73800569D01*
X151519330Y-73700948D01*
X151507130Y-73605267D01*
X151482710Y-73525169D01*
X151478864Y-73516956D01*
X151421907Y-73436413D01*
X151344791Y-73377771D01*
X151253610Y-73342247D01*
X151154457Y-73331057D01*
X151053424Y-73345419D01*
G36*
X152679869Y-73598533D02*
X152678290Y-73721089D01*
X152672519Y-73814179D01*
X152661009Y-73881651D01*
X152642210Y-73927355D01*
X152614574Y-73955139D01*
X152576552Y-73968854D01*
X152529474Y-73972358D01*
X152480168Y-73968432D01*
X152442717Y-73954089D01*
X152415572Y-73925478D01*
X152397185Y-73878751D01*
X152386007Y-73810058D01*
X152380489Y-73715550D01*
X152379079Y-73598533D01*
X152379079Y-73338421D01*
X152195264Y-73338421D01*
X152195264Y-74140526D01*
X152287172Y-74140526D01*
X152342578Y-74138281D01*
X152371109Y-74130396D01*
X152379079Y-74115428D01*
X152383880Y-74102097D01*
X152402986Y-74104917D01*
X152441496Y-74123783D01*
X152529761Y-74152887D01*
X152623377Y-74150825D01*
X152713079Y-74119221D01*
X152755796Y-74094257D01*
X152788379Y-74067226D01*
X152812183Y-74033405D01*
X152828561Y-73988068D01*
X152838869Y-73926489D01*
X152844459Y-73843943D01*
X152846688Y-73735705D01*
X152846974Y-73652004D01*
X152846974Y-73338421D01*
X152679869Y-73338421D01*
X152679869Y-73598533D01*
X152679869Y-73598533D01*
G37*
X152679869Y-73598533D02*
X152678290Y-73721089D01*
X152672519Y-73814179D01*
X152661009Y-73881651D01*
X152642210Y-73927355D01*
X152614574Y-73955139D01*
X152576552Y-73968854D01*
X152529474Y-73972358D01*
X152480168Y-73968432D01*
X152442717Y-73954089D01*
X152415572Y-73925478D01*
X152397185Y-73878751D01*
X152386007Y-73810058D01*
X152380489Y-73715550D01*
X152379079Y-73598533D01*
X152379079Y-73338421D01*
X152195264Y-73338421D01*
X152195264Y-74140526D01*
X152287172Y-74140526D01*
X152342578Y-74138281D01*
X152371109Y-74130396D01*
X152379079Y-74115428D01*
X152383880Y-74102097D01*
X152402986Y-74104917D01*
X152441496Y-74123783D01*
X152529761Y-74152887D01*
X152623377Y-74150825D01*
X152713079Y-74119221D01*
X152755796Y-74094257D01*
X152788379Y-74067226D01*
X152812183Y-74033405D01*
X152828561Y-73988068D01*
X152838869Y-73926489D01*
X152844459Y-73843943D01*
X152846688Y-73735705D01*
X152846974Y-73652004D01*
X152846974Y-73338421D01*
X152679869Y-73338421D01*
X152679869Y-73598533D01*
G36*
X153188331Y-73348310D02*
X153103808Y-73394340D01*
X153037679Y-73467006D01*
X153006522Y-73526106D01*
X152993145Y-73578305D01*
X152984478Y-73652719D01*
X152980763Y-73738442D01*
X152982246Y-73824569D01*
X152989169Y-73900193D01*
X152997255Y-73940584D01*
X153024535Y-73995840D01*
X153071780Y-74054530D01*
X153128718Y-74105852D01*
X153185076Y-74139005D01*
X153186450Y-74139531D01*
X153256384Y-74154018D01*
X153339263Y-74154377D01*
X153418023Y-74141188D01*
X153448434Y-74130617D01*
X153526761Y-74086201D01*
X153582857Y-74028007D01*
X153619714Y-73950965D01*
X153640320Y-73850001D01*
X153644982Y-73797116D01*
X153644387Y-73730663D01*
X153465264Y-73730663D01*
X153459230Y-73827630D01*
X153441862Y-73901523D01*
X153414260Y-73948736D01*
X153394596Y-73962237D01*
X153344213Y-73971651D01*
X153284327Y-73968864D01*
X153232551Y-73955316D01*
X153218973Y-73947862D01*
X153183151Y-73904451D01*
X153159507Y-73838014D01*
X153149442Y-73757161D01*
X153154358Y-73670502D01*
X153165345Y-73618349D01*
X153196891Y-73557951D01*
X153246689Y-73520197D01*
X153306663Y-73507143D01*
X153368736Y-73520849D01*
X153416418Y-73554372D01*
X153441475Y-73582031D01*
X153456100Y-73609294D01*
X153463071Y-73646190D01*
X153465167Y-73702750D01*
X153465264Y-73730663D01*
X153644387Y-73730663D01*
X153643718Y-73655994D01*
X153620735Y-73540271D01*
X153576028Y-73449941D01*
X153509595Y-73385000D01*
X153421435Y-73345445D01*
X153402505Y-73340858D01*
X153288734Y-73330090D01*
X153188331Y-73348310D01*
X153188331Y-73348310D01*
G37*
X153188331Y-73348310D02*
X153103808Y-73394340D01*
X153037679Y-73467006D01*
X153006522Y-73526106D01*
X152993145Y-73578305D01*
X152984478Y-73652719D01*
X152980763Y-73738442D01*
X152982246Y-73824569D01*
X152989169Y-73900193D01*
X152997255Y-73940584D01*
X153024535Y-73995840D01*
X153071780Y-74054530D01*
X153128718Y-74105852D01*
X153185076Y-74139005D01*
X153186450Y-74139531D01*
X153256384Y-74154018D01*
X153339263Y-74154377D01*
X153418023Y-74141188D01*
X153448434Y-74130617D01*
X153526761Y-74086201D01*
X153582857Y-74028007D01*
X153619714Y-73950965D01*
X153640320Y-73850001D01*
X153644982Y-73797116D01*
X153644387Y-73730663D01*
X153465264Y-73730663D01*
X153459230Y-73827630D01*
X153441862Y-73901523D01*
X153414260Y-73948736D01*
X153394596Y-73962237D01*
X153344213Y-73971651D01*
X153284327Y-73968864D01*
X153232551Y-73955316D01*
X153218973Y-73947862D01*
X153183151Y-73904451D01*
X153159507Y-73838014D01*
X153149442Y-73757161D01*
X153154358Y-73670502D01*
X153165345Y-73618349D01*
X153196891Y-73557951D01*
X153246689Y-73520197D01*
X153306663Y-73507143D01*
X153368736Y-73520849D01*
X153416418Y-73554372D01*
X153441475Y-73582031D01*
X153456100Y-73609294D01*
X153463071Y-73646190D01*
X153465167Y-73702750D01*
X153465264Y-73730663D01*
X153644387Y-73730663D01*
X153643718Y-73655994D01*
X153620735Y-73540271D01*
X153576028Y-73449941D01*
X153509595Y-73385000D01*
X153421435Y-73345445D01*
X153402505Y-73340858D01*
X153288734Y-73330090D01*
X153188331Y-73348310D01*
G36*
X153981372Y-73335547D02*
X153918092Y-73347548D01*
X153852443Y-73372648D01*
X153845428Y-73375848D01*
X153795644Y-73402026D01*
X153761166Y-73426353D01*
X153750022Y-73441937D01*
X153760634Y-73467353D01*
X153786412Y-73504853D01*
X153797854Y-73518852D01*
X153845008Y-73573954D01*
X153905799Y-73538086D01*
X153963653Y-73514192D01*
X154030500Y-73501420D01*
X154094606Y-73500613D01*
X154144236Y-73512615D01*
X154156146Y-73520105D01*
X154178828Y-73554450D01*
X154181584Y-73594013D01*
X154164612Y-73624920D01*
X154154573Y-73630913D01*
X154124490Y-73638357D01*
X154071611Y-73647106D01*
X154006425Y-73655467D01*
X153994400Y-73656778D01*
X153889703Y-73674888D01*
X153813768Y-73705651D01*
X153763408Y-73751907D01*
X153735436Y-73816497D01*
X153726722Y-73895387D01*
X153738760Y-73985065D01*
X153777849Y-74055486D01*
X153844145Y-74106777D01*
X153937806Y-74139067D01*
X154041777Y-74151807D01*
X154126562Y-74151654D01*
X154195335Y-74140083D01*
X154242303Y-74124109D01*
X154301650Y-74096275D01*
X154356494Y-74063973D01*
X154375987Y-74049755D01*
X154426119Y-74008835D01*
X154305197Y-73886477D01*
X154236457Y-73931967D01*
X154167512Y-73966133D01*
X154093889Y-73984004D01*
X154023117Y-73985889D01*
X153962726Y-73972101D01*
X153920243Y-73942949D01*
X153906526Y-73918352D01*
X153908583Y-73878904D01*
X153942670Y-73848737D01*
X154008692Y-73827906D01*
X154081026Y-73818279D01*
X154192348Y-73799910D01*
X154275048Y-73765254D01*
X154330235Y-73713297D01*
X154359012Y-73643023D01*
X154362999Y-73559707D01*
X154343307Y-73472681D01*
X154298411Y-73406902D01*
X154227909Y-73362068D01*
X154131399Y-73337879D01*
X154059900Y-73333137D01*
X153981372Y-73335547D01*
X153981372Y-73335547D01*
G37*
X153981372Y-73335547D02*
X153918092Y-73347548D01*
X153852443Y-73372648D01*
X153845428Y-73375848D01*
X153795644Y-73402026D01*
X153761166Y-73426353D01*
X153750022Y-73441937D01*
X153760634Y-73467353D01*
X153786412Y-73504853D01*
X153797854Y-73518852D01*
X153845008Y-73573954D01*
X153905799Y-73538086D01*
X153963653Y-73514192D01*
X154030500Y-73501420D01*
X154094606Y-73500613D01*
X154144236Y-73512615D01*
X154156146Y-73520105D01*
X154178828Y-73554450D01*
X154181584Y-73594013D01*
X154164612Y-73624920D01*
X154154573Y-73630913D01*
X154124490Y-73638357D01*
X154071611Y-73647106D01*
X154006425Y-73655467D01*
X153994400Y-73656778D01*
X153889703Y-73674888D01*
X153813768Y-73705651D01*
X153763408Y-73751907D01*
X153735436Y-73816497D01*
X153726722Y-73895387D01*
X153738760Y-73985065D01*
X153777849Y-74055486D01*
X153844145Y-74106777D01*
X153937806Y-74139067D01*
X154041777Y-74151807D01*
X154126562Y-74151654D01*
X154195335Y-74140083D01*
X154242303Y-74124109D01*
X154301650Y-74096275D01*
X154356494Y-74063973D01*
X154375987Y-74049755D01*
X154426119Y-74008835D01*
X154305197Y-73886477D01*
X154236457Y-73931967D01*
X154167512Y-73966133D01*
X154093889Y-73984004D01*
X154023117Y-73985889D01*
X153962726Y-73972101D01*
X153920243Y-73942949D01*
X153906526Y-73918352D01*
X153908583Y-73878904D01*
X153942670Y-73848737D01*
X154008692Y-73827906D01*
X154081026Y-73818279D01*
X154192348Y-73799910D01*
X154275048Y-73765254D01*
X154330235Y-73713297D01*
X154359012Y-73643023D01*
X154362999Y-73559707D01*
X154343307Y-73472681D01*
X154298411Y-73406902D01*
X154227909Y-73362068D01*
X154131399Y-73337879D01*
X154059900Y-73333137D01*
X153981372Y-73335547D01*
G36*
X155802982Y-73357027D02*
X155786330Y-73364866D01*
X155728695Y-73407086D01*
X155674195Y-73468700D01*
X155633501Y-73536543D01*
X155621926Y-73567734D01*
X155611366Y-73623449D01*
X155605069Y-73690781D01*
X155604304Y-73718585D01*
X155604211Y-73806316D01*
X156109150Y-73806316D01*
X156098387Y-73852270D01*
X156071967Y-73906620D01*
X156025778Y-73953591D01*
X155970828Y-73983848D01*
X155935811Y-73990131D01*
X155888323Y-73982506D01*
X155831665Y-73963383D01*
X155812418Y-73954584D01*
X155741241Y-73919036D01*
X155680498Y-73965367D01*
X155645448Y-73996703D01*
X155626798Y-74022567D01*
X155625853Y-74030158D01*
X155642515Y-74048556D01*
X155679030Y-74076515D01*
X155712172Y-74098327D01*
X155801607Y-74137537D01*
X155901871Y-74155285D01*
X156001246Y-74150670D01*
X156080461Y-74126551D01*
X156162120Y-74074884D01*
X156220151Y-74006856D01*
X156256454Y-73918843D01*
X156272928Y-73807216D01*
X156274389Y-73756138D01*
X156268543Y-73639091D01*
X156267825Y-73635686D01*
X156100511Y-73635686D01*
X156095903Y-73646662D01*
X156076964Y-73652715D01*
X156037902Y-73655310D01*
X155972923Y-73655910D01*
X155947903Y-73655921D01*
X155871779Y-73655014D01*
X155823504Y-73651720D01*
X155797540Y-73645181D01*
X155788352Y-73634537D01*
X155788027Y-73631119D01*
X155798513Y-73603956D01*
X155824758Y-73565903D01*
X155836041Y-73552579D01*
X155877928Y-73514896D01*
X155921591Y-73500080D01*
X155945115Y-73498842D01*
X156008757Y-73514329D01*
X156062127Y-73555930D01*
X156095981Y-73616353D01*
X156096581Y-73618322D01*
X156100511Y-73635686D01*
X156267825Y-73635686D01*
X156249101Y-73546928D01*
X156214078Y-73473190D01*
X156171244Y-73420848D01*
X156092052Y-73364092D01*
X155998960Y-73333762D01*
X155899945Y-73331021D01*
X155802982Y-73357027D01*
X155802982Y-73357027D01*
G37*
X155802982Y-73357027D02*
X155786330Y-73364866D01*
X155728695Y-73407086D01*
X155674195Y-73468700D01*
X155633501Y-73536543D01*
X155621926Y-73567734D01*
X155611366Y-73623449D01*
X155605069Y-73690781D01*
X155604304Y-73718585D01*
X155604211Y-73806316D01*
X156109150Y-73806316D01*
X156098387Y-73852270D01*
X156071967Y-73906620D01*
X156025778Y-73953591D01*
X155970828Y-73983848D01*
X155935811Y-73990131D01*
X155888323Y-73982506D01*
X155831665Y-73963383D01*
X155812418Y-73954584D01*
X155741241Y-73919036D01*
X155680498Y-73965367D01*
X155645448Y-73996703D01*
X155626798Y-74022567D01*
X155625853Y-74030158D01*
X155642515Y-74048556D01*
X155679030Y-74076515D01*
X155712172Y-74098327D01*
X155801607Y-74137537D01*
X155901871Y-74155285D01*
X156001246Y-74150670D01*
X156080461Y-74126551D01*
X156162120Y-74074884D01*
X156220151Y-74006856D01*
X156256454Y-73918843D01*
X156272928Y-73807216D01*
X156274389Y-73756138D01*
X156268543Y-73639091D01*
X156267825Y-73635686D01*
X156100511Y-73635686D01*
X156095903Y-73646662D01*
X156076964Y-73652715D01*
X156037902Y-73655310D01*
X155972923Y-73655910D01*
X155947903Y-73655921D01*
X155871779Y-73655014D01*
X155823504Y-73651720D01*
X155797540Y-73645181D01*
X155788352Y-73634537D01*
X155788027Y-73631119D01*
X155798513Y-73603956D01*
X155824758Y-73565903D01*
X155836041Y-73552579D01*
X155877928Y-73514896D01*
X155921591Y-73500080D01*
X155945115Y-73498842D01*
X156008757Y-73514329D01*
X156062127Y-73555930D01*
X156095981Y-73616353D01*
X156096581Y-73618322D01*
X156100511Y-73635686D01*
X156267825Y-73635686D01*
X156249101Y-73546928D01*
X156214078Y-73473190D01*
X156171244Y-73420848D01*
X156092052Y-73364092D01*
X155998960Y-73333762D01*
X155899945Y-73331021D01*
X155802982Y-73357027D01*
G36*
X157373216Y-73347104D02*
X157285795Y-73385754D01*
X157219430Y-73450290D01*
X157174024Y-73540812D01*
X157149482Y-73657418D01*
X157147723Y-73675624D01*
X157146344Y-73803984D01*
X157164216Y-73916496D01*
X157200250Y-74007688D01*
X157219545Y-74037022D01*
X157286755Y-74099106D01*
X157372350Y-74139316D01*
X157468110Y-74156003D01*
X157565813Y-74147517D01*
X157640083Y-74121380D01*
X157703953Y-74077335D01*
X157756154Y-74019587D01*
X157757057Y-74018236D01*
X157778256Y-73982593D01*
X157792033Y-73946752D01*
X157800376Y-73901519D01*
X157805273Y-73837701D01*
X157807431Y-73785368D01*
X157808329Y-73737910D01*
X157641257Y-73737910D01*
X157639624Y-73785154D01*
X157633696Y-73848046D01*
X157623239Y-73888407D01*
X157604381Y-73917122D01*
X157586719Y-73933896D01*
X157524106Y-73969016D01*
X157458592Y-73973710D01*
X157397579Y-73948440D01*
X157367072Y-73920124D01*
X157345089Y-73891589D01*
X157332231Y-73864284D01*
X157326588Y-73828750D01*
X157326249Y-73775524D01*
X157327988Y-73726506D01*
X157331729Y-73656482D01*
X157337659Y-73611064D01*
X157348347Y-73581440D01*
X157366361Y-73558797D01*
X157380637Y-73545855D01*
X157440349Y-73511860D01*
X157504766Y-73510165D01*
X157558781Y-73530301D01*
X157604860Y-73572352D01*
X157632311Y-73641428D01*
X157641257Y-73737910D01*
X157808329Y-73737910D01*
X157809401Y-73681299D01*
X157806036Y-73603468D01*
X157795955Y-73544930D01*
X157777774Y-73498737D01*
X157750110Y-73457942D01*
X157739854Y-73445828D01*
X157675722Y-73385474D01*
X157606934Y-73350220D01*
X157522811Y-73335450D01*
X157481791Y-73334243D01*
X157373216Y-73347104D01*
X157373216Y-73347104D01*
G37*
X157373216Y-73347104D02*
X157285795Y-73385754D01*
X157219430Y-73450290D01*
X157174024Y-73540812D01*
X157149482Y-73657418D01*
X157147723Y-73675624D01*
X157146344Y-73803984D01*
X157164216Y-73916496D01*
X157200250Y-74007688D01*
X157219545Y-74037022D01*
X157286755Y-74099106D01*
X157372350Y-74139316D01*
X157468110Y-74156003D01*
X157565813Y-74147517D01*
X157640083Y-74121380D01*
X157703953Y-74077335D01*
X157756154Y-74019587D01*
X157757057Y-74018236D01*
X157778256Y-73982593D01*
X157792033Y-73946752D01*
X157800376Y-73901519D01*
X157805273Y-73837701D01*
X157807431Y-73785368D01*
X157808329Y-73737910D01*
X157641257Y-73737910D01*
X157639624Y-73785154D01*
X157633696Y-73848046D01*
X157623239Y-73888407D01*
X157604381Y-73917122D01*
X157586719Y-73933896D01*
X157524106Y-73969016D01*
X157458592Y-73973710D01*
X157397579Y-73948440D01*
X157367072Y-73920124D01*
X157345089Y-73891589D01*
X157332231Y-73864284D01*
X157326588Y-73828750D01*
X157326249Y-73775524D01*
X157327988Y-73726506D01*
X157331729Y-73656482D01*
X157337659Y-73611064D01*
X157348347Y-73581440D01*
X157366361Y-73558797D01*
X157380637Y-73545855D01*
X157440349Y-73511860D01*
X157504766Y-73510165D01*
X157558781Y-73530301D01*
X157604860Y-73572352D01*
X157632311Y-73641428D01*
X157641257Y-73737910D01*
X157808329Y-73737910D01*
X157809401Y-73681299D01*
X157806036Y-73603468D01*
X157795955Y-73544930D01*
X157777774Y-73498737D01*
X157750110Y-73457942D01*
X157739854Y-73445828D01*
X157675722Y-73385474D01*
X157606934Y-73350220D01*
X157522811Y-73335450D01*
X157481791Y-73334243D01*
X157373216Y-73347104D01*
G36*
X151298807Y-74596078D02*
X151218932Y-74616845D01*
X151152038Y-74659705D01*
X151119649Y-74691723D01*
X151066555Y-74767413D01*
X151036127Y-74855216D01*
X151025673Y-74963150D01*
X151025620Y-74971875D01*
X151025527Y-75059605D01*
X151530466Y-75059605D01*
X151519702Y-75105559D01*
X151500268Y-75147178D01*
X151466255Y-75190544D01*
X151459140Y-75197467D01*
X151397997Y-75234935D01*
X151328271Y-75241289D01*
X151248013Y-75216638D01*
X151234408Y-75210000D01*
X151192681Y-75189819D01*
X151164732Y-75178321D01*
X151159855Y-75177258D01*
X151142832Y-75187583D01*
X151110367Y-75212845D01*
X151093886Y-75226650D01*
X151059736Y-75258361D01*
X151048522Y-75279299D01*
X151056305Y-75298560D01*
X151060465Y-75303827D01*
X151088643Y-75326878D01*
X151135138Y-75354892D01*
X151167566Y-75371246D01*
X151259615Y-75400059D01*
X151361524Y-75409395D01*
X151458037Y-75398332D01*
X151485066Y-75390412D01*
X151568724Y-75345581D01*
X151630734Y-75276598D01*
X151671455Y-75182794D01*
X151691245Y-75063498D01*
X151693418Y-75001118D01*
X151687074Y-74910298D01*
X151526843Y-74910298D01*
X151511345Y-74917012D01*
X151469688Y-74922280D01*
X151409124Y-74925389D01*
X151368093Y-74925921D01*
X151294289Y-74925408D01*
X151247707Y-74923006D01*
X151222152Y-74917422D01*
X151211431Y-74907361D01*
X151209343Y-74892763D01*
X151223669Y-74847796D01*
X151259738Y-74803353D01*
X151307185Y-74769242D01*
X151354651Y-74755288D01*
X151419121Y-74767666D01*
X151474930Y-74803452D01*
X151513626Y-74855033D01*
X151526843Y-74910298D01*
X151687074Y-74910298D01*
X151684179Y-74868866D01*
X151655664Y-74763498D01*
X151607271Y-74684178D01*
X151538396Y-74630071D01*
X151448435Y-74600343D01*
X151399700Y-74594618D01*
X151298807Y-74596078D01*
X151298807Y-74596078D01*
G37*
X151298807Y-74596078D02*
X151218932Y-74616845D01*
X151152038Y-74659705D01*
X151119649Y-74691723D01*
X151066555Y-74767413D01*
X151036127Y-74855216D01*
X151025673Y-74963150D01*
X151025620Y-74971875D01*
X151025527Y-75059605D01*
X151530466Y-75059605D01*
X151519702Y-75105559D01*
X151500268Y-75147178D01*
X151466255Y-75190544D01*
X151459140Y-75197467D01*
X151397997Y-75234935D01*
X151328271Y-75241289D01*
X151248013Y-75216638D01*
X151234408Y-75210000D01*
X151192681Y-75189819D01*
X151164732Y-75178321D01*
X151159855Y-75177258D01*
X151142832Y-75187583D01*
X151110367Y-75212845D01*
X151093886Y-75226650D01*
X151059736Y-75258361D01*
X151048522Y-75279299D01*
X151056305Y-75298560D01*
X151060465Y-75303827D01*
X151088643Y-75326878D01*
X151135138Y-75354892D01*
X151167566Y-75371246D01*
X151259615Y-75400059D01*
X151361524Y-75409395D01*
X151458037Y-75398332D01*
X151485066Y-75390412D01*
X151568724Y-75345581D01*
X151630734Y-75276598D01*
X151671455Y-75182794D01*
X151691245Y-75063498D01*
X151693418Y-75001118D01*
X151687074Y-74910298D01*
X151526843Y-74910298D01*
X151511345Y-74917012D01*
X151469688Y-74922280D01*
X151409124Y-74925389D01*
X151368093Y-74925921D01*
X151294289Y-74925408D01*
X151247707Y-74923006D01*
X151222152Y-74917422D01*
X151211431Y-74907361D01*
X151209343Y-74892763D01*
X151223669Y-74847796D01*
X151259738Y-74803353D01*
X151307185Y-74769242D01*
X151354651Y-74755288D01*
X151419121Y-74767666D01*
X151474930Y-74803452D01*
X151513626Y-74855033D01*
X151526843Y-74910298D01*
X151687074Y-74910298D01*
X151684179Y-74868866D01*
X151655664Y-74763498D01*
X151607271Y-74684178D01*
X151538396Y-74630071D01*
X151448435Y-74600343D01*
X151399700Y-74594618D01*
X151298807Y-74596078D01*
G36*
X151826833Y-74591447D02*
X151762592Y-74604112D01*
X151726020Y-74622864D01*
X151687547Y-74654017D01*
X151742283Y-74723127D01*
X151776031Y-74764979D01*
X151798947Y-74785398D01*
X151821721Y-74788517D01*
X151855044Y-74778472D01*
X151870686Y-74772789D01*
X151934458Y-74764404D01*
X151992860Y-74782378D01*
X152035736Y-74822982D01*
X152042701Y-74835929D01*
X152050287Y-74870224D01*
X152056141Y-74933427D01*
X152059989Y-75021060D01*
X152061557Y-75128640D01*
X152061579Y-75143944D01*
X152061579Y-75410526D01*
X152245395Y-75410526D01*
X152245395Y-74591710D01*
X152153487Y-74591710D01*
X152100493Y-74593094D01*
X152072885Y-74599252D01*
X152062676Y-74613194D01*
X152061579Y-74626344D01*
X152061579Y-74660978D01*
X152017550Y-74626344D01*
X151967063Y-74602716D01*
X151899240Y-74591033D01*
X151826833Y-74591447D01*
X151826833Y-74591447D01*
G37*
X151826833Y-74591447D02*
X151762592Y-74604112D01*
X151726020Y-74622864D01*
X151687547Y-74654017D01*
X151742283Y-74723127D01*
X151776031Y-74764979D01*
X151798947Y-74785398D01*
X151821721Y-74788517D01*
X151855044Y-74778472D01*
X151870686Y-74772789D01*
X151934458Y-74764404D01*
X151992860Y-74782378D01*
X152035736Y-74822982D01*
X152042701Y-74835929D01*
X152050287Y-74870224D01*
X152056141Y-74933427D01*
X152059989Y-75021060D01*
X152061557Y-75128640D01*
X152061579Y-75143944D01*
X152061579Y-75410526D01*
X152245395Y-75410526D01*
X152245395Y-74591710D01*
X152153487Y-74591710D01*
X152100493Y-74593094D01*
X152072885Y-74599252D01*
X152062676Y-74613194D01*
X152061579Y-74626344D01*
X152061579Y-74660978D01*
X152017550Y-74626344D01*
X151967063Y-74602716D01*
X151899240Y-74591033D01*
X151826833Y-74591447D01*
G36*
X152620008Y-74596673D02*
X152549573Y-74613780D01*
X152529213Y-74622844D01*
X152489747Y-74646583D01*
X152459459Y-74673321D01*
X152437048Y-74707699D01*
X152421214Y-74754360D01*
X152410657Y-74817946D01*
X152404076Y-74903099D01*
X152400172Y-75014462D01*
X152398690Y-75088849D01*
X152393235Y-75410526D01*
X152486420Y-75410526D01*
X152542953Y-75408156D01*
X152572078Y-75400055D01*
X152579606Y-75386451D01*
X152583580Y-75371741D01*
X152601348Y-75374554D01*
X152625560Y-75386348D01*
X152686172Y-75404427D01*
X152764071Y-75409299D01*
X152846005Y-75401330D01*
X152918719Y-75380889D01*
X152925241Y-75378051D01*
X152991698Y-75331365D01*
X153035509Y-75266464D01*
X153055668Y-75190600D01*
X153054128Y-75163344D01*
X152889655Y-75163344D01*
X152875163Y-75200024D01*
X152832195Y-75226309D01*
X152762871Y-75240417D01*
X152725823Y-75242290D01*
X152664081Y-75237494D01*
X152623040Y-75218858D01*
X152613027Y-75210000D01*
X152585900Y-75161806D01*
X152579606Y-75118092D01*
X152579606Y-75059605D01*
X152661070Y-75059605D01*
X152755766Y-75064432D01*
X152822187Y-75079613D01*
X152864154Y-75106200D01*
X152873551Y-75118052D01*
X152889655Y-75163344D01*
X153054128Y-75163344D01*
X153051171Y-75111026D01*
X153021015Y-75034995D01*
X152979869Y-74983612D01*
X152954948Y-74961397D01*
X152930552Y-74946798D01*
X152898809Y-74937897D01*
X152851848Y-74932775D01*
X152781796Y-74929515D01*
X152754010Y-74928577D01*
X152579606Y-74922879D01*
X152579862Y-74870091D01*
X152586616Y-74814603D01*
X152611036Y-74781052D01*
X152660370Y-74759618D01*
X152661694Y-74759236D01*
X152731640Y-74750808D01*
X152800086Y-74761816D01*
X152850953Y-74788585D01*
X152871363Y-74801803D01*
X152893346Y-74799974D01*
X152927174Y-74780824D01*
X152947039Y-74767308D01*
X152985894Y-74738432D01*
X153009962Y-74716786D01*
X153013824Y-74710589D01*
X152997921Y-74678519D01*
X152950935Y-74640219D01*
X152930527Y-74627297D01*
X152871857Y-74605041D01*
X152792788Y-74592432D01*
X152704959Y-74589600D01*
X152620008Y-74596673D01*
X152620008Y-74596673D01*
G37*
X152620008Y-74596673D02*
X152549573Y-74613780D01*
X152529213Y-74622844D01*
X152489747Y-74646583D01*
X152459459Y-74673321D01*
X152437048Y-74707699D01*
X152421214Y-74754360D01*
X152410657Y-74817946D01*
X152404076Y-74903099D01*
X152400172Y-75014462D01*
X152398690Y-75088849D01*
X152393235Y-75410526D01*
X152486420Y-75410526D01*
X152542953Y-75408156D01*
X152572078Y-75400055D01*
X152579606Y-75386451D01*
X152583580Y-75371741D01*
X152601348Y-75374554D01*
X152625560Y-75386348D01*
X152686172Y-75404427D01*
X152764071Y-75409299D01*
X152846005Y-75401330D01*
X152918719Y-75380889D01*
X152925241Y-75378051D01*
X152991698Y-75331365D01*
X153035509Y-75266464D01*
X153055668Y-75190600D01*
X153054128Y-75163344D01*
X152889655Y-75163344D01*
X152875163Y-75200024D01*
X152832195Y-75226309D01*
X152762871Y-75240417D01*
X152725823Y-75242290D01*
X152664081Y-75237494D01*
X152623040Y-75218858D01*
X152613027Y-75210000D01*
X152585900Y-75161806D01*
X152579606Y-75118092D01*
X152579606Y-75059605D01*
X152661070Y-75059605D01*
X152755766Y-75064432D01*
X152822187Y-75079613D01*
X152864154Y-75106200D01*
X152873551Y-75118052D01*
X152889655Y-75163344D01*
X153054128Y-75163344D01*
X153051171Y-75111026D01*
X153021015Y-75034995D01*
X152979869Y-74983612D01*
X152954948Y-74961397D01*
X152930552Y-74946798D01*
X152898809Y-74937897D01*
X152851848Y-74932775D01*
X152781796Y-74929515D01*
X152754010Y-74928577D01*
X152579606Y-74922879D01*
X152579862Y-74870091D01*
X152586616Y-74814603D01*
X152611036Y-74781052D01*
X152660370Y-74759618D01*
X152661694Y-74759236D01*
X152731640Y-74750808D01*
X152800086Y-74761816D01*
X152850953Y-74788585D01*
X152871363Y-74801803D01*
X152893346Y-74799974D01*
X152927174Y-74780824D01*
X152947039Y-74767308D01*
X152985894Y-74738432D01*
X153009962Y-74716786D01*
X153013824Y-74710589D01*
X152997921Y-74678519D01*
X152950935Y-74640219D01*
X152930527Y-74627297D01*
X152871857Y-74605041D01*
X152792788Y-74592432D01*
X152704959Y-74589600D01*
X152620008Y-74596673D01*
G36*
X153625870Y-74595104D02*
X153559780Y-74600066D01*
X153473374Y-74859079D01*
X153386969Y-75118092D01*
X153359876Y-75026184D01*
X153343572Y-74969384D01*
X153322125Y-74892625D01*
X153298965Y-74808251D01*
X153286720Y-74762993D01*
X153240656Y-74591710D01*
X153050613Y-74591710D01*
X153107418Y-74771349D01*
X153135393Y-74859704D01*
X153169187Y-74966281D01*
X153204480Y-75077454D01*
X153235987Y-75176579D01*
X153307750Y-75402171D01*
X153462714Y-75412253D01*
X153504730Y-75273528D01*
X153530641Y-75187351D01*
X153558917Y-75092347D01*
X153583631Y-75008441D01*
X153584606Y-75005102D01*
X153603065Y-74948248D01*
X153619351Y-74909456D01*
X153630758Y-74894787D01*
X153633102Y-74896483D01*
X153641329Y-74919225D01*
X153656962Y-74967940D01*
X153678096Y-75036502D01*
X153702830Y-75118785D01*
X153716213Y-75164046D01*
X153788689Y-75410526D01*
X153942505Y-75410526D01*
X154065469Y-75022006D01*
X154100012Y-74913022D01*
X154131479Y-74814048D01*
X154158384Y-74729736D01*
X154179241Y-74664734D01*
X154192562Y-74623692D01*
X154196612Y-74611701D01*
X154193406Y-74599423D01*
X154168235Y-74594046D01*
X154115854Y-74594584D01*
X154107655Y-74594990D01*
X154010518Y-74600066D01*
X153946900Y-74834013D01*
X153923516Y-74919333D01*
X153902619Y-74994335D01*
X153886049Y-75052507D01*
X153875646Y-75087337D01*
X153873724Y-75093016D01*
X153865759Y-75086486D01*
X153849696Y-75052654D01*
X153827379Y-74996127D01*
X153800655Y-74921510D01*
X153778063Y-74854107D01*
X153691959Y-74590143D01*
X153625870Y-74595104D01*
X153625870Y-74595104D01*
G37*
X153625870Y-74595104D02*
X153559780Y-74600066D01*
X153473374Y-74859079D01*
X153386969Y-75118092D01*
X153359876Y-75026184D01*
X153343572Y-74969384D01*
X153322125Y-74892625D01*
X153298965Y-74808251D01*
X153286720Y-74762993D01*
X153240656Y-74591710D01*
X153050613Y-74591710D01*
X153107418Y-74771349D01*
X153135393Y-74859704D01*
X153169187Y-74966281D01*
X153204480Y-75077454D01*
X153235987Y-75176579D01*
X153307750Y-75402171D01*
X153462714Y-75412253D01*
X153504730Y-75273528D01*
X153530641Y-75187351D01*
X153558917Y-75092347D01*
X153583631Y-75008441D01*
X153584606Y-75005102D01*
X153603065Y-74948248D01*
X153619351Y-74909456D01*
X153630758Y-74894787D01*
X153633102Y-74896483D01*
X153641329Y-74919225D01*
X153656962Y-74967940D01*
X153678096Y-75036502D01*
X153702830Y-75118785D01*
X153716213Y-75164046D01*
X153788689Y-75410526D01*
X153942505Y-75410526D01*
X154065469Y-75022006D01*
X154100012Y-74913022D01*
X154131479Y-74814048D01*
X154158384Y-74729736D01*
X154179241Y-74664734D01*
X154192562Y-74623692D01*
X154196612Y-74611701D01*
X154193406Y-74599423D01*
X154168235Y-74594046D01*
X154115854Y-74594584D01*
X154107655Y-74594990D01*
X154010518Y-74600066D01*
X153946900Y-74834013D01*
X153923516Y-74919333D01*
X153902619Y-74994335D01*
X153886049Y-75052507D01*
X153875646Y-75087337D01*
X153873724Y-75093016D01*
X153865759Y-75086486D01*
X153849696Y-75052654D01*
X153827379Y-74996127D01*
X153800655Y-74921510D01*
X153778063Y-74854107D01*
X153691959Y-74590143D01*
X153625870Y-74595104D01*
G36*
X154267369Y-75410526D02*
X154359277Y-75410526D01*
X154412623Y-75408962D01*
X154440407Y-75402485D01*
X154450410Y-75388418D01*
X154451185Y-75378906D01*
X154452872Y-75359832D01*
X154463510Y-75356174D01*
X154491465Y-75367932D01*
X154513205Y-75378906D01*
X154596668Y-75404911D01*
X154687396Y-75406416D01*
X154761158Y-75387021D01*
X154829846Y-75340165D01*
X154882206Y-75271004D01*
X154910878Y-75189427D01*
X154911608Y-75184866D01*
X154915868Y-75135101D01*
X154917986Y-75063659D01*
X154917816Y-75009626D01*
X154735280Y-75009626D01*
X154731051Y-75081441D01*
X154721432Y-75140634D01*
X154708410Y-75174060D01*
X154659144Y-75219740D01*
X154600650Y-75236115D01*
X154540329Y-75222873D01*
X154488783Y-75183373D01*
X154469262Y-75156807D01*
X154457848Y-75125106D01*
X154452502Y-75078832D01*
X154451185Y-75009328D01*
X154453542Y-74940499D01*
X154459767Y-74880026D01*
X154468592Y-74839556D01*
X154470063Y-74835929D01*
X154505653Y-74792802D01*
X154557600Y-74769124D01*
X154615722Y-74765301D01*
X154669840Y-74781738D01*
X154709774Y-74818840D01*
X154713917Y-74826222D01*
X154726884Y-74871239D01*
X154733948Y-74935967D01*
X154735280Y-75009626D01*
X154917816Y-75009626D01*
X154917729Y-74982230D01*
X154916528Y-74938405D01*
X154908355Y-74829988D01*
X154891370Y-74748588D01*
X154863113Y-74688412D01*
X154821128Y-74643666D01*
X154780368Y-74617400D01*
X154723419Y-74598935D01*
X154652589Y-74592602D01*
X154580059Y-74597760D01*
X154518014Y-74613769D01*
X154485232Y-74632920D01*
X154451185Y-74663732D01*
X154451185Y-74274210D01*
X154267369Y-74274210D01*
X154267369Y-75410526D01*
X154267369Y-75410526D01*
G37*
X154267369Y-75410526D02*
X154359277Y-75410526D01*
X154412623Y-75408962D01*
X154440407Y-75402485D01*
X154450410Y-75388418D01*
X154451185Y-75378906D01*
X154452872Y-75359832D01*
X154463510Y-75356174D01*
X154491465Y-75367932D01*
X154513205Y-75378906D01*
X154596668Y-75404911D01*
X154687396Y-75406416D01*
X154761158Y-75387021D01*
X154829846Y-75340165D01*
X154882206Y-75271004D01*
X154910878Y-75189427D01*
X154911608Y-75184866D01*
X154915868Y-75135101D01*
X154917986Y-75063659D01*
X154917816Y-75009626D01*
X154735280Y-75009626D01*
X154731051Y-75081441D01*
X154721432Y-75140634D01*
X154708410Y-75174060D01*
X154659144Y-75219740D01*
X154600650Y-75236115D01*
X154540329Y-75222873D01*
X154488783Y-75183373D01*
X154469262Y-75156807D01*
X154457848Y-75125106D01*
X154452502Y-75078832D01*
X154451185Y-75009328D01*
X154453542Y-74940499D01*
X154459767Y-74880026D01*
X154468592Y-74839556D01*
X154470063Y-74835929D01*
X154505653Y-74792802D01*
X154557600Y-74769124D01*
X154615722Y-74765301D01*
X154669840Y-74781738D01*
X154709774Y-74818840D01*
X154713917Y-74826222D01*
X154726884Y-74871239D01*
X154733948Y-74935967D01*
X154735280Y-75009626D01*
X154917816Y-75009626D01*
X154917729Y-74982230D01*
X154916528Y-74938405D01*
X154908355Y-74829988D01*
X154891370Y-74748588D01*
X154863113Y-74688412D01*
X154821128Y-74643666D01*
X154780368Y-74617400D01*
X154723419Y-74598935D01*
X154652589Y-74592602D01*
X154580059Y-74597760D01*
X154518014Y-74613769D01*
X154485232Y-74632920D01*
X154451185Y-74663732D01*
X154451185Y-74274210D01*
X154267369Y-74274210D01*
X154267369Y-75410526D01*
G36*
X155320119Y-74593486D02*
X155295112Y-74600982D01*
X155287050Y-74617451D01*
X155286711Y-74624886D01*
X155285264Y-74645594D01*
X155275302Y-74648845D01*
X155248388Y-74634648D01*
X155232402Y-74624948D01*
X155181967Y-74604175D01*
X155121728Y-74593904D01*
X155058566Y-74593114D01*
X154999363Y-74600786D01*
X154950998Y-74615898D01*
X154920354Y-74637432D01*
X154914311Y-74664366D01*
X154917361Y-74671660D01*
X154939594Y-74701937D01*
X154974070Y-74739175D01*
X154980306Y-74745195D01*
X155013167Y-74772875D01*
X155041520Y-74781818D01*
X155081173Y-74775576D01*
X155097058Y-74771429D01*
X155146491Y-74761467D01*
X155181248Y-74765947D01*
X155210600Y-74781746D01*
X155237487Y-74802949D01*
X155257290Y-74829614D01*
X155271052Y-74866827D01*
X155279816Y-74919673D01*
X155284626Y-74993237D01*
X155286526Y-75092605D01*
X155286711Y-75152601D01*
X155286711Y-75410526D01*
X155453816Y-75410526D01*
X155453816Y-74591710D01*
X155370264Y-74591710D01*
X155320119Y-74593486D01*
X155320119Y-74593486D01*
G37*
X155320119Y-74593486D02*
X155295112Y-74600982D01*
X155287050Y-74617451D01*
X155286711Y-74624886D01*
X155285264Y-74645594D01*
X155275302Y-74648845D01*
X155248388Y-74634648D01*
X155232402Y-74624948D01*
X155181967Y-74604175D01*
X155121728Y-74593904D01*
X155058566Y-74593114D01*
X154999363Y-74600786D01*
X154950998Y-74615898D01*
X154920354Y-74637432D01*
X154914311Y-74664366D01*
X154917361Y-74671660D01*
X154939594Y-74701937D01*
X154974070Y-74739175D01*
X154980306Y-74745195D01*
X155013167Y-74772875D01*
X155041520Y-74781818D01*
X155081173Y-74775576D01*
X155097058Y-74771429D01*
X155146491Y-74761467D01*
X155181248Y-74765947D01*
X155210600Y-74781746D01*
X155237487Y-74802949D01*
X155257290Y-74829614D01*
X155271052Y-74866827D01*
X155279816Y-74919673D01*
X155284626Y-74993237D01*
X155286526Y-75092605D01*
X155286711Y-75152601D01*
X155286711Y-75410526D01*
X155453816Y-75410526D01*
X155453816Y-74591710D01*
X155370264Y-74591710D01*
X155320119Y-74593486D01*
G36*
X155839543Y-74598184D02*
X155760930Y-74619160D01*
X155701084Y-74657180D01*
X155658853Y-74706978D01*
X155645725Y-74728230D01*
X155636032Y-74750492D01*
X155629256Y-74778970D01*
X155624877Y-74818871D01*
X155622376Y-74875401D01*
X155621232Y-74953767D01*
X155620928Y-75059176D01*
X155620922Y-75087142D01*
X155620922Y-75410526D01*
X155701132Y-75410526D01*
X155752294Y-75406943D01*
X155790123Y-75397866D01*
X155799601Y-75392268D01*
X155825512Y-75382606D01*
X155851976Y-75392268D01*
X155895548Y-75404330D01*
X155958840Y-75409185D01*
X156028990Y-75407078D01*
X156093140Y-75398256D01*
X156130593Y-75386937D01*
X156203067Y-75340412D01*
X156248360Y-75275846D01*
X156268722Y-75190000D01*
X156268912Y-75187796D01*
X156267125Y-75149713D01*
X156105527Y-75149713D01*
X156091399Y-75193030D01*
X156068388Y-75217408D01*
X156022196Y-75235845D01*
X155961225Y-75243205D01*
X155899051Y-75239583D01*
X155849249Y-75225074D01*
X155835297Y-75215765D01*
X155810915Y-75172753D01*
X155804737Y-75123857D01*
X155804737Y-75059605D01*
X155897182Y-75059605D01*
X155985005Y-75066366D01*
X156051582Y-75085520D01*
X156092998Y-75115376D01*
X156105527Y-75149713D01*
X156267125Y-75149713D01*
X156264510Y-75094004D01*
X156233576Y-75019847D01*
X156175419Y-74963767D01*
X156167380Y-74958665D01*
X156132837Y-74942055D01*
X156090082Y-74931996D01*
X156030314Y-74927107D01*
X155959310Y-74925983D01*
X155804737Y-74925921D01*
X155804737Y-74861125D01*
X155811294Y-74810850D01*
X155828025Y-74777169D01*
X155829984Y-74775376D01*
X155867217Y-74760642D01*
X155923420Y-74754931D01*
X155985533Y-74757737D01*
X156040490Y-74768556D01*
X156073101Y-74784782D01*
X156090772Y-74797780D01*
X156109431Y-74800262D01*
X156135181Y-74789613D01*
X156174127Y-74763218D01*
X156232370Y-74718465D01*
X156237716Y-74714273D01*
X156234977Y-74698760D01*
X156212124Y-74672960D01*
X156177391Y-74644289D01*
X156139010Y-74620166D01*
X156126952Y-74614470D01*
X156082966Y-74603103D01*
X156018513Y-74594995D01*
X155946503Y-74591743D01*
X155943136Y-74591736D01*
X155839543Y-74598184D01*
X155839543Y-74598184D01*
G37*
X155839543Y-74598184D02*
X155760930Y-74619160D01*
X155701084Y-74657180D01*
X155658853Y-74706978D01*
X155645725Y-74728230D01*
X155636032Y-74750492D01*
X155629256Y-74778970D01*
X155624877Y-74818871D01*
X155622376Y-74875401D01*
X155621232Y-74953767D01*
X155620928Y-75059176D01*
X155620922Y-75087142D01*
X155620922Y-75410526D01*
X155701132Y-75410526D01*
X155752294Y-75406943D01*
X155790123Y-75397866D01*
X155799601Y-75392268D01*
X155825512Y-75382606D01*
X155851976Y-75392268D01*
X155895548Y-75404330D01*
X155958840Y-75409185D01*
X156028990Y-75407078D01*
X156093140Y-75398256D01*
X156130593Y-75386937D01*
X156203067Y-75340412D01*
X156248360Y-75275846D01*
X156268722Y-75190000D01*
X156268912Y-75187796D01*
X156267125Y-75149713D01*
X156105527Y-75149713D01*
X156091399Y-75193030D01*
X156068388Y-75217408D01*
X156022196Y-75235845D01*
X155961225Y-75243205D01*
X155899051Y-75239583D01*
X155849249Y-75225074D01*
X155835297Y-75215765D01*
X155810915Y-75172753D01*
X155804737Y-75123857D01*
X155804737Y-75059605D01*
X155897182Y-75059605D01*
X155985005Y-75066366D01*
X156051582Y-75085520D01*
X156092998Y-75115376D01*
X156105527Y-75149713D01*
X156267125Y-75149713D01*
X156264510Y-75094004D01*
X156233576Y-75019847D01*
X156175419Y-74963767D01*
X156167380Y-74958665D01*
X156132837Y-74942055D01*
X156090082Y-74931996D01*
X156030314Y-74927107D01*
X155959310Y-74925983D01*
X155804737Y-74925921D01*
X155804737Y-74861125D01*
X155811294Y-74810850D01*
X155828025Y-74777169D01*
X155829984Y-74775376D01*
X155867217Y-74760642D01*
X155923420Y-74754931D01*
X155985533Y-74757737D01*
X156040490Y-74768556D01*
X156073101Y-74784782D01*
X156090772Y-74797780D01*
X156109431Y-74800262D01*
X156135181Y-74789613D01*
X156174127Y-74763218D01*
X156232370Y-74718465D01*
X156237716Y-74714273D01*
X156234977Y-74698760D01*
X156212124Y-74672960D01*
X156177391Y-74644289D01*
X156139010Y-74620166D01*
X156126952Y-74614470D01*
X156082966Y-74603103D01*
X156018513Y-74594995D01*
X155946503Y-74591743D01*
X155943136Y-74591736D01*
X155839543Y-74598184D01*
G36*
X156536640Y-73352468D02*
X156501408Y-73369874D01*
X156457960Y-73400206D01*
X156426294Y-73433283D01*
X156404606Y-73474817D01*
X156391097Y-73530522D01*
X156383962Y-73606111D01*
X156381400Y-73707296D01*
X156381250Y-73750797D01*
X156381688Y-73846135D01*
X156383504Y-73914271D01*
X156387455Y-73961418D01*
X156394298Y-73993790D01*
X156404789Y-74017600D01*
X156415704Y-74033843D01*
X156485381Y-74102952D01*
X156567434Y-74144521D01*
X156655950Y-74157023D01*
X156745019Y-74138934D01*
X156773237Y-74126142D01*
X156840790Y-74090931D01*
X156840790Y-74642700D01*
X156791488Y-74617205D01*
X156726527Y-74597480D01*
X156646680Y-74592427D01*
X156566948Y-74601756D01*
X156506735Y-74622714D01*
X156456792Y-74662627D01*
X156414119Y-74719741D01*
X156410910Y-74725605D01*
X156397378Y-74753227D01*
X156387495Y-74781068D01*
X156380691Y-74814794D01*
X156376399Y-74860071D01*
X156374049Y-74922562D01*
X156373072Y-75007935D01*
X156372895Y-75104010D01*
X156372895Y-75410526D01*
X156556711Y-75410526D01*
X156556711Y-74845339D01*
X156608125Y-74802077D01*
X156661534Y-74767472D01*
X156712112Y-74761180D01*
X156762970Y-74777372D01*
X156790075Y-74793227D01*
X156810249Y-74815810D01*
X156824597Y-74849940D01*
X156834224Y-74900434D01*
X156840237Y-74972111D01*
X156843740Y-75069788D01*
X156844974Y-75134802D01*
X156849145Y-75402171D01*
X156936875Y-75407222D01*
X157024606Y-75412273D01*
X157024606Y-73753101D01*
X156840790Y-73753101D01*
X156836104Y-73845600D01*
X156820312Y-73909809D01*
X156790817Y-73949759D01*
X156745020Y-73969480D01*
X156698750Y-73973421D01*
X156646372Y-73968892D01*
X156611610Y-73951069D01*
X156589872Y-73927519D01*
X156572760Y-73902189D01*
X156562573Y-73873969D01*
X156558040Y-73834431D01*
X156557891Y-73775142D01*
X156559416Y-73725498D01*
X156562919Y-73650710D01*
X156568133Y-73601611D01*
X156576913Y-73570467D01*
X156591114Y-73549545D01*
X156604516Y-73537452D01*
X156660513Y-73511081D01*
X156726789Y-73506822D01*
X156764844Y-73515906D01*
X156802523Y-73548196D01*
X156827481Y-73611006D01*
X156839578Y-73703894D01*
X156840790Y-73753101D01*
X157024606Y-73753101D01*
X157024606Y-73338421D01*
X156932698Y-73338421D01*
X156877517Y-73340603D01*
X156849048Y-73348351D01*
X156840794Y-73363468D01*
X156840790Y-73363916D01*
X156836960Y-73378720D01*
X156820067Y-73377039D01*
X156786481Y-73360772D01*
X156708222Y-73335887D01*
X156620173Y-73333271D01*
X156536640Y-73352468D01*
X156536640Y-73352468D01*
G37*
X156536640Y-73352468D02*
X156501408Y-73369874D01*
X156457960Y-73400206D01*
X156426294Y-73433283D01*
X156404606Y-73474817D01*
X156391097Y-73530522D01*
X156383962Y-73606111D01*
X156381400Y-73707296D01*
X156381250Y-73750797D01*
X156381688Y-73846135D01*
X156383504Y-73914271D01*
X156387455Y-73961418D01*
X156394298Y-73993790D01*
X156404789Y-74017600D01*
X156415704Y-74033843D01*
X156485381Y-74102952D01*
X156567434Y-74144521D01*
X156655950Y-74157023D01*
X156745019Y-74138934D01*
X156773237Y-74126142D01*
X156840790Y-74090931D01*
X156840790Y-74642700D01*
X156791488Y-74617205D01*
X156726527Y-74597480D01*
X156646680Y-74592427D01*
X156566948Y-74601756D01*
X156506735Y-74622714D01*
X156456792Y-74662627D01*
X156414119Y-74719741D01*
X156410910Y-74725605D01*
X156397378Y-74753227D01*
X156387495Y-74781068D01*
X156380691Y-74814794D01*
X156376399Y-74860071D01*
X156374049Y-74922562D01*
X156373072Y-75007935D01*
X156372895Y-75104010D01*
X156372895Y-75410526D01*
X156556711Y-75410526D01*
X156556711Y-74845339D01*
X156608125Y-74802077D01*
X156661534Y-74767472D01*
X156712112Y-74761180D01*
X156762970Y-74777372D01*
X156790075Y-74793227D01*
X156810249Y-74815810D01*
X156824597Y-74849940D01*
X156834224Y-74900434D01*
X156840237Y-74972111D01*
X156843740Y-75069788D01*
X156844974Y-75134802D01*
X156849145Y-75402171D01*
X156936875Y-75407222D01*
X157024606Y-75412273D01*
X157024606Y-73753101D01*
X156840790Y-73753101D01*
X156836104Y-73845600D01*
X156820312Y-73909809D01*
X156790817Y-73949759D01*
X156745020Y-73969480D01*
X156698750Y-73973421D01*
X156646372Y-73968892D01*
X156611610Y-73951069D01*
X156589872Y-73927519D01*
X156572760Y-73902189D01*
X156562573Y-73873969D01*
X156558040Y-73834431D01*
X156557891Y-73775142D01*
X156559416Y-73725498D01*
X156562919Y-73650710D01*
X156568133Y-73601611D01*
X156576913Y-73570467D01*
X156591114Y-73549545D01*
X156604516Y-73537452D01*
X156660513Y-73511081D01*
X156726789Y-73506822D01*
X156764844Y-73515906D01*
X156802523Y-73548196D01*
X156827481Y-73611006D01*
X156839578Y-73703894D01*
X156840790Y-73753101D01*
X157024606Y-73753101D01*
X157024606Y-73338421D01*
X156932698Y-73338421D01*
X156877517Y-73340603D01*
X156849048Y-73348351D01*
X156840794Y-73363468D01*
X156840790Y-73363916D01*
X156836960Y-73378720D01*
X156820067Y-73377039D01*
X156786481Y-73360772D01*
X156708222Y-73335887D01*
X156620173Y-73333271D01*
X156536640Y-73352468D01*
M02*
