G04 #@! TF.GenerationSoftware,KiCad,Pcbnew,(2017-06-16 revision 2018d4894)-master*
G04 #@! TF.CreationDate,2017-08-04T06:40:25+02:00*
G04 #@! TF.ProjectId,LT3032-breakout,4C54333033322D627265616B6F75742E,rev?*
G04 #@! TF.SameCoordinates,Original
G04 #@! TF.FileFunction,Copper,L1,Top,Signal*
G04 #@! TF.FilePolarity,Positive*
%FSLAX46Y46*%
G04 Gerber Fmt 4.6, Leading zero omitted, Abs format (unit mm)*
G04 Created by KiCad (PCBNEW (2017-06-16 revision 2018d4894)-master) date Fri Aug  4 06:40:25 2017*
%MOMM*%
%LPD*%
G01*
G04 APERTURE LIST*
%ADD10C,0.100000*%
%ADD11R,2.500000X1.000000*%
%ADD12R,0.750000X0.800000*%
%ADD13R,1.650000X1.070000*%
%ADD14R,0.700000X0.250000*%
%ADD15R,0.825000X0.890000*%
%ADD16O,1.700000X1.700000*%
%ADD17R,1.700000X1.700000*%
%ADD18C,0.600000*%
%ADD19C,0.150000*%
%ADD20C,0.500000*%
%ADD21C,0.250000*%
G04 APERTURE END LIST*
D10*
D11*
X148200000Y-68100000D03*
X148200000Y-71100000D03*
X148200000Y-76300000D03*
X148200000Y-73300000D03*
D12*
X150500000Y-70050000D03*
X150500000Y-71550000D03*
X156600000Y-73350000D03*
X156600000Y-71850000D03*
D11*
X158900000Y-68100000D03*
X158900000Y-71100000D03*
X158900000Y-76300000D03*
X158900000Y-73300000D03*
D13*
X153387500Y-72900000D03*
D14*
X154837500Y-70300000D03*
X154837500Y-70800000D03*
X154837500Y-71300000D03*
X154837500Y-71800000D03*
X154837500Y-72300000D03*
X154837500Y-72800000D03*
X154837500Y-73300000D03*
X151937500Y-73300000D03*
X151937500Y-72800000D03*
X151937500Y-72300000D03*
X151937500Y-71800000D03*
X151937500Y-71300000D03*
X151937500Y-70800000D03*
X151937500Y-70300000D03*
D15*
X152975000Y-70555000D03*
X153800000Y-70555000D03*
X153800000Y-71445000D03*
X152975000Y-71445000D03*
D16*
X142740000Y-74660000D03*
X142740000Y-72120000D03*
D17*
X142740000Y-69580000D03*
D16*
X163060000Y-74660000D03*
X163060000Y-72120000D03*
D17*
X163060000Y-69580000D03*
D18*
X159600000Y-74300000D03*
X158200000Y-74300000D03*
X159600000Y-70100000D03*
X158200000Y-70100000D03*
X147500000Y-70100000D03*
X147500000Y-74300000D03*
X148900000Y-74300000D03*
X148900000Y-70100000D03*
X152975000Y-70555000D03*
X153800000Y-70555000D03*
X153800000Y-71445000D03*
X152975000Y-71445000D03*
X151100000Y-72500000D03*
X155900000Y-68800000D03*
X155900000Y-69800000D03*
X156900000Y-69800000D03*
X156900000Y-68800000D03*
X150800000Y-68800000D03*
X151800000Y-69800000D03*
X151800000Y-68800000D03*
X157100000Y-74100000D03*
X157100000Y-75100000D03*
X156100000Y-75100000D03*
X156100000Y-74100000D03*
X151900000Y-74500000D03*
X150900000Y-74500000D03*
X150900000Y-73500000D03*
D19*
X150950000Y-71550000D02*
X151200000Y-71300000D01*
X151200000Y-71300000D02*
X151937500Y-71300000D01*
X150500000Y-71550000D02*
X150950000Y-71550000D01*
D20*
X159600000Y-74300000D02*
X159600000Y-74000000D01*
X159600000Y-74000000D02*
X158900000Y-73300000D01*
X158200000Y-74300000D02*
X158200000Y-74000000D01*
X158200000Y-74000000D02*
X158900000Y-73300000D01*
X159600000Y-70400000D02*
X158900000Y-71100000D01*
X159600000Y-70100000D02*
X159600000Y-70400000D01*
X158200000Y-70100000D02*
X158200000Y-70400000D01*
X158200000Y-70400000D02*
X158900000Y-71100000D01*
X147500000Y-70100000D02*
X147500000Y-70400000D01*
X147500000Y-70400000D02*
X148200000Y-71100000D01*
X147500000Y-74300000D02*
X147500000Y-74000000D01*
X147500000Y-74000000D02*
X148200000Y-73300000D01*
X148900000Y-74300000D02*
X148900000Y-74000000D01*
X148900000Y-74000000D02*
X148200000Y-73300000D01*
X148900000Y-70100000D02*
X148900000Y-70400000D01*
X148900000Y-70400000D02*
X148200000Y-71100000D01*
D21*
X152975000Y-71445000D02*
X152975000Y-70555000D01*
X153800000Y-71445000D02*
X153800000Y-70555000D01*
X152975000Y-71445000D02*
X153800000Y-71445000D01*
X151937500Y-71800000D02*
X152620000Y-71800000D01*
X152620000Y-71800000D02*
X152975000Y-71445000D01*
X151937500Y-71800000D02*
X151937500Y-72300000D01*
X151937500Y-72300000D02*
X151300000Y-72300000D01*
X151300000Y-72300000D02*
X151100000Y-72500000D01*
D19*
X154837500Y-70300000D02*
X155500000Y-70300000D01*
X155500000Y-70300000D02*
X155700000Y-70500000D01*
X155700000Y-70500000D02*
X155700000Y-71200000D01*
D21*
X154400000Y-68100000D02*
X154837500Y-68537500D01*
X154837500Y-68537500D02*
X154837500Y-70300000D01*
X148200000Y-68100000D02*
X154400000Y-68100000D01*
D19*
X155500000Y-71300000D02*
X155600000Y-71300000D01*
X155600000Y-71300000D02*
X155700000Y-71200000D01*
X155500000Y-71300000D02*
X154837500Y-71300000D01*
X154837500Y-72300000D02*
X154837500Y-72800000D01*
D21*
X154837500Y-72800000D02*
X153487500Y-72800000D01*
X153487500Y-72800000D02*
X153387500Y-72900000D01*
X151937500Y-72800000D02*
X153287500Y-72800000D01*
X153287500Y-72800000D02*
X153387500Y-72900000D01*
X155900000Y-69800000D02*
X156900000Y-69800000D01*
X155900000Y-68800000D02*
X155900000Y-69800000D01*
X156900000Y-68800000D02*
X155900000Y-68800000D01*
X158900000Y-68100000D02*
X157600000Y-68100000D01*
X157600000Y-68100000D02*
X156900000Y-68800000D01*
X151800000Y-68800000D02*
X151800000Y-69800000D01*
X150800000Y-68800000D02*
X151800000Y-68800000D01*
X150500000Y-70050000D02*
X150500000Y-69100000D01*
X150500000Y-69100000D02*
X150800000Y-68800000D01*
X156100000Y-74100000D02*
X157100000Y-74100000D01*
X156100000Y-75100000D02*
X157100000Y-75100000D01*
X156100000Y-75100000D02*
X156100000Y-74100000D01*
X156100000Y-74100000D02*
X156600000Y-73600000D01*
X156600000Y-73600000D02*
X156600000Y-73350000D01*
D19*
X150900000Y-74500000D02*
X151900000Y-74500000D01*
X150900000Y-73500000D02*
X150900000Y-74500000D01*
X151937500Y-73300000D02*
X151100000Y-73300000D01*
X151100000Y-73300000D02*
X150900000Y-73500000D01*
X154837500Y-71800000D02*
X156550000Y-71800000D01*
X156550000Y-71800000D02*
X156600000Y-71850000D01*
D21*
G36*
X141400000Y-72475000D02*
X141561615Y-72475000D01*
X141584249Y-72588787D01*
X141849795Y-72986206D01*
X142247214Y-73251752D01*
X142716001Y-73345000D01*
X142763999Y-73345000D01*
X143232786Y-73251752D01*
X143630205Y-72986206D01*
X143895751Y-72588787D01*
X143918385Y-72475000D01*
X146761416Y-72475000D01*
X146679641Y-72529641D01*
X146596758Y-72653683D01*
X146567654Y-72800000D01*
X146567654Y-73800000D01*
X146596758Y-73946317D01*
X146679641Y-74070359D01*
X146803683Y-74153242D01*
X146828047Y-74158088D01*
X146825117Y-74165145D01*
X146824883Y-74433677D01*
X146927429Y-74681857D01*
X147117144Y-74871903D01*
X147365145Y-74974883D01*
X147633677Y-74975117D01*
X147881857Y-74872571D01*
X148071903Y-74682856D01*
X148174883Y-74434855D01*
X148175080Y-74208804D01*
X148200000Y-74183883D01*
X148225079Y-74208962D01*
X148224883Y-74433677D01*
X148327429Y-74681857D01*
X148517144Y-74871903D01*
X148765145Y-74974883D01*
X149033677Y-74975117D01*
X149281857Y-74872571D01*
X149471903Y-74682856D01*
X149574883Y-74434855D01*
X149575117Y-74166323D01*
X149571733Y-74158132D01*
X149596317Y-74153242D01*
X149720359Y-74070359D01*
X149803242Y-73946317D01*
X149832346Y-73800000D01*
X149832346Y-72800000D01*
X149803242Y-72653683D01*
X149720359Y-72529641D01*
X149638584Y-72475000D01*
X150425021Y-72475000D01*
X150424883Y-72633677D01*
X150465456Y-72731871D01*
X150356494Y-72753545D01*
X150234835Y-72834835D01*
X150034835Y-73034835D01*
X149953545Y-73156494D01*
X149925000Y-73300000D01*
X149925000Y-74700000D01*
X149953545Y-74843506D01*
X150034835Y-74965165D01*
X150234835Y-75165165D01*
X150356494Y-75246455D01*
X150500000Y-75275000D01*
X152300000Y-75275000D01*
X152443506Y-75246455D01*
X152565165Y-75165165D01*
X152765165Y-74965165D01*
X152846455Y-74843506D01*
X152875000Y-74700000D01*
X152875000Y-73810000D01*
X153168750Y-73810000D01*
X153262500Y-73716250D01*
X153262500Y-73025000D01*
X153242500Y-73025000D01*
X153242500Y-72775000D01*
X153262500Y-72775000D01*
X153262500Y-72755000D01*
X153512500Y-72755000D01*
X153512500Y-72775000D01*
X153532500Y-72775000D01*
X153532500Y-73025000D01*
X153512500Y-73025000D01*
X153512500Y-73716250D01*
X153606250Y-73810000D01*
X154025000Y-73810000D01*
X154025000Y-78700000D01*
X154039918Y-78775000D01*
X141451776Y-78775000D01*
X141325000Y-78648224D01*
X141325000Y-76518750D01*
X146575000Y-76518750D01*
X146575000Y-76874592D01*
X146632090Y-77012420D01*
X146737579Y-77117910D01*
X146875408Y-77175000D01*
X147981250Y-77175000D01*
X148075000Y-77081250D01*
X148075000Y-76425000D01*
X148325000Y-76425000D01*
X148325000Y-77081250D01*
X148418750Y-77175000D01*
X149524592Y-77175000D01*
X149662421Y-77117910D01*
X149767910Y-77012420D01*
X149825000Y-76874592D01*
X149825000Y-76518750D01*
X149731250Y-76425000D01*
X148325000Y-76425000D01*
X148075000Y-76425000D01*
X146668750Y-76425000D01*
X146575000Y-76518750D01*
X141325000Y-76518750D01*
X141325000Y-74974093D01*
X141555951Y-74974093D01*
X141680645Y-75275157D01*
X141996694Y-75633729D01*
X142425905Y-75844059D01*
X142615000Y-75784867D01*
X142615000Y-74785000D01*
X142865000Y-74785000D01*
X142865000Y-75784867D01*
X143054095Y-75844059D01*
X143296220Y-75725408D01*
X146575000Y-75725408D01*
X146575000Y-76081250D01*
X146668750Y-76175000D01*
X148075000Y-76175000D01*
X148075000Y-75518750D01*
X148325000Y-75518750D01*
X148325000Y-76175000D01*
X149731250Y-76175000D01*
X149825000Y-76081250D01*
X149825000Y-75725408D01*
X149767910Y-75587580D01*
X149662421Y-75482090D01*
X149524592Y-75425000D01*
X148418750Y-75425000D01*
X148325000Y-75518750D01*
X148075000Y-75518750D01*
X147981250Y-75425000D01*
X146875408Y-75425000D01*
X146737579Y-75482090D01*
X146632090Y-75587580D01*
X146575000Y-75725408D01*
X143296220Y-75725408D01*
X143483306Y-75633729D01*
X143799355Y-75275157D01*
X143924049Y-74974093D01*
X143864323Y-74785000D01*
X142865000Y-74785000D01*
X142615000Y-74785000D01*
X141615677Y-74785000D01*
X141555951Y-74974093D01*
X141325000Y-74974093D01*
X141325000Y-74345907D01*
X141555951Y-74345907D01*
X141615677Y-74535000D01*
X142615000Y-74535000D01*
X142615000Y-73535133D01*
X142865000Y-73535133D01*
X142865000Y-74535000D01*
X143864323Y-74535000D01*
X143924049Y-74345907D01*
X143799355Y-74044843D01*
X143483306Y-73686271D01*
X143054095Y-73475941D01*
X142865000Y-73535133D01*
X142615000Y-73535133D01*
X142425905Y-73475941D01*
X141996694Y-73686271D01*
X141680645Y-74044843D01*
X141555951Y-74345907D01*
X141325000Y-74345907D01*
X141325000Y-72460082D01*
X141400000Y-72475000D01*
X141400000Y-72475000D01*
G37*
X141400000Y-72475000D02*
X141561615Y-72475000D01*
X141584249Y-72588787D01*
X141849795Y-72986206D01*
X142247214Y-73251752D01*
X142716001Y-73345000D01*
X142763999Y-73345000D01*
X143232786Y-73251752D01*
X143630205Y-72986206D01*
X143895751Y-72588787D01*
X143918385Y-72475000D01*
X146761416Y-72475000D01*
X146679641Y-72529641D01*
X146596758Y-72653683D01*
X146567654Y-72800000D01*
X146567654Y-73800000D01*
X146596758Y-73946317D01*
X146679641Y-74070359D01*
X146803683Y-74153242D01*
X146828047Y-74158088D01*
X146825117Y-74165145D01*
X146824883Y-74433677D01*
X146927429Y-74681857D01*
X147117144Y-74871903D01*
X147365145Y-74974883D01*
X147633677Y-74975117D01*
X147881857Y-74872571D01*
X148071903Y-74682856D01*
X148174883Y-74434855D01*
X148175080Y-74208804D01*
X148200000Y-74183883D01*
X148225079Y-74208962D01*
X148224883Y-74433677D01*
X148327429Y-74681857D01*
X148517144Y-74871903D01*
X148765145Y-74974883D01*
X149033677Y-74975117D01*
X149281857Y-74872571D01*
X149471903Y-74682856D01*
X149574883Y-74434855D01*
X149575117Y-74166323D01*
X149571733Y-74158132D01*
X149596317Y-74153242D01*
X149720359Y-74070359D01*
X149803242Y-73946317D01*
X149832346Y-73800000D01*
X149832346Y-72800000D01*
X149803242Y-72653683D01*
X149720359Y-72529641D01*
X149638584Y-72475000D01*
X150425021Y-72475000D01*
X150424883Y-72633677D01*
X150465456Y-72731871D01*
X150356494Y-72753545D01*
X150234835Y-72834835D01*
X150034835Y-73034835D01*
X149953545Y-73156494D01*
X149925000Y-73300000D01*
X149925000Y-74700000D01*
X149953545Y-74843506D01*
X150034835Y-74965165D01*
X150234835Y-75165165D01*
X150356494Y-75246455D01*
X150500000Y-75275000D01*
X152300000Y-75275000D01*
X152443506Y-75246455D01*
X152565165Y-75165165D01*
X152765165Y-74965165D01*
X152846455Y-74843506D01*
X152875000Y-74700000D01*
X152875000Y-73810000D01*
X153168750Y-73810000D01*
X153262500Y-73716250D01*
X153262500Y-73025000D01*
X153242500Y-73025000D01*
X153242500Y-72775000D01*
X153262500Y-72775000D01*
X153262500Y-72755000D01*
X153512500Y-72755000D01*
X153512500Y-72775000D01*
X153532500Y-72775000D01*
X153532500Y-73025000D01*
X153512500Y-73025000D01*
X153512500Y-73716250D01*
X153606250Y-73810000D01*
X154025000Y-73810000D01*
X154025000Y-78700000D01*
X154039918Y-78775000D01*
X141451776Y-78775000D01*
X141325000Y-78648224D01*
X141325000Y-76518750D01*
X146575000Y-76518750D01*
X146575000Y-76874592D01*
X146632090Y-77012420D01*
X146737579Y-77117910D01*
X146875408Y-77175000D01*
X147981250Y-77175000D01*
X148075000Y-77081250D01*
X148075000Y-76425000D01*
X148325000Y-76425000D01*
X148325000Y-77081250D01*
X148418750Y-77175000D01*
X149524592Y-77175000D01*
X149662421Y-77117910D01*
X149767910Y-77012420D01*
X149825000Y-76874592D01*
X149825000Y-76518750D01*
X149731250Y-76425000D01*
X148325000Y-76425000D01*
X148075000Y-76425000D01*
X146668750Y-76425000D01*
X146575000Y-76518750D01*
X141325000Y-76518750D01*
X141325000Y-74974093D01*
X141555951Y-74974093D01*
X141680645Y-75275157D01*
X141996694Y-75633729D01*
X142425905Y-75844059D01*
X142615000Y-75784867D01*
X142615000Y-74785000D01*
X142865000Y-74785000D01*
X142865000Y-75784867D01*
X143054095Y-75844059D01*
X143296220Y-75725408D01*
X146575000Y-75725408D01*
X146575000Y-76081250D01*
X146668750Y-76175000D01*
X148075000Y-76175000D01*
X148075000Y-75518750D01*
X148325000Y-75518750D01*
X148325000Y-76175000D01*
X149731250Y-76175000D01*
X149825000Y-76081250D01*
X149825000Y-75725408D01*
X149767910Y-75587580D01*
X149662421Y-75482090D01*
X149524592Y-75425000D01*
X148418750Y-75425000D01*
X148325000Y-75518750D01*
X148075000Y-75518750D01*
X147981250Y-75425000D01*
X146875408Y-75425000D01*
X146737579Y-75482090D01*
X146632090Y-75587580D01*
X146575000Y-75725408D01*
X143296220Y-75725408D01*
X143483306Y-75633729D01*
X143799355Y-75275157D01*
X143924049Y-74974093D01*
X143864323Y-74785000D01*
X142865000Y-74785000D01*
X142615000Y-74785000D01*
X141615677Y-74785000D01*
X141555951Y-74974093D01*
X141325000Y-74974093D01*
X141325000Y-74345907D01*
X141555951Y-74345907D01*
X141615677Y-74535000D01*
X142615000Y-74535000D01*
X142615000Y-73535133D01*
X142865000Y-73535133D01*
X142865000Y-74535000D01*
X143864323Y-74535000D01*
X143924049Y-74345907D01*
X143799355Y-74044843D01*
X143483306Y-73686271D01*
X143054095Y-73475941D01*
X142865000Y-73535133D01*
X142615000Y-73535133D01*
X142425905Y-73475941D01*
X141996694Y-73686271D01*
X141680645Y-74044843D01*
X141555951Y-74345907D01*
X141325000Y-74345907D01*
X141325000Y-72460082D01*
X141400000Y-72475000D01*
G36*
X155525000Y-65700000D02*
X155525000Y-68224596D01*
X155518143Y-68227429D01*
X155328097Y-68417144D01*
X155225117Y-68665145D01*
X155224883Y-68933677D01*
X155327429Y-69181857D01*
X155400000Y-69254555D01*
X155400000Y-69345366D01*
X155328097Y-69417144D01*
X155225117Y-69665145D01*
X155224999Y-69800000D01*
X155056250Y-69800000D01*
X154962500Y-69893750D01*
X154962500Y-70237500D01*
X154982500Y-70237500D01*
X154982500Y-70292654D01*
X154692500Y-70292654D01*
X154692500Y-70237500D01*
X154712500Y-70237500D01*
X154712500Y-69893750D01*
X154618750Y-69800000D01*
X154423533Y-69800000D01*
X154358817Y-69756758D01*
X154212500Y-69727654D01*
X152774537Y-69727654D01*
X152774537Y-68800000D01*
X152745992Y-68656494D01*
X152664702Y-68534835D01*
X152464702Y-68334835D01*
X152343043Y-68253545D01*
X152199537Y-68225000D01*
X152175398Y-68225000D01*
X151934855Y-68125117D01*
X151666323Y-68124883D01*
X151424022Y-68225000D01*
X151175398Y-68225000D01*
X150934855Y-68125117D01*
X150666323Y-68124883D01*
X150424022Y-68225000D01*
X150399537Y-68225000D01*
X150256031Y-68253545D01*
X150134372Y-68334835D01*
X149934372Y-68534835D01*
X149853082Y-68656494D01*
X149824537Y-68800000D01*
X149824537Y-69424694D01*
X149771758Y-69503683D01*
X149742654Y-69650000D01*
X149742654Y-70363008D01*
X149720359Y-70329641D01*
X149596317Y-70246758D01*
X149571953Y-70241912D01*
X149574883Y-70234855D01*
X149575117Y-69966323D01*
X149472571Y-69718143D01*
X149282856Y-69528097D01*
X149034855Y-69425117D01*
X148766323Y-69424883D01*
X148518143Y-69527429D01*
X148328097Y-69717144D01*
X148225117Y-69965145D01*
X148224920Y-70191197D01*
X148200000Y-70216117D01*
X148174921Y-70191038D01*
X148175117Y-69966323D01*
X148072571Y-69718143D01*
X147882856Y-69528097D01*
X147634855Y-69425117D01*
X147366323Y-69424883D01*
X147118143Y-69527429D01*
X146928097Y-69717144D01*
X146825117Y-69965145D01*
X146824883Y-70233677D01*
X146828267Y-70241868D01*
X146803683Y-70246758D01*
X146679641Y-70329641D01*
X146596758Y-70453683D01*
X146567654Y-70600000D01*
X146567654Y-71600000D01*
X146596758Y-71746317D01*
X146679641Y-71870359D01*
X146803683Y-71953242D01*
X146913069Y-71975000D01*
X143960157Y-71975000D01*
X143895751Y-71651213D01*
X143630205Y-71253794D01*
X143232786Y-70988248D01*
X142763999Y-70895000D01*
X142716001Y-70895000D01*
X142247214Y-70988248D01*
X141849795Y-71253794D01*
X141584249Y-71651213D01*
X141519843Y-71975000D01*
X141451776Y-71975000D01*
X141325000Y-71848224D01*
X141325000Y-69798750D01*
X141515000Y-69798750D01*
X141515000Y-70504592D01*
X141572090Y-70642421D01*
X141677580Y-70747910D01*
X141815408Y-70805000D01*
X142521250Y-70805000D01*
X142615000Y-70711250D01*
X142615000Y-69705000D01*
X142865000Y-69705000D01*
X142865000Y-70711250D01*
X142958750Y-70805000D01*
X143664592Y-70805000D01*
X143802420Y-70747910D01*
X143907910Y-70642421D01*
X143965000Y-70504592D01*
X143965000Y-69798750D01*
X143871250Y-69705000D01*
X142865000Y-69705000D01*
X142615000Y-69705000D01*
X141608750Y-69705000D01*
X141515000Y-69798750D01*
X141325000Y-69798750D01*
X141325000Y-68655408D01*
X141515000Y-68655408D01*
X141515000Y-69361250D01*
X141608750Y-69455000D01*
X142615000Y-69455000D01*
X142615000Y-68448750D01*
X142865000Y-68448750D01*
X142865000Y-69455000D01*
X143871250Y-69455000D01*
X143965000Y-69361250D01*
X143965000Y-68655408D01*
X143907910Y-68517579D01*
X143802420Y-68412090D01*
X143664592Y-68355000D01*
X142958750Y-68355000D01*
X142865000Y-68448750D01*
X142615000Y-68448750D01*
X142521250Y-68355000D01*
X141815408Y-68355000D01*
X141677580Y-68412090D01*
X141572090Y-68517579D01*
X141515000Y-68655408D01*
X141325000Y-68655408D01*
X141325000Y-68318750D01*
X146575000Y-68318750D01*
X146575000Y-68674592D01*
X146632090Y-68812420D01*
X146737579Y-68917910D01*
X146875408Y-68975000D01*
X147981250Y-68975000D01*
X148075000Y-68881250D01*
X148075000Y-68225000D01*
X148325000Y-68225000D01*
X148325000Y-68881250D01*
X148418750Y-68975000D01*
X149524592Y-68975000D01*
X149662421Y-68917910D01*
X149767910Y-68812420D01*
X149825000Y-68674592D01*
X149825000Y-68318750D01*
X149731250Y-68225000D01*
X148325000Y-68225000D01*
X148075000Y-68225000D01*
X146668750Y-68225000D01*
X146575000Y-68318750D01*
X141325000Y-68318750D01*
X141325000Y-67525408D01*
X146575000Y-67525408D01*
X146575000Y-67881250D01*
X146668750Y-67975000D01*
X148075000Y-67975000D01*
X148075000Y-67318750D01*
X148325000Y-67318750D01*
X148325000Y-67975000D01*
X149731250Y-67975000D01*
X149825000Y-67881250D01*
X149825000Y-67525408D01*
X149767910Y-67387580D01*
X149662421Y-67282090D01*
X149524592Y-67225000D01*
X148418750Y-67225000D01*
X148325000Y-67318750D01*
X148075000Y-67318750D01*
X147981250Y-67225000D01*
X146875408Y-67225000D01*
X146737579Y-67282090D01*
X146632090Y-67387580D01*
X146575000Y-67525408D01*
X141325000Y-67525408D01*
X141325000Y-65751776D01*
X141451776Y-65625000D01*
X155539918Y-65625000D01*
X155525000Y-65700000D01*
X155525000Y-65700000D01*
G37*
X155525000Y-65700000D02*
X155525000Y-68224596D01*
X155518143Y-68227429D01*
X155328097Y-68417144D01*
X155225117Y-68665145D01*
X155224883Y-68933677D01*
X155327429Y-69181857D01*
X155400000Y-69254555D01*
X155400000Y-69345366D01*
X155328097Y-69417144D01*
X155225117Y-69665145D01*
X155224999Y-69800000D01*
X155056250Y-69800000D01*
X154962500Y-69893750D01*
X154962500Y-70237500D01*
X154982500Y-70237500D01*
X154982500Y-70292654D01*
X154692500Y-70292654D01*
X154692500Y-70237500D01*
X154712500Y-70237500D01*
X154712500Y-69893750D01*
X154618750Y-69800000D01*
X154423533Y-69800000D01*
X154358817Y-69756758D01*
X154212500Y-69727654D01*
X152774537Y-69727654D01*
X152774537Y-68800000D01*
X152745992Y-68656494D01*
X152664702Y-68534835D01*
X152464702Y-68334835D01*
X152343043Y-68253545D01*
X152199537Y-68225000D01*
X152175398Y-68225000D01*
X151934855Y-68125117D01*
X151666323Y-68124883D01*
X151424022Y-68225000D01*
X151175398Y-68225000D01*
X150934855Y-68125117D01*
X150666323Y-68124883D01*
X150424022Y-68225000D01*
X150399537Y-68225000D01*
X150256031Y-68253545D01*
X150134372Y-68334835D01*
X149934372Y-68534835D01*
X149853082Y-68656494D01*
X149824537Y-68800000D01*
X149824537Y-69424694D01*
X149771758Y-69503683D01*
X149742654Y-69650000D01*
X149742654Y-70363008D01*
X149720359Y-70329641D01*
X149596317Y-70246758D01*
X149571953Y-70241912D01*
X149574883Y-70234855D01*
X149575117Y-69966323D01*
X149472571Y-69718143D01*
X149282856Y-69528097D01*
X149034855Y-69425117D01*
X148766323Y-69424883D01*
X148518143Y-69527429D01*
X148328097Y-69717144D01*
X148225117Y-69965145D01*
X148224920Y-70191197D01*
X148200000Y-70216117D01*
X148174921Y-70191038D01*
X148175117Y-69966323D01*
X148072571Y-69718143D01*
X147882856Y-69528097D01*
X147634855Y-69425117D01*
X147366323Y-69424883D01*
X147118143Y-69527429D01*
X146928097Y-69717144D01*
X146825117Y-69965145D01*
X146824883Y-70233677D01*
X146828267Y-70241868D01*
X146803683Y-70246758D01*
X146679641Y-70329641D01*
X146596758Y-70453683D01*
X146567654Y-70600000D01*
X146567654Y-71600000D01*
X146596758Y-71746317D01*
X146679641Y-71870359D01*
X146803683Y-71953242D01*
X146913069Y-71975000D01*
X143960157Y-71975000D01*
X143895751Y-71651213D01*
X143630205Y-71253794D01*
X143232786Y-70988248D01*
X142763999Y-70895000D01*
X142716001Y-70895000D01*
X142247214Y-70988248D01*
X141849795Y-71253794D01*
X141584249Y-71651213D01*
X141519843Y-71975000D01*
X141451776Y-71975000D01*
X141325000Y-71848224D01*
X141325000Y-69798750D01*
X141515000Y-69798750D01*
X141515000Y-70504592D01*
X141572090Y-70642421D01*
X141677580Y-70747910D01*
X141815408Y-70805000D01*
X142521250Y-70805000D01*
X142615000Y-70711250D01*
X142615000Y-69705000D01*
X142865000Y-69705000D01*
X142865000Y-70711250D01*
X142958750Y-70805000D01*
X143664592Y-70805000D01*
X143802420Y-70747910D01*
X143907910Y-70642421D01*
X143965000Y-70504592D01*
X143965000Y-69798750D01*
X143871250Y-69705000D01*
X142865000Y-69705000D01*
X142615000Y-69705000D01*
X141608750Y-69705000D01*
X141515000Y-69798750D01*
X141325000Y-69798750D01*
X141325000Y-68655408D01*
X141515000Y-68655408D01*
X141515000Y-69361250D01*
X141608750Y-69455000D01*
X142615000Y-69455000D01*
X142615000Y-68448750D01*
X142865000Y-68448750D01*
X142865000Y-69455000D01*
X143871250Y-69455000D01*
X143965000Y-69361250D01*
X143965000Y-68655408D01*
X143907910Y-68517579D01*
X143802420Y-68412090D01*
X143664592Y-68355000D01*
X142958750Y-68355000D01*
X142865000Y-68448750D01*
X142615000Y-68448750D01*
X142521250Y-68355000D01*
X141815408Y-68355000D01*
X141677580Y-68412090D01*
X141572090Y-68517579D01*
X141515000Y-68655408D01*
X141325000Y-68655408D01*
X141325000Y-68318750D01*
X146575000Y-68318750D01*
X146575000Y-68674592D01*
X146632090Y-68812420D01*
X146737579Y-68917910D01*
X146875408Y-68975000D01*
X147981250Y-68975000D01*
X148075000Y-68881250D01*
X148075000Y-68225000D01*
X148325000Y-68225000D01*
X148325000Y-68881250D01*
X148418750Y-68975000D01*
X149524592Y-68975000D01*
X149662421Y-68917910D01*
X149767910Y-68812420D01*
X149825000Y-68674592D01*
X149825000Y-68318750D01*
X149731250Y-68225000D01*
X148325000Y-68225000D01*
X148075000Y-68225000D01*
X146668750Y-68225000D01*
X146575000Y-68318750D01*
X141325000Y-68318750D01*
X141325000Y-67525408D01*
X146575000Y-67525408D01*
X146575000Y-67881250D01*
X146668750Y-67975000D01*
X148075000Y-67975000D01*
X148075000Y-67318750D01*
X148325000Y-67318750D01*
X148325000Y-67975000D01*
X149731250Y-67975000D01*
X149825000Y-67881250D01*
X149825000Y-67525408D01*
X149767910Y-67387580D01*
X149662421Y-67282090D01*
X149524592Y-67225000D01*
X148418750Y-67225000D01*
X148325000Y-67318750D01*
X148075000Y-67318750D01*
X147981250Y-67225000D01*
X146875408Y-67225000D01*
X146737579Y-67282090D01*
X146632090Y-67387580D01*
X146575000Y-67525408D01*
X141325000Y-67525408D01*
X141325000Y-65751776D01*
X141451776Y-65625000D01*
X155539918Y-65625000D01*
X155525000Y-65700000D01*
G36*
X151306250Y-73237500D02*
X151380209Y-73237500D01*
X151441183Y-73278242D01*
X151587500Y-73307346D01*
X152082500Y-73307346D01*
X152082500Y-73362500D01*
X152062500Y-73362500D01*
X152062500Y-73706250D01*
X152156250Y-73800000D01*
X152362092Y-73800000D01*
X152375000Y-73794653D01*
X152375000Y-74648224D01*
X152248224Y-74775000D01*
X150551776Y-74775000D01*
X150425000Y-74648224D01*
X150425000Y-73456250D01*
X151212500Y-73456250D01*
X151212500Y-73499592D01*
X151269590Y-73637421D01*
X151375080Y-73742910D01*
X151512908Y-73800000D01*
X151718750Y-73800000D01*
X151812500Y-73706250D01*
X151812500Y-73362500D01*
X151306250Y-73362500D01*
X151212500Y-73456250D01*
X150425000Y-73456250D01*
X150425000Y-73351776D01*
X150551776Y-73225000D01*
X151293750Y-73225000D01*
X151306250Y-73237500D01*
X151306250Y-73237500D01*
G37*
X151306250Y-73237500D02*
X151380209Y-73237500D01*
X151441183Y-73278242D01*
X151587500Y-73307346D01*
X152082500Y-73307346D01*
X152082500Y-73362500D01*
X152062500Y-73362500D01*
X152062500Y-73706250D01*
X152156250Y-73800000D01*
X152362092Y-73800000D01*
X152375000Y-73794653D01*
X152375000Y-74648224D01*
X152248224Y-74775000D01*
X150551776Y-74775000D01*
X150425000Y-74648224D01*
X150425000Y-73456250D01*
X151212500Y-73456250D01*
X151212500Y-73499592D01*
X151269590Y-73637421D01*
X151375080Y-73742910D01*
X151512908Y-73800000D01*
X151718750Y-73800000D01*
X151812500Y-73706250D01*
X151812500Y-73362500D01*
X151306250Y-73362500D01*
X151212500Y-73456250D01*
X150425000Y-73456250D01*
X150425000Y-73351776D01*
X150551776Y-73225000D01*
X151293750Y-73225000D01*
X151306250Y-73237500D01*
G36*
X155834835Y-73365165D02*
X155850000Y-73375298D01*
X155850000Y-73475002D01*
X155943748Y-73475002D01*
X155850000Y-73568750D01*
X155850000Y-73824592D01*
X155907090Y-73962420D01*
X156012579Y-74067910D01*
X156150408Y-74125000D01*
X156381250Y-74125000D01*
X156475000Y-74031250D01*
X156475000Y-73475000D01*
X156725000Y-73475000D01*
X156725000Y-74031250D01*
X156818750Y-74125000D01*
X157049592Y-74125000D01*
X157187421Y-74067910D01*
X157292910Y-73962420D01*
X157298500Y-73948924D01*
X157379641Y-74070359D01*
X157503683Y-74153242D01*
X157528047Y-74158088D01*
X157525117Y-74165145D01*
X157524883Y-74433677D01*
X157627429Y-74681857D01*
X157817144Y-74871903D01*
X158065145Y-74974883D01*
X158333677Y-74975117D01*
X158581857Y-74872571D01*
X158771903Y-74682856D01*
X158874883Y-74434855D01*
X158875080Y-74208804D01*
X158900000Y-74183883D01*
X158925079Y-74208962D01*
X158924883Y-74433677D01*
X159027429Y-74681857D01*
X159217144Y-74871903D01*
X159465145Y-74974883D01*
X159733677Y-74975117D01*
X159736155Y-74974093D01*
X161875951Y-74974093D01*
X162000645Y-75275157D01*
X162316694Y-75633729D01*
X162745905Y-75844059D01*
X162935000Y-75784867D01*
X162935000Y-74785000D01*
X163185000Y-74785000D01*
X163185000Y-75784867D01*
X163374095Y-75844059D01*
X163803306Y-75633729D01*
X164119355Y-75275157D01*
X164244049Y-74974093D01*
X164184323Y-74785000D01*
X163185000Y-74785000D01*
X162935000Y-74785000D01*
X161935677Y-74785000D01*
X161875951Y-74974093D01*
X159736155Y-74974093D01*
X159981857Y-74872571D01*
X160171903Y-74682856D01*
X160274883Y-74434855D01*
X160275117Y-74166323D01*
X160271733Y-74158132D01*
X160296317Y-74153242D01*
X160420359Y-74070359D01*
X160503242Y-73946317D01*
X160532346Y-73800000D01*
X160532346Y-73475000D01*
X162934998Y-73475000D01*
X162934998Y-73535132D01*
X162745905Y-73475941D01*
X162316694Y-73686271D01*
X162000645Y-74044843D01*
X161875951Y-74345907D01*
X161935677Y-74535000D01*
X162935000Y-74535000D01*
X162935000Y-74515000D01*
X163185000Y-74515000D01*
X163185000Y-74535000D01*
X164184323Y-74535000D01*
X164244049Y-74345907D01*
X164119355Y-74044843D01*
X163803306Y-73686271D01*
X163374095Y-73475941D01*
X163185002Y-73535132D01*
X163185002Y-73475000D01*
X165000000Y-73475000D01*
X165075000Y-73460082D01*
X165075000Y-78648224D01*
X164948224Y-78775000D01*
X154651776Y-78775000D01*
X154525000Y-78648224D01*
X154525000Y-76518750D01*
X157275000Y-76518750D01*
X157275000Y-76874592D01*
X157332090Y-77012420D01*
X157437579Y-77117910D01*
X157575408Y-77175000D01*
X158681250Y-77175000D01*
X158775000Y-77081250D01*
X158775000Y-76425000D01*
X159025000Y-76425000D01*
X159025000Y-77081250D01*
X159118750Y-77175000D01*
X160224592Y-77175000D01*
X160362421Y-77117910D01*
X160467910Y-77012420D01*
X160525000Y-76874592D01*
X160525000Y-76518750D01*
X160431250Y-76425000D01*
X159025000Y-76425000D01*
X158775000Y-76425000D01*
X157368750Y-76425000D01*
X157275000Y-76518750D01*
X154525000Y-76518750D01*
X154525000Y-75725408D01*
X157275000Y-75725408D01*
X157275000Y-76081250D01*
X157368750Y-76175000D01*
X158775000Y-76175000D01*
X158775000Y-75518750D01*
X159025000Y-75518750D01*
X159025000Y-76175000D01*
X160431250Y-76175000D01*
X160525000Y-76081250D01*
X160525000Y-75725408D01*
X160467910Y-75587580D01*
X160362421Y-75482090D01*
X160224592Y-75425000D01*
X159118750Y-75425000D01*
X159025000Y-75518750D01*
X158775000Y-75518750D01*
X158681250Y-75425000D01*
X157575408Y-75425000D01*
X157437579Y-75482090D01*
X157332090Y-75587580D01*
X157275000Y-75725408D01*
X154525000Y-75725408D01*
X154525000Y-73807346D01*
X155187500Y-73807346D01*
X155333817Y-73778242D01*
X155457859Y-73695359D01*
X155540742Y-73571317D01*
X155569846Y-73425000D01*
X155569846Y-73225000D01*
X155694670Y-73225000D01*
X155834835Y-73365165D01*
X155834835Y-73365165D01*
G37*
X155834835Y-73365165D02*
X155850000Y-73375298D01*
X155850000Y-73475002D01*
X155943748Y-73475002D01*
X155850000Y-73568750D01*
X155850000Y-73824592D01*
X155907090Y-73962420D01*
X156012579Y-74067910D01*
X156150408Y-74125000D01*
X156381250Y-74125000D01*
X156475000Y-74031250D01*
X156475000Y-73475000D01*
X156725000Y-73475000D01*
X156725000Y-74031250D01*
X156818750Y-74125000D01*
X157049592Y-74125000D01*
X157187421Y-74067910D01*
X157292910Y-73962420D01*
X157298500Y-73948924D01*
X157379641Y-74070359D01*
X157503683Y-74153242D01*
X157528047Y-74158088D01*
X157525117Y-74165145D01*
X157524883Y-74433677D01*
X157627429Y-74681857D01*
X157817144Y-74871903D01*
X158065145Y-74974883D01*
X158333677Y-74975117D01*
X158581857Y-74872571D01*
X158771903Y-74682856D01*
X158874883Y-74434855D01*
X158875080Y-74208804D01*
X158900000Y-74183883D01*
X158925079Y-74208962D01*
X158924883Y-74433677D01*
X159027429Y-74681857D01*
X159217144Y-74871903D01*
X159465145Y-74974883D01*
X159733677Y-74975117D01*
X159736155Y-74974093D01*
X161875951Y-74974093D01*
X162000645Y-75275157D01*
X162316694Y-75633729D01*
X162745905Y-75844059D01*
X162935000Y-75784867D01*
X162935000Y-74785000D01*
X163185000Y-74785000D01*
X163185000Y-75784867D01*
X163374095Y-75844059D01*
X163803306Y-75633729D01*
X164119355Y-75275157D01*
X164244049Y-74974093D01*
X164184323Y-74785000D01*
X163185000Y-74785000D01*
X162935000Y-74785000D01*
X161935677Y-74785000D01*
X161875951Y-74974093D01*
X159736155Y-74974093D01*
X159981857Y-74872571D01*
X160171903Y-74682856D01*
X160274883Y-74434855D01*
X160275117Y-74166323D01*
X160271733Y-74158132D01*
X160296317Y-74153242D01*
X160420359Y-74070359D01*
X160503242Y-73946317D01*
X160532346Y-73800000D01*
X160532346Y-73475000D01*
X162934998Y-73475000D01*
X162934998Y-73535132D01*
X162745905Y-73475941D01*
X162316694Y-73686271D01*
X162000645Y-74044843D01*
X161875951Y-74345907D01*
X161935677Y-74535000D01*
X162935000Y-74535000D01*
X162935000Y-74515000D01*
X163185000Y-74515000D01*
X163185000Y-74535000D01*
X164184323Y-74535000D01*
X164244049Y-74345907D01*
X164119355Y-74044843D01*
X163803306Y-73686271D01*
X163374095Y-73475941D01*
X163185002Y-73535132D01*
X163185002Y-73475000D01*
X165000000Y-73475000D01*
X165075000Y-73460082D01*
X165075000Y-78648224D01*
X164948224Y-78775000D01*
X154651776Y-78775000D01*
X154525000Y-78648224D01*
X154525000Y-76518750D01*
X157275000Y-76518750D01*
X157275000Y-76874592D01*
X157332090Y-77012420D01*
X157437579Y-77117910D01*
X157575408Y-77175000D01*
X158681250Y-77175000D01*
X158775000Y-77081250D01*
X158775000Y-76425000D01*
X159025000Y-76425000D01*
X159025000Y-77081250D01*
X159118750Y-77175000D01*
X160224592Y-77175000D01*
X160362421Y-77117910D01*
X160467910Y-77012420D01*
X160525000Y-76874592D01*
X160525000Y-76518750D01*
X160431250Y-76425000D01*
X159025000Y-76425000D01*
X158775000Y-76425000D01*
X157368750Y-76425000D01*
X157275000Y-76518750D01*
X154525000Y-76518750D01*
X154525000Y-75725408D01*
X157275000Y-75725408D01*
X157275000Y-76081250D01*
X157368750Y-76175000D01*
X158775000Y-76175000D01*
X158775000Y-75518750D01*
X159025000Y-75518750D01*
X159025000Y-76175000D01*
X160431250Y-76175000D01*
X160525000Y-76081250D01*
X160525000Y-75725408D01*
X160467910Y-75587580D01*
X160362421Y-75482090D01*
X160224592Y-75425000D01*
X159118750Y-75425000D01*
X159025000Y-75518750D01*
X158775000Y-75518750D01*
X158681250Y-75425000D01*
X157575408Y-75425000D01*
X157437579Y-75482090D01*
X157332090Y-75587580D01*
X157275000Y-75725408D01*
X154525000Y-75725408D01*
X154525000Y-73807346D01*
X155187500Y-73807346D01*
X155333817Y-73778242D01*
X155457859Y-73695359D01*
X155540742Y-73571317D01*
X155569846Y-73425000D01*
X155569846Y-73225000D01*
X155694670Y-73225000D01*
X155834835Y-73365165D01*
D19*
G36*
X152324537Y-68831066D02*
X152324537Y-69850000D01*
X152193750Y-69850000D01*
X152112500Y-69931250D01*
X152112500Y-70237500D01*
X152132500Y-70237500D01*
X152132500Y-70325000D01*
X151200000Y-70325000D01*
X151200000Y-70306250D01*
X151118750Y-70225000D01*
X150675000Y-70225000D01*
X150675000Y-70245000D01*
X150350603Y-70245000D01*
X150305000Y-70199397D01*
X150305000Y-70110353D01*
X151262500Y-70110353D01*
X151262500Y-70156250D01*
X151343750Y-70237500D01*
X151762500Y-70237500D01*
X151762500Y-69931250D01*
X151681250Y-69850000D01*
X151522854Y-69850000D01*
X151403403Y-69899478D01*
X151311979Y-69990902D01*
X151262500Y-70110353D01*
X150305000Y-70110353D01*
X150305000Y-69875000D01*
X150325000Y-69875000D01*
X150325000Y-69406250D01*
X150675000Y-69406250D01*
X150675000Y-69875000D01*
X151118750Y-69875000D01*
X151200000Y-69793750D01*
X151200000Y-69585354D01*
X151150522Y-69465903D01*
X151059098Y-69374479D01*
X150939647Y-69325000D01*
X150756250Y-69325000D01*
X150675000Y-69406250D01*
X150325000Y-69406250D01*
X150274537Y-69355787D01*
X150274537Y-68831066D01*
X150430603Y-68675000D01*
X152168471Y-68675000D01*
X152324537Y-68831066D01*
X152324537Y-68831066D01*
G37*
X152324537Y-68831066D02*
X152324537Y-69850000D01*
X152193750Y-69850000D01*
X152112500Y-69931250D01*
X152112500Y-70237500D01*
X152132500Y-70237500D01*
X152132500Y-70325000D01*
X151200000Y-70325000D01*
X151200000Y-70306250D01*
X151118750Y-70225000D01*
X150675000Y-70225000D01*
X150675000Y-70245000D01*
X150350603Y-70245000D01*
X150305000Y-70199397D01*
X150305000Y-70110353D01*
X151262500Y-70110353D01*
X151262500Y-70156250D01*
X151343750Y-70237500D01*
X151762500Y-70237500D01*
X151762500Y-69931250D01*
X151681250Y-69850000D01*
X151522854Y-69850000D01*
X151403403Y-69899478D01*
X151311979Y-69990902D01*
X151262500Y-70110353D01*
X150305000Y-70110353D01*
X150305000Y-69875000D01*
X150325000Y-69875000D01*
X150325000Y-69406250D01*
X150675000Y-69406250D01*
X150675000Y-69875000D01*
X151118750Y-69875000D01*
X151200000Y-69793750D01*
X151200000Y-69585354D01*
X151150522Y-69465903D01*
X151059098Y-69374479D01*
X150939647Y-69325000D01*
X150756250Y-69325000D01*
X150675000Y-69406250D01*
X150325000Y-69406250D01*
X150274537Y-69355787D01*
X150274537Y-68831066D01*
X150430603Y-68675000D01*
X152168471Y-68675000D01*
X152324537Y-68831066D01*
G36*
X165125000Y-65731066D02*
X165125000Y-72868934D01*
X164968934Y-73025000D01*
X163713649Y-73025000D01*
X163877535Y-72915495D01*
X164121404Y-72550519D01*
X164207040Y-72120000D01*
X164121404Y-71689481D01*
X163877535Y-71324505D01*
X163512559Y-71080636D01*
X163082040Y-70995000D01*
X163037960Y-70995000D01*
X162607441Y-71080636D01*
X162242465Y-71324505D01*
X161998596Y-71689481D01*
X161912960Y-72120000D01*
X161998596Y-72550519D01*
X162242465Y-72915495D01*
X162406351Y-73025000D01*
X160430387Y-73025000D01*
X160430387Y-72800000D01*
X160409044Y-72692701D01*
X160348264Y-72601736D01*
X160257299Y-72540956D01*
X160150000Y-72519613D01*
X157650000Y-72519613D01*
X157542701Y-72540956D01*
X157451736Y-72601736D01*
X157390956Y-72692701D01*
X157369613Y-72800000D01*
X157369613Y-73025000D01*
X157255387Y-73025000D01*
X157255387Y-72950000D01*
X157234044Y-72842701D01*
X157173264Y-72751736D01*
X157082299Y-72690956D01*
X156975000Y-72669613D01*
X156225000Y-72669613D01*
X156117701Y-72690956D01*
X156026736Y-72751736D01*
X155975000Y-72829166D01*
X155975000Y-72370834D01*
X156026736Y-72448264D01*
X156117701Y-72509044D01*
X156225000Y-72530387D01*
X156975000Y-72530387D01*
X157082299Y-72509044D01*
X157173264Y-72448264D01*
X157234044Y-72357299D01*
X157255387Y-72250000D01*
X157255387Y-71450000D01*
X157234044Y-71342701D01*
X157173264Y-71251736D01*
X157082299Y-71190956D01*
X156975000Y-71169613D01*
X156225000Y-71169613D01*
X156117701Y-71190956D01*
X156041698Y-71241739D01*
X156050000Y-71200000D01*
X156050000Y-70600000D01*
X157369613Y-70600000D01*
X157369613Y-71600000D01*
X157390956Y-71707299D01*
X157451736Y-71798264D01*
X157542701Y-71859044D01*
X157650000Y-71880387D01*
X160150000Y-71880387D01*
X160257299Y-71859044D01*
X160348264Y-71798264D01*
X160409044Y-71707299D01*
X160430387Y-71600000D01*
X160430387Y-70600000D01*
X160409044Y-70492701D01*
X160348264Y-70401736D01*
X160257299Y-70340956D01*
X160150000Y-70319613D01*
X160131410Y-70319613D01*
X160174900Y-70214876D01*
X160175100Y-69986127D01*
X160113173Y-69836250D01*
X161885000Y-69836250D01*
X161885000Y-70494647D01*
X161934479Y-70614098D01*
X162025903Y-70705522D01*
X162145354Y-70755000D01*
X162803750Y-70755000D01*
X162885000Y-70673750D01*
X162885000Y-69755000D01*
X163235000Y-69755000D01*
X163235000Y-70673750D01*
X163316250Y-70755000D01*
X163974646Y-70755000D01*
X164094097Y-70705522D01*
X164185521Y-70614098D01*
X164235000Y-70494647D01*
X164235000Y-69836250D01*
X164153750Y-69755000D01*
X163235000Y-69755000D01*
X162885000Y-69755000D01*
X161966250Y-69755000D01*
X161885000Y-69836250D01*
X160113173Y-69836250D01*
X160087746Y-69774714D01*
X159926137Y-69612823D01*
X159714876Y-69525100D01*
X159486127Y-69524900D01*
X159274714Y-69612254D01*
X159112823Y-69773863D01*
X159025100Y-69985124D01*
X159024900Y-70213873D01*
X159030387Y-70227151D01*
X158937925Y-70319613D01*
X158862075Y-70319613D01*
X158769747Y-70227285D01*
X158774900Y-70214876D01*
X158775100Y-69986127D01*
X158687746Y-69774714D01*
X158526137Y-69612823D01*
X158314876Y-69525100D01*
X158086127Y-69524900D01*
X157874714Y-69612254D01*
X157712823Y-69773863D01*
X157625100Y-69985124D01*
X157624900Y-70213873D01*
X157668591Y-70319613D01*
X157650000Y-70319613D01*
X157542701Y-70340956D01*
X157451736Y-70401736D01*
X157390956Y-70492701D01*
X157369613Y-70600000D01*
X156050000Y-70600000D01*
X156050000Y-70500000D01*
X156023358Y-70366061D01*
X156006583Y-70340956D01*
X155975000Y-70293688D01*
X155975000Y-68356250D01*
X157325000Y-68356250D01*
X157325000Y-68664646D01*
X157374478Y-68784097D01*
X157465902Y-68875521D01*
X157585353Y-68925000D01*
X158643750Y-68925000D01*
X158725000Y-68843750D01*
X158725000Y-68275000D01*
X159075000Y-68275000D01*
X159075000Y-68843750D01*
X159156250Y-68925000D01*
X160214647Y-68925000D01*
X160334098Y-68875521D01*
X160425522Y-68784097D01*
X160474707Y-68665353D01*
X161885000Y-68665353D01*
X161885000Y-69323750D01*
X161966250Y-69405000D01*
X162885000Y-69405000D01*
X162885000Y-68486250D01*
X163235000Y-68486250D01*
X163235000Y-69405000D01*
X164153750Y-69405000D01*
X164235000Y-69323750D01*
X164235000Y-68665353D01*
X164185521Y-68545902D01*
X164094097Y-68454478D01*
X163974646Y-68405000D01*
X163316250Y-68405000D01*
X163235000Y-68486250D01*
X162885000Y-68486250D01*
X162803750Y-68405000D01*
X162145354Y-68405000D01*
X162025903Y-68454478D01*
X161934479Y-68545902D01*
X161885000Y-68665353D01*
X160474707Y-68665353D01*
X160475000Y-68664646D01*
X160475000Y-68356250D01*
X160393750Y-68275000D01*
X159075000Y-68275000D01*
X158725000Y-68275000D01*
X157406250Y-68275000D01*
X157325000Y-68356250D01*
X155975000Y-68356250D01*
X155975000Y-67535354D01*
X157325000Y-67535354D01*
X157325000Y-67843750D01*
X157406250Y-67925000D01*
X158725000Y-67925000D01*
X158725000Y-67356250D01*
X159075000Y-67356250D01*
X159075000Y-67925000D01*
X160393750Y-67925000D01*
X160475000Y-67843750D01*
X160475000Y-67535354D01*
X160425522Y-67415903D01*
X160334098Y-67324479D01*
X160214647Y-67275000D01*
X159156250Y-67275000D01*
X159075000Y-67356250D01*
X158725000Y-67356250D01*
X158643750Y-67275000D01*
X157585353Y-67275000D01*
X157465902Y-67324479D01*
X157374478Y-67415903D01*
X157325000Y-67535354D01*
X155975000Y-67535354D01*
X155975000Y-65731066D01*
X156131066Y-65575000D01*
X164968934Y-65575000D01*
X165125000Y-65731066D01*
X165125000Y-65731066D01*
G37*
X165125000Y-65731066D02*
X165125000Y-72868934D01*
X164968934Y-73025000D01*
X163713649Y-73025000D01*
X163877535Y-72915495D01*
X164121404Y-72550519D01*
X164207040Y-72120000D01*
X164121404Y-71689481D01*
X163877535Y-71324505D01*
X163512559Y-71080636D01*
X163082040Y-70995000D01*
X163037960Y-70995000D01*
X162607441Y-71080636D01*
X162242465Y-71324505D01*
X161998596Y-71689481D01*
X161912960Y-72120000D01*
X161998596Y-72550519D01*
X162242465Y-72915495D01*
X162406351Y-73025000D01*
X160430387Y-73025000D01*
X160430387Y-72800000D01*
X160409044Y-72692701D01*
X160348264Y-72601736D01*
X160257299Y-72540956D01*
X160150000Y-72519613D01*
X157650000Y-72519613D01*
X157542701Y-72540956D01*
X157451736Y-72601736D01*
X157390956Y-72692701D01*
X157369613Y-72800000D01*
X157369613Y-73025000D01*
X157255387Y-73025000D01*
X157255387Y-72950000D01*
X157234044Y-72842701D01*
X157173264Y-72751736D01*
X157082299Y-72690956D01*
X156975000Y-72669613D01*
X156225000Y-72669613D01*
X156117701Y-72690956D01*
X156026736Y-72751736D01*
X155975000Y-72829166D01*
X155975000Y-72370834D01*
X156026736Y-72448264D01*
X156117701Y-72509044D01*
X156225000Y-72530387D01*
X156975000Y-72530387D01*
X157082299Y-72509044D01*
X157173264Y-72448264D01*
X157234044Y-72357299D01*
X157255387Y-72250000D01*
X157255387Y-71450000D01*
X157234044Y-71342701D01*
X157173264Y-71251736D01*
X157082299Y-71190956D01*
X156975000Y-71169613D01*
X156225000Y-71169613D01*
X156117701Y-71190956D01*
X156041698Y-71241739D01*
X156050000Y-71200000D01*
X156050000Y-70600000D01*
X157369613Y-70600000D01*
X157369613Y-71600000D01*
X157390956Y-71707299D01*
X157451736Y-71798264D01*
X157542701Y-71859044D01*
X157650000Y-71880387D01*
X160150000Y-71880387D01*
X160257299Y-71859044D01*
X160348264Y-71798264D01*
X160409044Y-71707299D01*
X160430387Y-71600000D01*
X160430387Y-70600000D01*
X160409044Y-70492701D01*
X160348264Y-70401736D01*
X160257299Y-70340956D01*
X160150000Y-70319613D01*
X160131410Y-70319613D01*
X160174900Y-70214876D01*
X160175100Y-69986127D01*
X160113173Y-69836250D01*
X161885000Y-69836250D01*
X161885000Y-70494647D01*
X161934479Y-70614098D01*
X162025903Y-70705522D01*
X162145354Y-70755000D01*
X162803750Y-70755000D01*
X162885000Y-70673750D01*
X162885000Y-69755000D01*
X163235000Y-69755000D01*
X163235000Y-70673750D01*
X163316250Y-70755000D01*
X163974646Y-70755000D01*
X164094097Y-70705522D01*
X164185521Y-70614098D01*
X164235000Y-70494647D01*
X164235000Y-69836250D01*
X164153750Y-69755000D01*
X163235000Y-69755000D01*
X162885000Y-69755000D01*
X161966250Y-69755000D01*
X161885000Y-69836250D01*
X160113173Y-69836250D01*
X160087746Y-69774714D01*
X159926137Y-69612823D01*
X159714876Y-69525100D01*
X159486127Y-69524900D01*
X159274714Y-69612254D01*
X159112823Y-69773863D01*
X159025100Y-69985124D01*
X159024900Y-70213873D01*
X159030387Y-70227151D01*
X158937925Y-70319613D01*
X158862075Y-70319613D01*
X158769747Y-70227285D01*
X158774900Y-70214876D01*
X158775100Y-69986127D01*
X158687746Y-69774714D01*
X158526137Y-69612823D01*
X158314876Y-69525100D01*
X158086127Y-69524900D01*
X157874714Y-69612254D01*
X157712823Y-69773863D01*
X157625100Y-69985124D01*
X157624900Y-70213873D01*
X157668591Y-70319613D01*
X157650000Y-70319613D01*
X157542701Y-70340956D01*
X157451736Y-70401736D01*
X157390956Y-70492701D01*
X157369613Y-70600000D01*
X156050000Y-70600000D01*
X156050000Y-70500000D01*
X156023358Y-70366061D01*
X156006583Y-70340956D01*
X155975000Y-70293688D01*
X155975000Y-68356250D01*
X157325000Y-68356250D01*
X157325000Y-68664646D01*
X157374478Y-68784097D01*
X157465902Y-68875521D01*
X157585353Y-68925000D01*
X158643750Y-68925000D01*
X158725000Y-68843750D01*
X158725000Y-68275000D01*
X159075000Y-68275000D01*
X159075000Y-68843750D01*
X159156250Y-68925000D01*
X160214647Y-68925000D01*
X160334098Y-68875521D01*
X160425522Y-68784097D01*
X160474707Y-68665353D01*
X161885000Y-68665353D01*
X161885000Y-69323750D01*
X161966250Y-69405000D01*
X162885000Y-69405000D01*
X162885000Y-68486250D01*
X163235000Y-68486250D01*
X163235000Y-69405000D01*
X164153750Y-69405000D01*
X164235000Y-69323750D01*
X164235000Y-68665353D01*
X164185521Y-68545902D01*
X164094097Y-68454478D01*
X163974646Y-68405000D01*
X163316250Y-68405000D01*
X163235000Y-68486250D01*
X162885000Y-68486250D01*
X162803750Y-68405000D01*
X162145354Y-68405000D01*
X162025903Y-68454478D01*
X161934479Y-68545902D01*
X161885000Y-68665353D01*
X160474707Y-68665353D01*
X160475000Y-68664646D01*
X160475000Y-68356250D01*
X160393750Y-68275000D01*
X159075000Y-68275000D01*
X158725000Y-68275000D01*
X157406250Y-68275000D01*
X157325000Y-68356250D01*
X155975000Y-68356250D01*
X155975000Y-67535354D01*
X157325000Y-67535354D01*
X157325000Y-67843750D01*
X157406250Y-67925000D01*
X158725000Y-67925000D01*
X158725000Y-67356250D01*
X159075000Y-67356250D01*
X159075000Y-67925000D01*
X160393750Y-67925000D01*
X160475000Y-67843750D01*
X160475000Y-67535354D01*
X160425522Y-67415903D01*
X160334098Y-67324479D01*
X160214647Y-67275000D01*
X159156250Y-67275000D01*
X159075000Y-67356250D01*
X158725000Y-67356250D01*
X158643750Y-67275000D01*
X157585353Y-67275000D01*
X157465902Y-67324479D01*
X157374478Y-67415903D01*
X157325000Y-67535354D01*
X155975000Y-67535354D01*
X155975000Y-65731066D01*
X156131066Y-65575000D01*
X164968934Y-65575000D01*
X165125000Y-65731066D01*
M02*
